%
T1C0.0079F200S100
X-001000Y061400
X-000950Y067000
X-000900Y066240
X-000700Y021450
X-000500Y052050
X-000500Y062000
X-000300Y031550
X-000250Y069650
X-000170Y042190
X-000150Y041750
X000250Y040350
X000250Y059100
X000280Y043950
X000280Y055470
X000800Y067000
X000850Y066240
X001100Y052050
X001250Y031200
X001250Y062000
X001500Y069650
X001600Y051500
X001600Y052450
X002100Y025700
X002250Y051500
X002250Y052450
X002500Y067000
X002600Y066240
X002750Y-001350
X003000Y062000
X003250Y069650
X003950Y034220
X004100Y051300
X004100Y052400
X004250Y067000
X004350Y066240
X004500Y031500
X004500Y047250
X004720Y055470
X004750Y062000
X005000Y069650
X005100Y057950
X005250Y047250
X005250Y050200
X005250Y053200
X005250Y058300
X005280Y046220
X005300Y043950
X005500Y029500
X005650Y050600
X005750Y028500
X005750Y047500
X005800Y075350
X005950Y056500
X006000Y034380
X006000Y045600
X006000Y055000
X006050Y049780
X006250Y061950
X006500Y029500
X006600Y054700
X006650Y057050
X006750Y034350
X006750Y069650
X007000Y041750
X007200Y055000
X007250Y028500
X007270Y048750
X007250Y050350
X007450Y041150
X007500Y029500
X007500Y045750
X007500Y069450
X007700Y063900
X007750Y045450
X007750Y067000
X007850Y066240
X008000Y050350
X008000Y056500
X008070Y032530
X008250Y062000
X008400Y057050
X008500Y034550
X008500Y036250
X008500Y046850
X008500Y069650
X008750Y062950
X008800Y071050
X008950Y041150
X008950Y043350
X009000Y019250
X009000Y026750
X009000Y027750
X009300Y062650
X009500Y040350
X009500Y048750
X009500Y050350
X009500Y067000
X009600Y066240
X009900Y042050
X010000Y024750
X010030Y030470
X010000Y062000
X010250Y069650
X010650Y054400
X010650Y060000
X010750Y034550
X010750Y036250
X011250Y000850
X011250Y067000
X011300Y052900
X011300Y054400
X011350Y066240
X011450Y041150
X011450Y043350
X011750Y062000
X011950Y018500
X012000Y042150
X012000Y054450
X012000Y060450
X012000Y069650
X012030Y032530
X013000Y067000
X013050Y061050
X013100Y066240
X013250Y033150
X013470Y030850
X013500Y017850
X013600Y022000
X013500Y062000
X013750Y048750
X013800Y034030
X013750Y069650
X014000Y064300
X014030Y026450
X014300Y052500
X014500Y027000
X014500Y028000
X014500Y032150
X014500Y060450
X014500Y062100
X014550Y014500
X014750Y037000
X015000Y022350
X015020Y052530
X015250Y029750
X015500Y037000
X015750Y028250
X016200Y022970
X015750Y048750
X016200Y069700
X016200Y076900
X016250Y026750
X016700Y035400
X016700Y063900
X016700Y066100
X016750Y014450
X016750Y022350
X017000Y051860
X017100Y025000
X017250Y035750
X017300Y020350
X017300Y049900
X017500Y069650
X017600Y026750
X018000Y040350
X018244Y017856
X018450Y026050
X018450Y036780
X018450Y037470
X018500Y069750
X018650Y062650
X018660Y018900
X018850Y035450
X018950Y063900
X019000Y062950
X018950Y066100
X019040Y027900
X019250Y033950
X019290Y061670
X019500Y050750
X019550Y017280
X019650Y019450
X019550Y072750
X019750Y060700
X020040Y029380
X020050Y022000
X020500Y051300
X020720Y019920
X020950Y051600
X021000Y014500
X021156Y017856
X021500Y045100
X022550Y017600
X023250Y017600
X023500Y060750
X023500Y077500
X024000Y045250
X024050Y057000
X024100Y064350
X024100Y074100
X024350Y050750
X024456Y050356
X024500Y017600
X024500Y053550
X024500Y055250
X024500Y065700
X024500Y075450
X024700Y051780
X024750Y045250
X024850Y059500
X024900Y053250
X024850Y069500
X024850Y080000
X024950Y051500
X025030Y068700
X025100Y018900
X025200Y067750
X025250Y057850
X025300Y051650
X025350Y058900
X025450Y046250
X025450Y058550
X025500Y016300
X025510Y072100
X025510Y060650
X025510Y062150
X025510Y066900
X025510Y070900
X025510Y077400
X025600Y051900
X025620Y016820
X025790Y019560
X025870Y048910
X025950Y057350
X026000Y045250
X026100Y051800
X026150Y053700
X026200Y060250
X026250Y059150
X026450Y058350
X026500Y051850
X026590Y019450
X026600Y044300
X026600Y044800
X026750Y053350
X026750Y054850
X026750Y061150
X026850Y051700
X026850Y053950
X027150Y049350
X027150Y050100
X027150Y059950
X027300Y061800
X027350Y048800
X027300Y076500
X027400Y053650
X027500Y055250
X027550Y049400
X027650Y044800
X027650Y049050
X027680Y017760
X027700Y052950
X027900Y077400
X027950Y060650
X027950Y079250
X027980Y019030
X027990Y062350
X027990Y072100
X028190Y044290
X028250Y045250
X028250Y047000
X028250Y060850
X028300Y018400
X028550Y055550
X028300Y062150
X028650Y054350
X028800Y050050
X028850Y060500
X028950Y050850
X029010Y068400
X029010Y073400
X029010Y079400
X029050Y017100
X029150Y051550
X029200Y051150
X029150Y052050
X029200Y053000
X029150Y060300
X029250Y048000
X029250Y053650
X029250Y057550
X029350Y075800
X029450Y049250
X029450Y061400
X029500Y068600
X029650Y048550
X029750Y050750
X029750Y055250
X029800Y052250
X029800Y061950
X029800Y067500
X029950Y014750
X030200Y049700
X030600Y018200
X030650Y063600
X030700Y054200
X031000Y061950
X031300Y052250
X031300Y061100
X031490Y068600
X031500Y058150
X031700Y014750
X032070Y019030
X032120Y019570
X032150Y071000
X032370Y018510
X032400Y017750
X032500Y060250
X032750Y020000
X033750Y060350
X034400Y002500
X035250Y045750
X035500Y053200
X035750Y003750
X035800Y062400
X035950Y055550
X036150Y067200
X036250Y058850
X036300Y054200
X036350Y065300
X036500Y044400
X036650Y065100
X036750Y060250
X037000Y070300
X037050Y054550
X037500Y067500
X037650Y068000
X037800Y079000
X037900Y067550
X037950Y059350
X038050Y061650
X038050Y065650
X038250Y069450
X038300Y054050
X038650Y061700
X038700Y066900
X038750Y066450
X038750Y076600
X039000Y053650
X039000Y058850
X039507Y073043
X039700Y066470
X040550Y056780
X040750Y075850
X040950Y058450
X041500Y065800
X041750Y076100
X041950Y060650
X042050Y065950
X042150Y070550
X042250Y061250
X042350Y060900
X042250Y064650
X042350Y066250
X042350Y066850
X042600Y050850
X042750Y053950
X042750Y067500
X042600Y068850
X043550Y058350
X043550Y059850
X043700Y054250
X043550Y070050
X043850Y067750
X044450Y058030
X044450Y063400
X044450Y066520
X044550Y057650
X044650Y065700
X045000Y058500
X045000Y059950
X045550Y063150
X045900Y066900
X046050Y058650
X046250Y053650
X046500Y067500
X046550Y058950
X046650Y070850
X046850Y057050
X047150Y057350
X047150Y068100
X047250Y066150
X047350Y058050
X047600Y066250
X047600Y066650
X047650Y054450
X047850Y063050
X048200Y057030
X048750Y067500
X050250Y053650
X050250Y060350
X050750Y067500
X051250Y066050
X052000Y053650
X052500Y058750
X053000Y067450
X053250Y071750
X053750Y053650
X054100Y062550
X054630Y059620
X054750Y071100
X055000Y058750
X055550Y061950
X055550Y066250
X055000Y067450
X056530Y076450
X057250Y071250
X057250Y076450
X057900Y080700
X058350Y058630
X058600Y074000
X059000Y067500
X059250Y053650
X059550Y065650
X060000Y060350
X060800Y058280
X061000Y057100
X061500Y067500
X062050Y065950
X064000Y067500
X064500Y060000
X064750Y065550
X064880Y054320
X066300Y065600
X066350Y059600
X067500Y060250
X068370Y066780
X070200Y065600
X070230Y066780
X071220Y070220
X071250Y053850
X071250Y060350
X072200Y065600
X071250Y068750
X072250Y067350
X072250Y072000
X072500Y060300
X072800Y053850
X073250Y071500
X073680Y070220
X073700Y060720
X073900Y064950
X074200Y065600
X073900Y069250
X074250Y067050
X074700Y072000
X074750Y069950
X075500Y060350
X075500Y062250
X075750Y065250
X076000Y052500
X076330Y070310
X076650Y063260
X076650Y065740
X076750Y062750
X077750Y071050
X076750Y073250
X077820Y051220
X078100Y057350
X078150Y065740
X078250Y062750
X078880Y053370
X078950Y051780
X079450Y066850
X079500Y074400
X079750Y055450
X080150Y064400
X080200Y058030
T2C0.0315F200S100
X-000500Y005000
X-000500Y006000
X-000500Y007000
X-000500Y008000
X-000500Y010000
X-000500Y011000
X001000Y004000
X001000Y005000
X001000Y006000
X001000Y007000
X001000Y008000
X001000Y010000
X001000Y011000
X001500Y029500
X002500Y004000
X002500Y005000
X002500Y006000
X002500Y007000
X002500Y008000
X002500Y009000
X002500Y010000
X002500Y011000
X002500Y027500
X002500Y029500
X003500Y027500
X003500Y029500
X004000Y002000
X004000Y003000
X004000Y004000
X004000Y005000
X004000Y006000
X004000Y007000
X004000Y008000
X004000Y009000
X004000Y010000
X004000Y011000
X004500Y027500
X004500Y029500
X005500Y002000
X005500Y003000
X005500Y004000
X005500Y005000
X005500Y006000
X005500Y007000
X005500Y008000
X005500Y009000
X005500Y010000
X005500Y011000
X007000Y-001500
X007000Y-000500
X008000Y-001500
X007000Y002000
X007000Y003000
X007000Y004000
X007000Y005000
X007000Y006000
X007000Y008500
X008000Y008500
X008000Y011500
X007000Y011500
X008500Y-001000
X009000Y-001500
X008500Y002000
X008500Y003000
X008500Y004000
X009000Y007500
X009000Y008500
X009000Y009500
X009000Y010500
X009000Y011500
X009500Y002000
X009500Y003000
X010000Y-001500
X010000Y-000500
X010000Y007500
X010000Y008500
X010000Y009500
X010000Y010500
X010000Y011500
X011000Y-001500
X011000Y-000500
X012000Y-001500
X012000Y-000500
X012000Y000500
X012000Y002500
X012000Y007500
X011000Y007500
X011000Y008500
X011000Y009500
X011000Y010500
X011000Y011500
X012000Y008500
X012000Y009500
X012000Y010500
X012000Y011500
X013000Y-001500
X013500Y001500
X013500Y002500
X013000Y010500
X013000Y011500
X014000Y-001500
X014500Y001500
X014500Y002500
X014000Y010500
X014000Y011500
X015000Y-001500
X015000Y000500
X015500Y002500
X015000Y010500
X015000Y011500
X016000Y-001500
X016000Y000500
X016500Y002500
X016500Y003500
X016500Y004500
X016500Y005500
X016000Y009500
X016000Y010500
X016000Y011500
X017000Y-001500
X017000Y000500
X017500Y002500
X017500Y003500
X017500Y004500
X017500Y005500
X018000Y-001500
X018000Y000500
X018500Y002500
X018500Y003500
X018500Y004500
X018500Y005500
X018500Y009500
X018500Y010500
X018500Y011500
X019000Y-001500
X019000Y000500
X019500Y009500
X019500Y010500
X019500Y011500
X020000Y-001500
X020500Y001500
X020500Y002500
X020500Y003500
X020500Y004500
X020500Y005500
X021000Y-001500
X021500Y001500
X021500Y002500
X021500Y003500
X021500Y004500
X021500Y005500
X021500Y024000
X021500Y026000
X021500Y028000
X021500Y030000
X021500Y035500
X021500Y037000
X021500Y038500
X021500Y040000
X021500Y041500
X022000Y-001500
X022000Y-000500
X022000Y000500
X022500Y001500
X022500Y002500
X022500Y038500
X022500Y040000
X022500Y041500
X023000Y-001500
X023000Y-000500
X023000Y000500
X023000Y024000
X023000Y026000
X023000Y028000
X023500Y038500
X023500Y040000
X023500Y041500
X024000Y-001500
X025000Y-001500
X025000Y038500
X025000Y040000
X025000Y041500
X025500Y024000
X025500Y026000
X025500Y028000
X026000Y000500
X026000Y038500
X026000Y040000
X026000Y041500
X027000Y000500
X028000Y000500
X027000Y024000
X027000Y026000
X027000Y028000
X027000Y030000
X027000Y035500
X027000Y037000
X027000Y038500
X027000Y040000
X027000Y041500
X031000Y024000
X031000Y026000
X031000Y028000
X031000Y030000
X031000Y035500
X031000Y037000
X031000Y038500
X032000Y038500
X032000Y040000
X031000Y040000
X031000Y041500
X032000Y041500
X032500Y002500
X032500Y003500
X032500Y004500
X032500Y024000
X032500Y026000
X032500Y028000
X033000Y038500
X033000Y040000
X033000Y041500
X033500Y003500
X033500Y004500
X034500Y004500
X034500Y005500
X034500Y038500
X034500Y040000
X034500Y041500
X035000Y024000
X035000Y026000
X035000Y028000
X035500Y005500
X035500Y006500
X035500Y038500
X035500Y040000
X035500Y041500
X036500Y005500
X036500Y006500
X036500Y007500
X036500Y008500
X036500Y024000
X036500Y026000
X036500Y028000
X036500Y030000
X036500Y035500
X036500Y037000
X036500Y038500
X036500Y040000
X036500Y041500
X052175Y079106
X052175Y079893
X052963Y079106
X052963Y079893
X053750Y079106
X053750Y079893
X054537Y079106
X054537Y079893
X055324Y079106
X055324Y079893
X063925Y079106
X063925Y079893
X064713Y079106
X064713Y079893
X065500Y079106
X065500Y079893
X066287Y079106
X066287Y079893
X067074Y079106
X067074Y079893
T3C0.0433F200S100
X000000Y030000
X000250Y057750
X001250Y024750
X002000Y020500
X002000Y021500
X002000Y022500
X003000Y030750
X003250Y057750
X004933Y-000277
X006311Y-000277
X006311Y001533
X004933Y001533
X007689Y-000277
X007689Y001533
X008500Y024500
X009000Y022000
X009067Y-000277
X009067Y001533
X011250Y026000
X011250Y027000
X011250Y028000
X011250Y029000
X012250Y026000
X012250Y027000
X012250Y028000
X012250Y029000
X012750Y002000
X015000Y056000
X015000Y057000
X016000Y056000
X016000Y057000
X017000Y056000
X017000Y057000
X021000Y033000
X023250Y021750
X024250Y021750
X025250Y021750
X026750Y033000
X030250Y008000
X030250Y010000
X031250Y009000
X032750Y021750
X031250Y033000
X033750Y021750
X034750Y021750
X035000Y008063
X036000Y009063
X035000Y010063
X036000Y033000
X039750Y078000
X039750Y079000
X040750Y078000
X040750Y079000
X041750Y078000
X041750Y079000
X042750Y078000
X042750Y079000
X044177Y049095
X044177Y050905
X045500Y061000
X045500Y062000
X045555Y049095
X046933Y049095
X046933Y050905
X045555Y050905
X048311Y049095
X049689Y049095
X049689Y050905
X048311Y050905
X051067Y049095
X052445Y049095
X052445Y050905
X051067Y050905
X053823Y049095
X053823Y050905
X060000Y073000
X064177Y049095
X065555Y049095
X065555Y050905
X064177Y050905
X066933Y049095
X068311Y049095
X068311Y050905
X066933Y050905
X069689Y049095
X071067Y049095
X071067Y050905
X069689Y050905
X072445Y049095
X073823Y049095
X073823Y050905
X072445Y050905
T10C0.1378F200S100
X000000Y000000
X024250Y029250
X000000Y079252
X033750Y029250
X036220Y000000
X037378Y049205
X079527Y049205
X079527Y079252
T5C0.0551F200S100
X015347Y-000431
X017000Y-000431
X017000Y001734
X015347Y001734
X018653Y-000431
X018653Y001734
X026270Y-000431
X026270Y001734
X027923Y-000431
X029577Y-000431
X029577Y001734
X027923Y001734
X031230Y-000431
X031230Y001734
T9C0.1181F200S100
X014000Y008750
X024000Y008750
T7C0.0669F200S100
X016840Y007250
X019000Y007250
X021160Y007250
T4C0.0472F200S100
X002000Y015000
X006000Y015000
T8C0.0866F200S100
X000473Y009000
X007500Y010000
M30
