*
G04 Mass Parameters ***
*
G04 Image ***
*
%IND:\UTENTI\00.LAVORI IN CORSO\METALTRONICA\22-301-0\22-301-0.SMT*%
%ICAS*%
%MOIN*%
%IPPOS*%
%ASAXBY*%
G74*%FSLAN2X34Y34*%
*
G04 Aperture Definitions ***
*
%ADD10C,0.0394*%
%ADD11C,0.0800*%
%ADD12R,0.0800X0.0800*%
%ADD13R,0.0501X0.0404*%
%ADD14R,0.0320X0.0380*%
%ADD15R,0.0380X0.0320*%
%ADD16R,0.0886X0.0905*%
%ADD17R,0.0630X0.1102*%
%ADD18R,0.1024X0.0510*%
%ADD19R,0.0710X0.0400*%
%ADD20R,0.0630X0.0984*%
%ADD21R,0.0354X0.0480*%
%ADD22R,0.0850X0.1080*%
%ADD23R,0.0480X0.0354*%
%ADD24R,0.0787X0.0787*%
%ADD25R,0.0197X0.0315*%
%ADD26R,0.1080X0.0850*%
%ADD27C,0.1063*%
%ADD28R,0.0404X0.0501*%
%ADD29C,0.2756*%
%ADD30R,0.1220X0.0905*%
%ADD31C,0.1181*%
%ADD32C,0.0984*%
%ADD33C,0.0787*%
%ADD34C,0.0630*%
%ADD35R,0.0600X0.1200*%
%ADD36C,0.0610*%
%ADD37R,0.0610X0.0610*%
%ADD38R,0.0236X0.0413*%
%ADD39R,0.0197X0.0197*%
%ADD40R,0.0630X0.0866*%
%ADD41C,0.0187*%
%ADD42R,0.0400X0.0500*%
%ADD43C,0.2000*%
%ADD44R,0.0500X0.0400*%
%ADD45R,0.0400X0.0710*%
%ADD46R,0.0570X0.0590*%
%ADD47R,0.3100X0.3350*%
%ADD48R,0.0650X0.1500*%
%ADD49C,0.1378*%
%ADD50C,0.0866*%
%ADD51R,0.0236X0.0512*%
%ADD52R,0.0354X0.0512*%
%ADD53R,0.0118X0.0264*%
%ADD54O,0.0256X0.0650*%
%ADD55R,0.0512X0.0354*%
%ADD56R,0.0500X0.0270*%
%ADD57R,0.1220X0.0950*%
%ADD58R,0.0240X0.0750*%
%ADD59R,0.1580X0.0680*%
%ADD60R,0.0550X0.0680*%
%ADD61O,0.0700X0.0110*%
%ADD62R,0.0700X0.0110*%
%ADD63O,0.0110X0.0700*%
%ADD64R,0.0110X0.0700*%
%ADD65R,0.0480X0.0244*%
%ADD66R,0.0250X0.0350*%
%ADD67R,0.0350X0.0250*%
%ADD68R,0.0197X0.0394*%
%ADD69C,0.0276*%
%ADD70C,0.0512*%
%ADD71C,0.0250*%
%ADD72C,0.0000*%
%ADD73C,0.0100*%
%ADD74C,0.0050*%
%ADD75C,0.0276*%
%ADD76C,0.0500*%
%ADD77C,0.0120*%
%ADD78C,0.0276*%
%ADD79C,0.0276*%
%ADD80C,0.0590*%
%ADD81C,0.0060*%
*
G04 Plot Data ***
*
G54D73*
G01X0004580Y0030050D02*
Y0027250D01*
X0004490Y0030050D02*
Y0027250D01*
X0004400Y0030050D02*
Y0027250D01*
X0004310Y0030050D02*
Y0027250D01*
X0004220Y0030050D02*
Y0027250D01*
X0004130Y0030050D02*
Y0027250D01*
X0004040Y0030050D02*
Y0027250D01*
X0003950Y0030050D02*
Y0027250D01*
X0003860Y0030050D02*
Y0027250D01*
X0003770Y0030050D02*
Y0027250D01*
X0003680Y0030050D02*
Y0027250D01*
X0003590Y0030050D02*
Y0027250D01*
X0003500Y0030050D02*
Y0027250D01*
X0003410Y0030050D02*
Y0027250D01*
X0003320Y0030050D02*
Y0027250D01*
X0003230Y0030050D02*
Y0027250D01*
X0003140Y0030050D02*
Y0027250D01*
X0003050Y0030050D02*
Y0027250D01*
X0002960Y0030050D02*
Y0027250D01*
X0002870Y0030050D02*
Y0027250D01*
X0002780Y0030050D02*
Y0027250D01*
X0002690Y0030050D02*
Y0027250D01*
X0002600Y0030050D02*
Y0027250D01*
X0002510Y0030050D02*
Y0027250D01*
X0002420Y0030050D02*
Y0027250D01*
X0002330Y0030050D02*
Y0027250D01*
X0002240Y0030050D02*
Y0027250D01*
X0002150Y0030050D02*
Y0027250D01*
X0002060Y0030050D02*
Y0027250D01*
X0001970Y0030050D02*
Y0027250D01*
X0001880Y0030050D02*
Y0027250D01*
X0001790Y0030050D02*
Y0027250D01*
X0001700Y0030050D02*
Y0027250D01*
X0001610Y0030050D02*
Y0027250D01*
X0001520Y0030050D02*
Y0027250D01*
X0001430Y0030050D02*
Y0027250D01*
X0001340Y0030050D02*
Y0027250D01*
X0001250Y0030050D02*
Y0027250D01*
X0001160Y0030050D02*
Y0027250D01*
X0001070Y0030050D02*
Y0027250D01*
X0000980Y0030050D02*
Y0027250D01*
X0000890Y0030050D02*
Y0027250D01*
X0000800Y0030050D02*
Y0027250D01*
X0000710Y0030050D02*
Y0027250D01*
X0000620Y0030050D02*
Y0027250D01*
X0000530Y0030050D02*
Y0027250D01*
X0000440Y0030050D02*
Y0027250D01*
X0000350Y0030050D02*
Y0027250D01*
X0000260Y0030050D02*
Y0027250D01*
X0000170Y0030050D02*
Y0027250D01*
X0000080Y0030050D02*
Y0027250D01*
X-0000010Y0030050D02*
Y0027250D01*
X-0000100Y0030050D02*
Y0027250D01*
X-0000190Y0030050D02*
Y0027250D01*
X-0000280Y0030050D02*
Y0027250D01*
X-0000370Y0030050D02*
Y0027250D01*
X-0000460Y0030050D02*
Y0027250D01*
X0004850Y0029990D02*
X-0000500D01*
X0004850Y0029900D02*
X-0000500D01*
X0004850Y0029810D02*
X-0000500D01*
X0004850Y0029720D02*
X-0000500D01*
X0004850Y0029630D02*
X-0000500D01*
X0004850Y0029540D02*
X-0000500D01*
X0004850Y0029450D02*
X-0000500D01*
X0004850Y0029360D02*
X-0000500D01*
X0004850Y0029270D02*
X-0000500D01*
X0004850Y0029180D02*
X-0000500D01*
X0004850Y0029090D02*
X-0000500D01*
X0004850Y0029000D02*
X-0000500D01*
X0004850Y0028910D02*
X-0000500D01*
X0004850Y0028820D02*
X-0000500D01*
X0004850Y0028730D02*
X-0000500D01*
X0004850Y0028640D02*
X-0000500D01*
X0004850Y0028550D02*
X-0000500D01*
X0004850Y0028460D02*
X-0000500D01*
X0004850Y0028370D02*
X-0000500D01*
X0004850Y0028280D02*
X-0000500D01*
X0004850Y0028190D02*
X-0000500D01*
X0004850Y0028100D02*
X-0000500D01*
X0004850Y0028010D02*
X-0000500D01*
X0004850Y0027920D02*
X-0000500D01*
X0004850Y0027830D02*
X-0000500D01*
X0004850Y0027740D02*
X-0000500D01*
X0004850Y0027650D02*
X-0000500D01*
X0004850Y0027560D02*
X-0000500D01*
X0004850Y0027470D02*
X-0000500D01*
X0004850Y0027380D02*
X-0000500D01*
X0004850Y0027250D02*
X-0000500D01*
X0004850Y0030050D02*
Y0027250D01*
Y0030050D02*
X-0000500D01*
Y0027250D01*
X0004850Y0027290D02*
X-0000500D01*
X0004760Y0030050D02*
Y0027250D01*
X0004670Y0030050D02*
Y0027250D01*
X0028187Y0022991D02*
X0020313D01*
Y0030825D02*
Y0022951D01*
X0028187Y0030825D02*
X0020313D01*
X0028187D02*
Y0022951D01*
X0020313D01*
X0028187Y0026951D02*
X0020313D01*
X0028093Y0030825D02*
Y0022951D01*
X0028003Y0030825D02*
Y0022951D01*
X0027913Y0030825D02*
Y0022951D01*
X0027823Y0030825D02*
Y0022951D01*
X0027733Y0030825D02*
Y0022951D01*
X0027643Y0030825D02*
Y0022951D01*
X0027553Y0030825D02*
Y0022951D01*
X0027463Y0030825D02*
Y0022951D01*
X0027373Y0030825D02*
Y0022951D01*
X0027283Y0030825D02*
Y0022951D01*
X0027193Y0030825D02*
Y0022951D01*
X0027103Y0030825D02*
Y0022951D01*
X0027013Y0030825D02*
Y0022951D01*
X0026923Y0030825D02*
Y0022951D01*
X0026833Y0030825D02*
Y0022951D01*
X0026743Y0030825D02*
Y0022951D01*
X0026653Y0030825D02*
Y0022951D01*
X0026563Y0030825D02*
Y0022951D01*
X0026473Y0030825D02*
Y0022951D01*
X0026383Y0030825D02*
Y0022951D01*
X0026293Y0030825D02*
Y0022951D01*
X0026203Y0030825D02*
Y0022951D01*
X0026113Y0030825D02*
Y0022951D01*
X0026023Y0030825D02*
Y0022951D01*
X0025933Y0030825D02*
Y0022951D01*
X0025843Y0030825D02*
Y0022951D01*
X0025753Y0030825D02*
Y0022951D01*
X0025663Y0030825D02*
Y0022951D01*
X0025573Y0030825D02*
Y0022951D01*
X0025483Y0030825D02*
Y0022951D01*
X0025393Y0030825D02*
Y0022951D01*
X0025303Y0030825D02*
Y0022951D01*
X0025213Y0030825D02*
Y0022951D01*
X0025123Y0030825D02*
Y0022951D01*
X0025033Y0030825D02*
Y0022951D01*
X0024943Y0030825D02*
Y0022951D01*
X0024853Y0030825D02*
Y0022951D01*
X0024763Y0030825D02*
Y0022951D01*
X0024673Y0030825D02*
Y0022951D01*
X0024583Y0030825D02*
Y0022951D01*
X0024493Y0030825D02*
Y0022951D01*
X0024403Y0030825D02*
Y0022951D01*
X0024313Y0030825D02*
Y0022951D01*
X0024223Y0030825D02*
Y0022951D01*
X0024133Y0030825D02*
Y0022951D01*
X0024043Y0030825D02*
Y0022951D01*
X0023953Y0030825D02*
Y0022951D01*
X0023863Y0030825D02*
Y0022951D01*
X0023773Y0030825D02*
Y0022951D01*
X0023683Y0030825D02*
Y0022951D01*
X0023593Y0030825D02*
Y0022951D01*
X0023503Y0030825D02*
Y0022951D01*
X0023413Y0030825D02*
Y0022951D01*
X0023323Y0030825D02*
Y0022951D01*
X0023233Y0030825D02*
Y0022951D01*
X0023143Y0030825D02*
Y0022951D01*
X0023053Y0030825D02*
Y0022951D01*
X0022963Y0030825D02*
Y0022951D01*
X0022873Y0030825D02*
Y0022951D01*
X0022783Y0030825D02*
Y0022951D01*
X0022693Y0030825D02*
Y0022951D01*
X0022603Y0030825D02*
Y0022951D01*
X0022513Y0030825D02*
Y0022951D01*
X0022423Y0030825D02*
Y0022951D01*
X0022333Y0030825D02*
Y0022951D01*
X0022243Y0030825D02*
Y0022951D01*
X0022153Y0030825D02*
Y0022951D01*
X0022063Y0030825D02*
Y0022951D01*
X0021973Y0030825D02*
Y0022951D01*
X0021883Y0030825D02*
Y0022951D01*
X0021793Y0030825D02*
Y0022951D01*
X0021703Y0030825D02*
Y0022951D01*
X0021613Y0030825D02*
Y0022951D01*
X0021523Y0030825D02*
Y0022951D01*
X0021433Y0030825D02*
Y0022951D01*
X0021343Y0030825D02*
Y0022951D01*
X0021253Y0030825D02*
Y0022951D01*
X0021163Y0030825D02*
Y0022951D01*
X0021073Y0030825D02*
Y0022951D01*
X0020983Y0030825D02*
Y0022951D01*
X0020893Y0030825D02*
Y0022951D01*
X0020803Y0030825D02*
Y0022951D01*
X0020713Y0030825D02*
Y0022951D01*
X0020623Y0030825D02*
Y0022951D01*
X0020533Y0030825D02*
Y0022951D01*
X0020443Y0030825D02*
Y0022951D01*
X0028187Y0030731D02*
X0020313D01*
X0028187Y0030641D02*
X0020313D01*
X0028187Y0030551D02*
X0020313D01*
X0028187Y0030461D02*
X0020313D01*
X0028187Y0030371D02*
X0020313D01*
X0028187Y0030281D02*
X0020313D01*
X0028187Y0030191D02*
X0020313D01*
X0028187Y0030101D02*
X0020313D01*
X0028187Y0030011D02*
X0020313D01*
X0028187Y0029921D02*
X0020313D01*
X0028187Y0029831D02*
X0020313D01*
X0028187Y0029741D02*
X0020313D01*
X0028187Y0029651D02*
X0020313D01*
X0028187Y0029561D02*
X0020313D01*
X0028187Y0029471D02*
X0020313D01*
X0028187Y0029381D02*
X0020313D01*
X0028187Y0029291D02*
X0020313D01*
X0028187Y0029201D02*
X0020313D01*
X0028187Y0029111D02*
X0020313D01*
X0028187Y0029021D02*
X0020313D01*
X0028187Y0028931D02*
X0020313D01*
X0028187Y0028841D02*
X0020313D01*
X0028187Y0028751D02*
X0020313D01*
X0028187Y0028661D02*
X0020313D01*
X0028187Y0028571D02*
X0020313D01*
X0028187Y0028481D02*
X0020313D01*
X0028187Y0028391D02*
X0020313D01*
X0028187Y0028301D02*
X0020313D01*
X0028187Y0028211D02*
X0020313D01*
X0028187Y0028121D02*
X0020313D01*
X0028187Y0028031D02*
X0020313D01*
X0028187Y0027941D02*
X0020313D01*
X0028187Y0027851D02*
X0020313D01*
X0028187Y0027761D02*
X0020313D01*
X0028187Y0027671D02*
X0020313D01*
X0028187Y0027581D02*
X0020313D01*
X0028187Y0027491D02*
X0020313D01*
X0028187Y0027401D02*
X0020313D01*
X0028187Y0027311D02*
X0020313D01*
X0028187Y0027221D02*
X0020313D01*
X0028187Y0027131D02*
X0020313D01*
X0028187Y0027041D02*
X0020313D01*
X0020353Y0030825D02*
Y0022951D01*
X0028187Y0026861D02*
X0020313D01*
X0028187Y0026771D02*
X0020313D01*
X0028187Y0026681D02*
X0020313D01*
X0028187Y0026591D02*
X0020313D01*
X0028187Y0026501D02*
X0020313D01*
X0028187Y0026411D02*
X0020313D01*
X0028187Y0026321D02*
X0020313D01*
X0028187Y0026231D02*
X0020313D01*
X0028187Y0026141D02*
X0020313D01*
X0028187Y0026051D02*
X0020313D01*
X0028187Y0025961D02*
X0020313D01*
X0028187Y0025871D02*
X0020313D01*
X0028187Y0025781D02*
X0020313D01*
X0028187Y0025691D02*
X0020313D01*
X0028187Y0025601D02*
X0020313D01*
X0028187Y0025511D02*
X0020313D01*
X0028187Y0025421D02*
X0020313D01*
X0028187Y0025331D02*
X0020313D01*
X0028187Y0025241D02*
X0020313D01*
X0028187Y0025151D02*
X0020313D01*
X0028187Y0025061D02*
X0020313D01*
X0028187Y0024971D02*
X0020313D01*
X0028187Y0024881D02*
X0020313D01*
X0028187Y0024791D02*
X0020313D01*
X0028187Y0024701D02*
X0020313D01*
X0028187Y0024611D02*
X0020313D01*
X0028187Y0024521D02*
X0020313D01*
X0028187Y0024431D02*
X0020313D01*
X0028187Y0024341D02*
X0020313D01*
X0028187Y0024251D02*
X0020313D01*
X0028187Y0024161D02*
X0020313D01*
X0028187Y0024071D02*
X0020313D01*
X0028187Y0023981D02*
X0020313D01*
X0028187Y0023891D02*
X0020313D01*
X0028187Y0023801D02*
X0020313D01*
X0028187Y0023711D02*
X0020313D01*
X0028187Y0023621D02*
X0020313D01*
X0028187Y0023531D02*
X0020313D01*
X0028187Y0023441D02*
X0020313D01*
X0028187Y0023351D02*
X0020313D01*
X0028187Y0023261D02*
X0020313D01*
X0028187Y0023171D02*
X0020313D01*
X0028187Y0023081D02*
X0020313D01*
X0027750Y0013842D02*
X0022000D01*
X0027750Y0013752D02*
X0022000D01*
X0027750Y0013662D02*
X0022000D01*
X0027750Y0013572D02*
X0022000D01*
X0027750Y0013482D02*
X0022000D01*
X0027750Y0013392D02*
X0022000D01*
X0027750Y0013302D02*
X0022000D01*
X0027750Y0013212D02*
X0022000D01*
X0027750Y0013122D02*
X0022000D01*
X0027750Y0013032D02*
X0022000D01*
X0027750Y0012942D02*
X0022000D01*
X0027750Y0012852D02*
X0022000D01*
X0027750Y0012762D02*
X0022000D01*
X0027750Y0012672D02*
X0022000D01*
X0027750Y0012582D02*
X0022000D01*
X0027750Y0012492D02*
X0022000D01*
X0027750Y0012402D02*
X0022000D01*
X0027750Y0012312D02*
X0022000D01*
X0027750Y0012222D02*
X0022000D01*
X0027750Y0012132D02*
X0022000D01*
X0027750Y0012042D02*
X0022000D01*
X0027750Y0011952D02*
X0022000D01*
X0027750Y0011862D02*
X0022000D01*
X0027750Y0011772D02*
X0022000D01*
X0027750Y0011682D02*
X0022000D01*
X0027750Y0011592D02*
X0022000D01*
X0027750Y0011502D02*
X0022000D01*
X0027750Y0011412D02*
X0022000D01*
X0027750Y0011322D02*
X0022000D01*
X0027750Y0011232D02*
X0022000D01*
X0027750Y0011142D02*
X0022000D01*
X0027750Y0011052D02*
X0022000D01*
X0027750Y0010962D02*
X0022000D01*
X0027750Y0010872D02*
X0022000D01*
X0027750Y0010782D02*
X0022000D01*
X0027750Y0010692D02*
X0022000D01*
X0027750Y0010602D02*
X0022000D01*
X0027750Y0010512D02*
X0022000D01*
X0027750Y0010422D02*
X0022000D01*
X0027750Y0010332D02*
X0022000D01*
X0027750Y0010242D02*
X0022000D01*
X0027750Y0010152D02*
X0022000D01*
X0027750Y0010062D02*
X0022000D01*
X0027750Y0009972D02*
X0022000D01*
X0027750Y0009882D02*
X0022000D01*
X0027750Y0009792D02*
X0022000D01*
X0027750Y0009702D02*
X0022000D01*
X0027750Y0009612D02*
X0022000D01*
X0027750Y0009522D02*
X0022000D01*
X0027750Y0009432D02*
X0022000D01*
X0027750Y0009342D02*
X0022000D01*
X0027750Y0009252D02*
X0022000D01*
X0027750Y0009162D02*
X0022000D01*
X0027750Y0008262D02*
X0022000D01*
X0027750Y0008172D02*
X0022000D01*
X0027750Y0008082D02*
X0022000D01*
X0027750Y0007992D02*
X0022000D01*
X0027750Y0007902D02*
X0022000D01*
X0027750Y0007812D02*
X0022000D01*
X0027750Y0007722D02*
X0022000D01*
X0027750Y0007632D02*
X0022000D01*
X0027750Y0007542D02*
X0022000D01*
X0027750Y0007452D02*
X0022000D01*
X0027750Y0007362D02*
X0022000D01*
X0027750Y0007272D02*
X0022000D01*
X0027750Y0007182D02*
X0022000D01*
X0027750Y0007092D02*
X0022000D01*
X0027750Y0007002D02*
X0022000D01*
X0027750Y0006912D02*
X0022000D01*
X0027750Y0006822D02*
X0022000D01*
X0027750Y0006732D02*
X0022000D01*
X0027750Y0006642D02*
X0022000D01*
X0027750Y0006552D02*
X0022000D01*
X0027750Y0006462D02*
X0022000D01*
X0027750Y0006372D02*
X0022000D01*
X0027750Y0006282D02*
X0022000D01*
X0027750Y0006192D02*
X0022000D01*
X0027750Y0006102D02*
X0022000D01*
X0027750Y0006012D02*
X0022000D01*
X0027750Y0005922D02*
X0022000D01*
X0027750Y0005832D02*
X0022000D01*
X0027750Y0005742D02*
X0022000D01*
X0027750Y0005652D02*
X0022000D01*
X0027750Y0005562D02*
X0022000D01*
X0027750Y0005472D02*
X0022000D01*
X0027750Y0005382D02*
X0022000D01*
X0027750Y0005292D02*
X0022000D01*
X0027750Y0005202D02*
X0022000D01*
X0027750Y0005112D02*
X0022000D01*
X0027750Y0005022D02*
X0022000D01*
X0027750Y0004932D02*
X0022000D01*
X0027750Y0004842D02*
X0022000D01*
X0027750Y0004752D02*
X0022000D01*
X0027750Y0004662D02*
X0022000D01*
X0027750Y0004572D02*
X0022000D01*
X0027750Y0004482D02*
X0022000D01*
X0027750Y0004392D02*
X0022000D01*
X0027750Y0004302D02*
X0022000D01*
X0027750Y0004212D02*
X0022000D01*
X0027750Y0004122D02*
X0022000D01*
X0027750Y0004032D02*
X0022000D01*
X0027750Y0003942D02*
X0022000D01*
X0027750Y0003852D02*
X0022000D01*
X0027750Y0003762D02*
X0022000D01*
X0027750Y0003672D02*
X0022000D01*
X0016000Y0003632D02*
X0010339D01*
X0016000Y0008356D02*
Y0003632D01*
X0022000Y0008356D02*
X0016000D01*
X0022000D02*
Y0003632D01*
X0027750D02*
X0022000D01*
X0027750Y0013868D02*
Y0003632D01*
Y0013868D02*
X0022000D01*
Y0009150D01*
X0021950Y0009144D01*
X0016000D01*
Y0013868D02*
Y0009144D01*
Y0013868D02*
X0010250D01*
Y0003632D01*
X0010339D02*
X0010250D01*
X0016000Y0003672D02*
X0010250D01*
X0027750Y0008802D02*
X0010250D01*
X0027660Y0013868D02*
Y0003632D01*
X0027570Y0013868D02*
Y0003632D01*
X0027480Y0013868D02*
Y0003632D01*
X0027390Y0013868D02*
Y0003632D01*
X0027300Y0013868D02*
Y0003632D01*
X0027210Y0013868D02*
Y0003632D01*
X0027120Y0013868D02*
Y0003632D01*
X0027030Y0013868D02*
Y0003632D01*
X0026940Y0013868D02*
Y0003632D01*
X0026850Y0013868D02*
Y0003632D01*
X0026760Y0013868D02*
Y0003632D01*
X0026670Y0013868D02*
Y0003632D01*
X0026580Y0013868D02*
Y0003632D01*
X0026490Y0013868D02*
Y0003632D01*
X0026400Y0013868D02*
Y0003632D01*
X0026310Y0013868D02*
Y0003632D01*
X0026220Y0013868D02*
Y0003632D01*
X0026130Y0013868D02*
Y0003632D01*
X0026040Y0013868D02*
Y0003632D01*
X0025950Y0013868D02*
Y0003632D01*
X0025860Y0013868D02*
Y0003632D01*
X0025770Y0013868D02*
Y0003632D01*
X0025680Y0013868D02*
Y0003632D01*
X0025590Y0013868D02*
Y0003632D01*
X0025500Y0013868D02*
Y0003632D01*
X0025410Y0013868D02*
Y0003632D01*
X0025320Y0013868D02*
Y0003632D01*
X0025230Y0013868D02*
Y0003632D01*
X0025140Y0013868D02*
Y0003632D01*
X0025050Y0013868D02*
Y0003632D01*
X0024960Y0013868D02*
Y0003632D01*
X0024870Y0013868D02*
Y0003632D01*
X0024780Y0013868D02*
Y0003632D01*
X0024690Y0013868D02*
Y0003632D01*
X0024600Y0013868D02*
Y0003632D01*
X0024510Y0013868D02*
Y0003632D01*
X0024420Y0013868D02*
Y0003632D01*
X0024330Y0013868D02*
Y0003632D01*
X0024240Y0013868D02*
Y0003632D01*
X0024150Y0013868D02*
Y0003632D01*
X0024060Y0013868D02*
Y0003632D01*
X0023970Y0013868D02*
Y0003632D01*
X0023880Y0013868D02*
Y0003632D01*
X0023790Y0013868D02*
Y0003632D01*
X0023700Y0013868D02*
Y0003632D01*
X0023610Y0013868D02*
Y0003632D01*
X0023520Y0013868D02*
Y0003632D01*
X0023430Y0013868D02*
Y0003632D01*
X0023340Y0013868D02*
Y0003632D01*
X0023250Y0013868D02*
Y0003632D01*
X0023160Y0013868D02*
Y0003632D01*
X0023070Y0013868D02*
Y0003632D01*
X0022980Y0013868D02*
Y0003632D01*
X0022890Y0013868D02*
Y0003632D01*
X0022800Y0013868D02*
Y0003632D01*
X0022710Y0013868D02*
Y0003632D01*
X0022620Y0013868D02*
Y0003632D01*
X0022530Y0013868D02*
Y0003632D01*
X0022440Y0013868D02*
Y0003632D01*
X0022350Y0013868D02*
Y0003632D01*
X0022260Y0013868D02*
Y0003632D01*
X0022170Y0013868D02*
Y0003632D01*
X0022080Y0013868D02*
Y0003632D01*
X0021990Y0009149D02*
Y0008356D01*
X0021900Y0009144D02*
Y0008356D01*
X0021810Y0009144D02*
Y0008356D01*
X0021720Y0009144D02*
Y0008356D01*
X0021630Y0009144D02*
Y0008356D01*
X0021540Y0009144D02*
Y0008356D01*
X0021450Y0009144D02*
Y0008356D01*
X0021360Y0009144D02*
Y0008356D01*
X0021270Y0009144D02*
Y0008356D01*
X0021180Y0009144D02*
Y0008356D01*
X0021090Y0009144D02*
Y0008356D01*
X0021000Y0009144D02*
Y0008356D01*
X0020910Y0009144D02*
Y0008356D01*
X0020820Y0009144D02*
Y0008356D01*
X0020730Y0009144D02*
Y0008356D01*
X0020640Y0009144D02*
Y0008356D01*
X0020550Y0009144D02*
Y0008356D01*
X0020460Y0009144D02*
Y0008356D01*
X0020370Y0009144D02*
Y0008356D01*
X0020280Y0009144D02*
Y0008356D01*
X0020190Y0009144D02*
Y0008356D01*
X0020100Y0009144D02*
Y0008356D01*
X0020010Y0009144D02*
Y0008356D01*
X0019920Y0009144D02*
Y0008356D01*
X0019830Y0009144D02*
Y0008356D01*
X0019740Y0009144D02*
Y0008356D01*
X0019650Y0009144D02*
Y0008356D01*
X0019560Y0009144D02*
Y0008356D01*
X0019470Y0009144D02*
Y0008356D01*
X0019380Y0009144D02*
Y0008356D01*
X0019290Y0009144D02*
Y0008356D01*
X0019200Y0009144D02*
Y0008356D01*
X0016000Y0006282D02*
X0010250D01*
X0019020Y0009144D02*
Y0008356D01*
X0018930Y0009144D02*
Y0008356D01*
X0018840Y0009144D02*
Y0008356D01*
X0018750Y0009144D02*
Y0008356D01*
X0018660Y0009144D02*
Y0008356D01*
X0018570Y0009144D02*
Y0008356D01*
X0018480Y0009144D02*
Y0008356D01*
X0018390Y0009144D02*
Y0008356D01*
X0018300Y0009144D02*
Y0008356D01*
X0018210Y0009144D02*
Y0008356D01*
X0018120Y0009144D02*
Y0008356D01*
X0018030Y0009144D02*
Y0008356D01*
X0017940Y0009144D02*
Y0008356D01*
X0017850Y0009144D02*
Y0008356D01*
X0017760Y0009144D02*
Y0008356D01*
X0017670Y0009144D02*
Y0008356D01*
X0017580Y0009144D02*
Y0008356D01*
X0017490Y0009144D02*
Y0008356D01*
X0017400Y0009144D02*
Y0008356D01*
X0017310Y0009144D02*
Y0008356D01*
X0017220Y0009144D02*
Y0008356D01*
X0017130Y0009144D02*
Y0008356D01*
X0017040Y0009144D02*
Y0008356D01*
X0016950Y0009144D02*
Y0008356D01*
X0016860Y0009144D02*
Y0008356D01*
X0016770Y0009144D02*
Y0008356D01*
X0016680Y0009144D02*
Y0008356D01*
X0016590Y0009144D02*
Y0008356D01*
X0016500Y0009144D02*
Y0008356D01*
X0016410Y0009144D02*
Y0008356D01*
X0016320Y0009144D02*
Y0008356D01*
X0016230Y0009144D02*
Y0008356D01*
X0016140Y0009144D02*
Y0008356D01*
X0016050Y0009144D02*
Y0008356D01*
X0015960Y0013868D02*
Y0003632D01*
X0015870Y0013868D02*
Y0003632D01*
X0015780Y0013868D02*
Y0003632D01*
X0015690Y0013868D02*
Y0003632D01*
X0015600Y0013868D02*
Y0003632D01*
X0015510Y0013868D02*
Y0003632D01*
X0015420Y0013868D02*
Y0003632D01*
X0015330Y0013868D02*
Y0003632D01*
X0015240Y0013868D02*
Y0003632D01*
X0015150Y0013868D02*
Y0003632D01*
X0015060Y0013868D02*
Y0003632D01*
X0014970Y0013868D02*
Y0003632D01*
X0014880Y0013868D02*
Y0003632D01*
X0014790Y0013868D02*
Y0003632D01*
X0014700Y0013868D02*
Y0003632D01*
X0014610Y0013868D02*
Y0003632D01*
X0014520Y0013868D02*
Y0003632D01*
X0014430Y0013868D02*
Y0003632D01*
X0014340Y0013868D02*
Y0003632D01*
X0014250Y0013868D02*
Y0003632D01*
X0014160Y0013868D02*
Y0003632D01*
X0014070Y0013868D02*
Y0003632D01*
X0013980Y0013868D02*
Y0003632D01*
X0013890Y0013868D02*
Y0003632D01*
X0013800Y0013868D02*
Y0003632D01*
X0013710Y0013868D02*
Y0003632D01*
X0013620Y0013868D02*
Y0003632D01*
X0013530Y0013868D02*
Y0003632D01*
X0013440Y0013868D02*
Y0003632D01*
X0013350Y0013868D02*
Y0003632D01*
X0013260Y0013868D02*
Y0003632D01*
X0013170Y0013868D02*
Y0003632D01*
X0013080Y0013868D02*
Y0003632D01*
X0012990Y0013868D02*
Y0003632D01*
X0012900Y0013868D02*
Y0003632D01*
X0012810Y0013868D02*
Y0003632D01*
X0012720Y0013868D02*
Y0003632D01*
X0012630Y0013868D02*
Y0003632D01*
X0012540Y0013868D02*
Y0003632D01*
X0012450Y0013868D02*
Y0003632D01*
X0012360Y0013868D02*
Y0003632D01*
X0012270Y0013868D02*
Y0003632D01*
X0012180Y0013868D02*
Y0003632D01*
X0012090Y0013868D02*
Y0003632D01*
X0012000Y0013868D02*
Y0003632D01*
X0011910Y0013868D02*
Y0003632D01*
X0011820Y0013868D02*
Y0003632D01*
X0011730Y0013868D02*
Y0003632D01*
X0011640Y0013868D02*
Y0003632D01*
X0011550Y0013868D02*
Y0003632D01*
X0011460Y0013868D02*
Y0003632D01*
X0011370Y0013868D02*
Y0003632D01*
X0011280Y0013868D02*
Y0003632D01*
X0011190Y0013868D02*
Y0003632D01*
X0011100Y0013868D02*
Y0003632D01*
X0011010Y0013868D02*
Y0003632D01*
X0010920Y0013868D02*
Y0003632D01*
X0010830Y0013868D02*
Y0003632D01*
X0010740Y0013868D02*
Y0003632D01*
X0010650Y0013868D02*
Y0003632D01*
X0010560Y0013868D02*
Y0003632D01*
X0010470Y0013868D02*
Y0003632D01*
X0010380Y0013868D02*
Y0003632D01*
X0016000Y0013842D02*
X0010250D01*
X0016000Y0013752D02*
X0010250D01*
X0016000Y0013662D02*
X0010250D01*
X0016000Y0013572D02*
X0010250D01*
X0016000Y0013482D02*
X0010250D01*
X0016000Y0013392D02*
X0010250D01*
X0016000Y0013302D02*
X0010250D01*
X0016000Y0013212D02*
X0010250D01*
X0016000Y0013122D02*
X0010250D01*
X0016000Y0013032D02*
X0010250D01*
X0016000Y0012942D02*
X0010250D01*
X0016000Y0012852D02*
X0010250D01*
X0016000Y0012762D02*
X0010250D01*
X0016000Y0012672D02*
X0010250D01*
X0016000Y0012582D02*
X0010250D01*
X0016000Y0012492D02*
X0010250D01*
X0016000Y0012402D02*
X0010250D01*
X0016000Y0012312D02*
X0010250D01*
X0016000Y0012222D02*
X0010250D01*
X0016000Y0012132D02*
X0010250D01*
X0016000Y0012042D02*
X0010250D01*
X0016000Y0011952D02*
X0010250D01*
X0016000Y0011862D02*
X0010250D01*
X0016000Y0011772D02*
X0010250D01*
X0016000Y0011682D02*
X0010250D01*
X0016000Y0011592D02*
X0010250D01*
X0016000Y0011502D02*
X0010250D01*
X0016000Y0011412D02*
X0010250D01*
X0016000Y0011322D02*
X0010250D01*
X0016000Y0011232D02*
X0010250D01*
X0016000Y0011142D02*
X0010250D01*
X0016000Y0011052D02*
X0010250D01*
X0016000Y0010962D02*
X0010250D01*
X0016000Y0010872D02*
X0010250D01*
X0016000Y0010782D02*
X0010250D01*
X0016000Y0010692D02*
X0010250D01*
X0016000Y0010602D02*
X0010250D01*
X0016000Y0010512D02*
X0010250D01*
X0016000Y0010422D02*
X0010250D01*
X0016000Y0010332D02*
X0010250D01*
X0016000Y0010242D02*
X0010250D01*
X0016000Y0010152D02*
X0010250D01*
X0016000Y0010062D02*
X0010250D01*
X0016000Y0009972D02*
X0010250D01*
X0016000Y0009882D02*
X0010250D01*
X0016000Y0009792D02*
X0010250D01*
X0016000Y0009702D02*
X0010250D01*
X0016000Y0009612D02*
X0010250D01*
X0016000Y0009522D02*
X0010250D01*
X0016000Y0009432D02*
X0010250D01*
X0016000Y0009342D02*
X0010250D01*
X0016000Y0009252D02*
X0010250D01*
X0016000Y0009162D02*
X0010250D01*
X0027750Y0009072D02*
X0010250D01*
X0027750Y0008982D02*
X0010250D01*
X0027750Y0008892D02*
X0010250D01*
X0019110Y0009144D02*
Y0008356D01*
X0027750Y0008712D02*
X0010250D01*
X0027750Y0008622D02*
X0010250D01*
X0027750Y0008532D02*
X0010250D01*
X0027750Y0008442D02*
X0010250D01*
X0027750Y0008352D02*
X0010250D01*
X0016000Y0008262D02*
X0010250D01*
X0016000Y0008172D02*
X0010250D01*
X0016000Y0008082D02*
X0010250D01*
X0016000Y0007992D02*
X0010250D01*
X0016000Y0007902D02*
X0010250D01*
X0016000Y0007812D02*
X0010250D01*
X0016000Y0007722D02*
X0010250D01*
X0016000Y0007632D02*
X0010250D01*
X0016000Y0007542D02*
X0010250D01*
X0016000Y0007452D02*
X0010250D01*
X0016000Y0007362D02*
X0010250D01*
X0016000Y0007272D02*
X0010250D01*
X0016000Y0007182D02*
X0010250D01*
X0016000Y0007092D02*
X0010250D01*
X0016000Y0007002D02*
X0010250D01*
X0016000Y0006912D02*
X0010250D01*
X0016000Y0006822D02*
X0010250D01*
X0016000Y0006732D02*
X0010250D01*
X0016000Y0006642D02*
X0010250D01*
X0016000Y0006552D02*
X0010250D01*
X0016000Y0006462D02*
X0010250D01*
X0016000Y0006372D02*
X0010250D01*
X0010290Y0013868D02*
Y0003632D01*
X0016000Y0006192D02*
X0010250D01*
X0016000Y0006102D02*
X0010250D01*
X0016000Y0006012D02*
X0010250D01*
X0016000Y0005922D02*
X0010250D01*
X0016000Y0005832D02*
X0010250D01*
X0016000Y0005742D02*
X0010250D01*
X0016000Y0005652D02*
X0010250D01*
X0016000Y0005562D02*
X0010250D01*
X0016000Y0005472D02*
X0010250D01*
X0016000Y0005382D02*
X0010250D01*
X0016000Y0005292D02*
X0010250D01*
X0016000Y0005202D02*
X0010250D01*
X0016000Y0005112D02*
X0010250D01*
X0016000Y0005022D02*
X0010250D01*
X0016000Y0004932D02*
X0010250D01*
X0016000Y0004842D02*
X0010250D01*
X0016000Y0004752D02*
X0010250D01*
X0016000Y0004662D02*
X0010250D01*
X0016000Y0004572D02*
X0010250D01*
X0016000Y0004482D02*
X0010250D01*
X0016000Y0004392D02*
X0010250D01*
X0016000Y0004302D02*
X0010250D01*
X0016000Y0004212D02*
X0010250D01*
X0016000Y0004122D02*
X0010250D01*
X0016000Y0004032D02*
X0010250D01*
X0016000Y0003942D02*
X0010250D01*
X0016000Y0003852D02*
X0010250D01*
X0016000Y0003762D02*
X0010250D01*
X0056796Y0059071D02*
Y0058677D01*
X0057425Y0059527D02*
X0057150D01*
X0057425Y0059437D02*
X0057150D01*
X0057425Y0059347D02*
X0057150D01*
X0057425Y0059257D02*
X0057150D01*
X0057425Y0059167D02*
X0057150D01*
X0057425Y0059077D02*
X0057150D01*
X0057425Y0058987D02*
X0056756D01*
X0057425Y0058897D02*
X0056756D01*
X0057425Y0058807D02*
X0056756D01*
X0057425Y0059583D02*
Y0058677D01*
X0056756D01*
Y0059071D02*
Y0058677D01*
X0057336Y0059583D02*
Y0058677D01*
X0057246Y0059583D02*
Y0058677D01*
X0057156Y0059583D02*
Y0058677D01*
X0057066Y0059071D02*
Y0058677D01*
X0056976Y0059071D02*
Y0058677D01*
X0056886Y0059071D02*
Y0058677D01*
X0057425Y0058717D02*
X0056756D01*
X0057150Y0059071D02*
X0056756D01*
X0057150Y0059583D02*
Y0059071D01*
X0057425Y0059583D02*
X0057150D01*
X0056796Y0058323D02*
Y0057929D01*
X0057425Y0058267D02*
X0056756D01*
X0057425Y0058177D02*
X0056756D01*
X0057425Y0058087D02*
X0056756D01*
X0057425Y0057997D02*
X0056756D01*
X0057425Y0057907D02*
X0057150D01*
X0057425Y0057817D02*
X0057150D01*
X0057425Y0057727D02*
X0057150D01*
X0057425Y0057637D02*
X0057150D01*
X0057425Y0057547D02*
X0057150D01*
Y0057929D02*
Y0057417D01*
Y0057929D02*
X0056756D01*
Y0058323D02*
Y0057929D01*
X0057336Y0058323D02*
Y0057417D01*
X0057246Y0058323D02*
Y0057417D01*
X0057156Y0058323D02*
Y0057417D01*
X0057066Y0058323D02*
Y0057929D01*
X0056976Y0058323D02*
Y0057929D01*
X0056886Y0058323D02*
Y0057929D01*
X0057425Y0057457D02*
X0057150D01*
X0057425Y0058323D02*
X0056756D01*
X0057425D02*
Y0057417D01*
X0057150D01*
X0055615Y0059583D02*
Y0058677D01*
X0055850Y0059527D02*
X0055575D01*
X0055850Y0059437D02*
X0055575D01*
X0055850Y0059347D02*
X0055575D01*
X0055850Y0059257D02*
X0055575D01*
X0055850Y0059167D02*
X0055575D01*
X0055850Y0059077D02*
X0055575D01*
X0056244Y0058987D02*
X0055575D01*
X0056244Y0058897D02*
X0055575D01*
X0056244Y0058807D02*
X0055575D01*
Y0059583D02*
Y0058677D01*
X0056244D02*
X0055575D01*
X0056244Y0059071D02*
Y0058677D01*
X0056155Y0059071D02*
Y0058677D01*
X0056065Y0059071D02*
Y0058677D01*
X0055975Y0059071D02*
Y0058677D01*
X0055885Y0059071D02*
Y0058677D01*
X0055795Y0059583D02*
Y0058677D01*
X0055705Y0059583D02*
Y0058677D01*
X0056244Y0058717D02*
X0055575D01*
X0056244Y0059071D02*
X0055850D01*
Y0059583D02*
Y0059071D01*
Y0059583D02*
X0055575D01*
X0055615Y0058323D02*
Y0057417D01*
X0056244Y0058267D02*
X0055575D01*
X0056244Y0058177D02*
X0055575D01*
X0056244Y0058087D02*
X0055575D01*
X0056244Y0057997D02*
X0055575D01*
X0055850Y0057907D02*
X0055575D01*
X0055850Y0057817D02*
X0055575D01*
X0055850Y0057727D02*
X0055575D01*
X0055850Y0057637D02*
X0055575D01*
X0055850Y0057547D02*
X0055575D01*
X0055850Y0057929D02*
Y0057417D01*
X0056244Y0057929D02*
X0055850D01*
X0056244Y0058323D02*
Y0057929D01*
X0056155Y0058323D02*
Y0057929D01*
X0056065Y0058323D02*
Y0057929D01*
X0055975Y0058323D02*
Y0057929D01*
X0055885Y0058323D02*
Y0057929D01*
X0055795Y0058323D02*
Y0057417D01*
X0055705Y0058323D02*
Y0057417D01*
X0055850Y0057457D02*
X0055575D01*
X0056244Y0058323D02*
X0055575D01*
Y0057417D01*
X0055850D02*
X0055575D01*
X0076865Y0056823D02*
Y0055917D01*
X0077494Y0056767D02*
X0076825D01*
X0077494Y0056677D02*
X0076825D01*
X0077494Y0056587D02*
X0076825D01*
X0077494Y0056497D02*
X0076825D01*
X0077100Y0056407D02*
X0076825D01*
X0077100Y0056317D02*
X0076825D01*
X0077100Y0056227D02*
X0076825D01*
X0077100Y0056137D02*
X0076825D01*
X0077100Y0056047D02*
X0076825D01*
Y0056823D02*
Y0055917D01*
X0077494Y0056823D02*
X0076825D01*
X0077494D02*
Y0056429D01*
X0077405Y0056823D02*
Y0056429D01*
X0077315Y0056823D02*
Y0056429D01*
X0077225Y0056823D02*
Y0056429D01*
X0077135Y0056823D02*
Y0056429D01*
X0077045Y0056823D02*
Y0055917D01*
X0076955Y0056823D02*
Y0055917D01*
X0077100Y0055957D02*
X0076825D01*
X0077494Y0056429D02*
X0077100D01*
Y0055917D01*
X0076825D01*
X0076865Y0058083D02*
Y0057177D01*
X0077100Y0058027D02*
X0076825D01*
X0077100Y0057937D02*
X0076825D01*
X0077100Y0057847D02*
X0076825D01*
X0077100Y0057757D02*
X0076825D01*
X0077100Y0057667D02*
X0076825D01*
X0077100Y0057577D02*
X0076825D01*
X0077494Y0057487D02*
X0076825D01*
X0077494Y0057397D02*
X0076825D01*
X0077494Y0057307D02*
X0076825D01*
X0077100Y0058083D02*
Y0057571D01*
X0077494D02*
X0077100D01*
X0077494D02*
Y0057177D01*
X0077405Y0057571D02*
Y0057177D01*
X0077315Y0057571D02*
Y0057177D01*
X0077225Y0057571D02*
Y0057177D01*
X0077135Y0057571D02*
Y0057177D01*
X0077045Y0058083D02*
Y0057177D01*
X0076955Y0058083D02*
Y0057177D01*
X0077494Y0057217D02*
X0076825D01*
X0077494Y0057177D02*
X0076825D01*
Y0058083D02*
Y0057177D01*
X0077100Y0058083D02*
X0076825D01*
X0078046Y0056823D02*
Y0056429D01*
X0078675Y0056767D02*
X0078006D01*
X0078675Y0056677D02*
X0078006D01*
X0078675Y0056587D02*
X0078006D01*
X0078675Y0056497D02*
X0078006D01*
X0078675Y0056407D02*
X0078400D01*
X0078675Y0056317D02*
X0078400D01*
X0078675Y0056227D02*
X0078400D01*
X0078675Y0056137D02*
X0078400D01*
X0078675Y0056047D02*
X0078400D01*
X0078675Y0056823D02*
Y0055917D01*
Y0056823D02*
X0078006D01*
Y0056429D01*
X0078586Y0056823D02*
Y0055917D01*
X0078496Y0056823D02*
Y0055917D01*
X0078406Y0056823D02*
Y0055917D01*
X0078316Y0056823D02*
Y0056429D01*
X0078226Y0056823D02*
Y0056429D01*
X0078136Y0056823D02*
Y0056429D01*
X0078675Y0055957D02*
X0078400D01*
Y0056429D02*
X0078006D01*
X0078400D02*
Y0055917D01*
X0078675D02*
X0078400D01*
X0078046Y0057571D02*
Y0057177D01*
X0078675Y0058027D02*
X0078400D01*
X0078675Y0057937D02*
X0078400D01*
X0078675Y0057847D02*
X0078400D01*
X0078675Y0057757D02*
X0078400D01*
X0078675Y0057667D02*
X0078400D01*
X0078675Y0057577D02*
X0078400D01*
X0078675Y0057487D02*
X0078006D01*
X0078675Y0057397D02*
X0078006D01*
X0078675Y0057307D02*
X0078006D01*
X0078400Y0058083D02*
Y0057571D01*
X0078006D01*
Y0057177D01*
X0078586Y0058083D02*
Y0057177D01*
X0078496Y0058083D02*
Y0057177D01*
X0078406Y0058083D02*
Y0057177D01*
X0078316Y0057571D02*
Y0057177D01*
X0078226Y0057571D02*
Y0057177D01*
X0078136Y0057571D02*
Y0057177D01*
X0078675Y0057217D02*
X0078006D01*
X0078675Y0057177D02*
X0078006D01*
X0078675Y0058083D02*
Y0057177D01*
Y0058083D02*
X0078400D01*
X0042796Y0057571D02*
Y0057177D01*
X0043425Y0058027D02*
X0043150D01*
X0043425Y0057937D02*
X0043150D01*
X0043425Y0057847D02*
X0043150D01*
X0043425Y0057757D02*
X0043150D01*
X0043425Y0057667D02*
X0043150D01*
X0043425Y0057577D02*
X0043150D01*
X0043425Y0057487D02*
X0042756D01*
X0043425Y0057397D02*
X0042756D01*
X0043425Y0057307D02*
X0042756D01*
X0043425Y0058083D02*
Y0057177D01*
X0042756D01*
Y0057571D02*
Y0057177D01*
X0043336Y0058083D02*
Y0057177D01*
X0043246Y0058083D02*
Y0057177D01*
X0043156Y0058083D02*
Y0057177D01*
X0043066Y0057571D02*
Y0057177D01*
X0042976Y0057571D02*
Y0057177D01*
X0042886Y0057571D02*
Y0057177D01*
X0043425Y0057217D02*
X0042756D01*
X0043150Y0057571D02*
X0042756D01*
X0043150Y0058083D02*
Y0057571D01*
X0043425Y0058083D02*
X0043150D01*
X0042796Y0056823D02*
Y0056429D01*
X0043425Y0056767D02*
X0042756D01*
X0043425Y0056677D02*
X0042756D01*
X0043425Y0056587D02*
X0042756D01*
X0043425Y0056497D02*
X0042756D01*
X0043425Y0056407D02*
X0043150D01*
X0043425Y0056317D02*
X0043150D01*
X0043425Y0056227D02*
X0043150D01*
X0043425Y0056137D02*
X0043150D01*
X0043425Y0056047D02*
X0043150D01*
Y0056429D02*
Y0055917D01*
Y0056429D02*
X0042756D01*
Y0056823D02*
Y0056429D01*
X0043336Y0056823D02*
Y0055917D01*
X0043246Y0056823D02*
Y0055917D01*
X0043156Y0056823D02*
Y0055917D01*
X0043066Y0056823D02*
Y0056429D01*
X0042976Y0056823D02*
Y0056429D01*
X0042886Y0056823D02*
Y0056429D01*
X0043425Y0055957D02*
X0043150D01*
X0043425Y0056823D02*
X0042756D01*
X0043425D02*
Y0055917D01*
X0043150D01*
X0041615Y0058083D02*
Y0057177D01*
X0041850Y0058027D02*
X0041575D01*
X0041850Y0057937D02*
X0041575D01*
X0041850Y0057847D02*
X0041575D01*
X0041850Y0057757D02*
X0041575D01*
X0041850Y0057667D02*
X0041575D01*
X0041850Y0057577D02*
X0041575D01*
X0042244Y0057487D02*
X0041575D01*
X0042244Y0057397D02*
X0041575D01*
X0042244Y0057307D02*
X0041575D01*
Y0058083D02*
Y0057177D01*
X0042244D02*
X0041575D01*
X0042244Y0057571D02*
Y0057177D01*
X0042155Y0057571D02*
Y0057177D01*
X0042065Y0057571D02*
Y0057177D01*
X0041975Y0057571D02*
Y0057177D01*
X0041885Y0057571D02*
Y0057177D01*
X0041795Y0058083D02*
Y0057177D01*
X0041705Y0058083D02*
Y0057177D01*
X0042244Y0057217D02*
X0041575D01*
X0042244Y0057571D02*
X0041850D01*
Y0058083D02*
Y0057571D01*
Y0058083D02*
X0041575D01*
X0041615Y0056823D02*
Y0055917D01*
X0042244Y0056767D02*
X0041575D01*
X0042244Y0056677D02*
X0041575D01*
X0042244Y0056587D02*
X0041575D01*
X0042244Y0056497D02*
X0041575D01*
X0041850Y0056407D02*
X0041575D01*
X0041850Y0056317D02*
X0041575D01*
X0041850Y0056227D02*
X0041575D01*
X0041850Y0056137D02*
X0041575D01*
X0041850Y0056047D02*
X0041575D01*
X0041850Y0056429D02*
Y0055917D01*
X0042244Y0056429D02*
X0041850D01*
X0042244Y0056823D02*
Y0056429D01*
X0042155Y0056823D02*
Y0056429D01*
X0042065Y0056823D02*
Y0056429D01*
X0041975Y0056823D02*
Y0056429D01*
X0041885Y0056823D02*
Y0056429D01*
X0041795Y0056823D02*
Y0055917D01*
X0041705Y0056823D02*
Y0055917D01*
X0041850Y0055957D02*
X0041575D01*
X0042244Y0056823D02*
X0041575D01*
Y0055917D01*
X0041850D02*
X0041575D01*
X0066296Y0059821D02*
Y0059427D01*
X0066925Y0060277D02*
X0066650D01*
X0066925Y0060187D02*
X0066650D01*
X0066925Y0060097D02*
X0066650D01*
X0066925Y0060007D02*
X0066650D01*
X0066925Y0059917D02*
X0066650D01*
X0066925Y0059827D02*
X0066650D01*
X0066925Y0059737D02*
X0066256D01*
X0066925Y0059647D02*
X0066256D01*
X0066925Y0059557D02*
X0066256D01*
X0066925Y0060333D02*
Y0059427D01*
X0066256D01*
Y0059821D02*
Y0059427D01*
X0066836Y0060333D02*
Y0059427D01*
X0066746Y0060333D02*
Y0059427D01*
X0066656Y0060333D02*
Y0059427D01*
X0066566Y0059821D02*
Y0059427D01*
X0066476Y0059821D02*
Y0059427D01*
X0066386Y0059821D02*
Y0059427D01*
X0066925Y0059467D02*
X0066256D01*
X0066650Y0059821D02*
X0066256D01*
X0066650Y0060333D02*
Y0059821D01*
X0066925Y0060333D02*
X0066650D01*
X0066296Y0059073D02*
Y0058679D01*
X0066925Y0059017D02*
X0066256D01*
X0066925Y0058927D02*
X0066256D01*
X0066925Y0058837D02*
X0066256D01*
X0066925Y0058747D02*
X0066256D01*
X0066925Y0058657D02*
X0066650D01*
X0066925Y0058567D02*
X0066650D01*
X0066925Y0058477D02*
X0066650D01*
X0066925Y0058387D02*
X0066650D01*
X0066925Y0058297D02*
X0066650D01*
Y0058679D02*
Y0058167D01*
Y0058679D02*
X0066256D01*
Y0059073D02*
Y0058679D01*
X0066836Y0059073D02*
Y0058167D01*
X0066746Y0059073D02*
Y0058167D01*
X0066656Y0059073D02*
Y0058167D01*
X0066566Y0059073D02*
Y0058679D01*
X0066476Y0059073D02*
Y0058679D01*
X0066386Y0059073D02*
Y0058679D01*
X0066925Y0058207D02*
X0066650D01*
X0066925Y0059073D02*
X0066256D01*
X0066925D02*
Y0058167D01*
X0066650D01*
X0065115Y0060333D02*
Y0059427D01*
X0065350Y0060277D02*
X0065075D01*
X0065350Y0060187D02*
X0065075D01*
X0065350Y0060097D02*
X0065075D01*
X0065350Y0060007D02*
X0065075D01*
X0065350Y0059917D02*
X0065075D01*
X0065350Y0059827D02*
X0065075D01*
X0065744Y0059737D02*
X0065075D01*
X0065744Y0059647D02*
X0065075D01*
X0065744Y0059557D02*
X0065075D01*
Y0060333D02*
Y0059427D01*
X0065744D02*
X0065075D01*
X0065744Y0059821D02*
Y0059427D01*
X0065655Y0059821D02*
Y0059427D01*
X0065565Y0059821D02*
Y0059427D01*
X0065475Y0059821D02*
Y0059427D01*
X0065385Y0059821D02*
Y0059427D01*
X0065295Y0060333D02*
Y0059427D01*
X0065205Y0060333D02*
Y0059427D01*
X0065744Y0059467D02*
X0065075D01*
X0065744Y0059821D02*
X0065350D01*
Y0060333D02*
Y0059821D01*
Y0060333D02*
X0065075D01*
X0065115Y0059073D02*
Y0058167D01*
X0065744Y0059017D02*
X0065075D01*
X0065744Y0058927D02*
X0065075D01*
X0065744Y0058837D02*
X0065075D01*
X0065744Y0058747D02*
X0065075D01*
X0065350Y0058657D02*
X0065075D01*
X0065350Y0058567D02*
X0065075D01*
X0065350Y0058477D02*
X0065075D01*
X0065350Y0058387D02*
X0065075D01*
X0065350Y0058297D02*
X0065075D01*
X0065350Y0058679D02*
Y0058167D01*
X0065744Y0058679D02*
X0065350D01*
X0065744Y0059073D02*
Y0058679D01*
X0065655Y0059073D02*
Y0058679D01*
X0065565Y0059073D02*
Y0058679D01*
X0065475Y0059073D02*
Y0058679D01*
X0065385Y0059073D02*
Y0058679D01*
X0065295Y0059073D02*
Y0058167D01*
X0065205Y0059073D02*
Y0058167D01*
X0065350Y0058207D02*
X0065075D01*
X0065744Y0059073D02*
X0065075D01*
Y0058167D01*
X0065350D02*
X0065075D01*
X0037687Y0022991D02*
X0029813D01*
Y0030825D02*
Y0022951D01*
X0037687Y0030825D02*
X0029813D01*
X0037687D02*
Y0022951D01*
X0029813D01*
X0037687Y0026951D02*
X0029813D01*
X0037593Y0030825D02*
Y0022951D01*
X0037503Y0030825D02*
Y0022951D01*
X0037413Y0030825D02*
Y0022951D01*
X0037323Y0030825D02*
Y0022951D01*
X0037233Y0030825D02*
Y0022951D01*
X0037143Y0030825D02*
Y0022951D01*
X0037053Y0030825D02*
Y0022951D01*
X0036963Y0030825D02*
Y0022951D01*
X0036873Y0030825D02*
Y0022951D01*
X0036783Y0030825D02*
Y0022951D01*
X0036693Y0030825D02*
Y0022951D01*
X0036603Y0030825D02*
Y0022951D01*
X0036513Y0030825D02*
Y0022951D01*
X0036423Y0030825D02*
Y0022951D01*
X0036333Y0030825D02*
Y0022951D01*
X0036243Y0030825D02*
Y0022951D01*
X0036153Y0030825D02*
Y0022951D01*
X0036063Y0030825D02*
Y0022951D01*
X0035973Y0030825D02*
Y0022951D01*
X0035883Y0030825D02*
Y0022951D01*
X0035793Y0030825D02*
Y0022951D01*
X0035703Y0030825D02*
Y0022951D01*
X0035613Y0030825D02*
Y0022951D01*
X0035523Y0030825D02*
Y0022951D01*
X0035433Y0030825D02*
Y0022951D01*
X0035343Y0030825D02*
Y0022951D01*
X0035253Y0030825D02*
Y0022951D01*
X0035163Y0030825D02*
Y0022951D01*
X0035073Y0030825D02*
Y0022951D01*
X0034983Y0030825D02*
Y0022951D01*
X0034893Y0030825D02*
Y0022951D01*
X0034803Y0030825D02*
Y0022951D01*
X0034713Y0030825D02*
Y0022951D01*
X0034623Y0030825D02*
Y0022951D01*
X0034533Y0030825D02*
Y0022951D01*
X0034443Y0030825D02*
Y0022951D01*
X0034353Y0030825D02*
Y0022951D01*
X0034263Y0030825D02*
Y0022951D01*
X0034173Y0030825D02*
Y0022951D01*
X0034083Y0030825D02*
Y0022951D01*
X0033993Y0030825D02*
Y0022951D01*
X0033903Y0030825D02*
Y0022951D01*
X0033813Y0030825D02*
Y0022951D01*
X0033723Y0030825D02*
Y0022951D01*
X0033633Y0030825D02*
Y0022951D01*
X0033543Y0030825D02*
Y0022951D01*
X0033453Y0030825D02*
Y0022951D01*
X0033363Y0030825D02*
Y0022951D01*
X0033273Y0030825D02*
Y0022951D01*
X0033183Y0030825D02*
Y0022951D01*
X0033093Y0030825D02*
Y0022951D01*
X0033003Y0030825D02*
Y0022951D01*
X0032913Y0030825D02*
Y0022951D01*
X0032823Y0030825D02*
Y0022951D01*
X0032733Y0030825D02*
Y0022951D01*
X0032643Y0030825D02*
Y0022951D01*
X0032553Y0030825D02*
Y0022951D01*
X0032463Y0030825D02*
Y0022951D01*
X0032373Y0030825D02*
Y0022951D01*
X0032283Y0030825D02*
Y0022951D01*
X0032193Y0030825D02*
Y0022951D01*
X0032103Y0030825D02*
Y0022951D01*
X0032013Y0030825D02*
Y0022951D01*
X0031923Y0030825D02*
Y0022951D01*
X0031833Y0030825D02*
Y0022951D01*
X0031743Y0030825D02*
Y0022951D01*
X0031653Y0030825D02*
Y0022951D01*
X0031563Y0030825D02*
Y0022951D01*
X0031473Y0030825D02*
Y0022951D01*
X0031383Y0030825D02*
Y0022951D01*
X0031293Y0030825D02*
Y0022951D01*
X0031203Y0030825D02*
Y0022951D01*
X0031113Y0030825D02*
Y0022951D01*
X0031023Y0030825D02*
Y0022951D01*
X0030933Y0030825D02*
Y0022951D01*
X0030843Y0030825D02*
Y0022951D01*
X0030753Y0030825D02*
Y0022951D01*
X0030663Y0030825D02*
Y0022951D01*
X0030573Y0030825D02*
Y0022951D01*
X0030483Y0030825D02*
Y0022951D01*
X0030393Y0030825D02*
Y0022951D01*
X0030303Y0030825D02*
Y0022951D01*
X0030213Y0030825D02*
Y0022951D01*
X0030123Y0030825D02*
Y0022951D01*
X0030033Y0030825D02*
Y0022951D01*
X0029943Y0030825D02*
Y0022951D01*
X0037687Y0030731D02*
X0029813D01*
X0037687Y0030641D02*
X0029813D01*
X0037687Y0030551D02*
X0029813D01*
X0037687Y0030461D02*
X0029813D01*
X0037687Y0030371D02*
X0029813D01*
X0037687Y0030281D02*
X0029813D01*
X0037687Y0030191D02*
X0029813D01*
X0037687Y0030101D02*
X0029813D01*
X0037687Y0030011D02*
X0029813D01*
X0037687Y0029921D02*
X0029813D01*
X0037687Y0029831D02*
X0029813D01*
X0037687Y0029741D02*
X0029813D01*
X0037687Y0029651D02*
X0029813D01*
X0037687Y0029561D02*
X0029813D01*
X0037687Y0029471D02*
X0029813D01*
X0037687Y0029381D02*
X0029813D01*
X0037687Y0029291D02*
X0029813D01*
X0037687Y0029201D02*
X0029813D01*
X0037687Y0029111D02*
X0029813D01*
X0037687Y0029021D02*
X0029813D01*
X0037687Y0028931D02*
X0029813D01*
X0037687Y0028841D02*
X0029813D01*
X0037687Y0028751D02*
X0029813D01*
X0037687Y0028661D02*
X0029813D01*
X0037687Y0028571D02*
X0029813D01*
X0037687Y0028481D02*
X0029813D01*
X0037687Y0028391D02*
X0029813D01*
X0037687Y0028301D02*
X0029813D01*
X0037687Y0028211D02*
X0029813D01*
X0037687Y0028121D02*
X0029813D01*
X0037687Y0028031D02*
X0029813D01*
X0037687Y0027941D02*
X0029813D01*
X0037687Y0027851D02*
X0029813D01*
X0037687Y0027761D02*
X0029813D01*
X0037687Y0027671D02*
X0029813D01*
X0037687Y0027581D02*
X0029813D01*
X0037687Y0027491D02*
X0029813D01*
X0037687Y0027401D02*
X0029813D01*
X0037687Y0027311D02*
X0029813D01*
X0037687Y0027221D02*
X0029813D01*
X0037687Y0027131D02*
X0029813D01*
X0037687Y0027041D02*
X0029813D01*
X0029853Y0030825D02*
Y0022951D01*
X0037687Y0026861D02*
X0029813D01*
X0037687Y0026771D02*
X0029813D01*
X0037687Y0026681D02*
X0029813D01*
X0037687Y0026591D02*
X0029813D01*
X0037687Y0026501D02*
X0029813D01*
X0037687Y0026411D02*
X0029813D01*
X0037687Y0026321D02*
X0029813D01*
X0037687Y0026231D02*
X0029813D01*
X0037687Y0026141D02*
X0029813D01*
X0037687Y0026051D02*
X0029813D01*
X0037687Y0025961D02*
X0029813D01*
X0037687Y0025871D02*
X0029813D01*
X0037687Y0025781D02*
X0029813D01*
X0037687Y0025691D02*
X0029813D01*
X0037687Y0025601D02*
X0029813D01*
X0037687Y0025511D02*
X0029813D01*
X0037687Y0025421D02*
X0029813D01*
X0037687Y0025331D02*
X0029813D01*
X0037687Y0025241D02*
X0029813D01*
X0037687Y0025151D02*
X0029813D01*
X0037687Y0025061D02*
X0029813D01*
X0037687Y0024971D02*
X0029813D01*
X0037687Y0024881D02*
X0029813D01*
X0037687Y0024791D02*
X0029813D01*
X0037687Y0024701D02*
X0029813D01*
X0037687Y0024611D02*
X0029813D01*
X0037687Y0024521D02*
X0029813D01*
X0037687Y0024431D02*
X0029813D01*
X0037687Y0024341D02*
X0029813D01*
X0037687Y0024251D02*
X0029813D01*
X0037687Y0024161D02*
X0029813D01*
X0037687Y0024071D02*
X0029813D01*
X0037687Y0023981D02*
X0029813D01*
X0037687Y0023891D02*
X0029813D01*
X0037687Y0023801D02*
X0029813D01*
X0037687Y0023711D02*
X0029813D01*
X0037687Y0023621D02*
X0029813D01*
X0037687Y0023531D02*
X0029813D01*
X0037687Y0023441D02*
X0029813D01*
X0037687Y0023351D02*
X0029813D01*
X0037687Y0023261D02*
X0029813D01*
X0037687Y0023171D02*
X0029813D01*
X0037687Y0023081D02*
X0029813D01*
G54D74*
G01X0015773Y0032320D02*
X0015527D01*
X0015755Y0032275D02*
X0015527D01*
X0015740Y0032230D02*
X0015527D01*
X0015728Y0032185D02*
X0015527D01*
X0015718Y0032140D02*
X0015527D01*
X0015712Y0032095D02*
X0015527D01*
X0015708Y0032050D02*
X0015527D01*
X0015707Y0032005D02*
X0015527D01*
X0015709Y0031960D02*
X0015527D01*
X0015713Y0031915D02*
X0015527D01*
X0015720Y0031870D02*
X0015527D01*
X0015729Y0031825D02*
X0015527D01*
X0015742Y0031780D02*
X0015527D01*
X0015757Y0031735D02*
X0015527D01*
X0015775Y0031690D02*
X0015527D01*
X0015796Y0031645D02*
X0015527D01*
X0015821Y0031600D02*
X0015527D01*
X0015849Y0031555D02*
X0015527D01*
X0015882Y0031510D02*
X0015527D01*
X0015920Y0031465D02*
X0015527D01*
X0015964Y0031420D02*
X0015527D01*
X0016016Y0031375D02*
X0015527D01*
X0016079Y0031330D02*
X0015527D01*
X0016147Y0031285D02*
X0015527D01*
X0016147Y0031240D02*
X0015527D01*
X0016147Y0031195D02*
X0015527D01*
X0016147Y0031150D02*
X0015527D01*
X0016147Y0031105D02*
X0015527D01*
X0016107Y0031312D02*
Y0031020D01*
X0016062Y0031341D02*
Y0031020D01*
X0016017Y0031374D02*
Y0031020D01*
X0015972Y0031413D02*
Y0031020D01*
X0015927Y0031458D02*
Y0031020D01*
X0015882Y0031510D02*
Y0031020D01*
X0015837Y0031573D02*
Y0031020D01*
X0015792Y0031653D02*
Y0031020D01*
X0015747Y0031763D02*
Y0031020D01*
X0015702Y0032980D02*
Y0031020D01*
X0015657Y0032980D02*
Y0031020D01*
X0015612Y0032980D02*
Y0031020D01*
X0015567Y0032970D02*
Y0031030D01*
X0015747Y0032980D02*
Y0032252D01*
X0016147Y0032950D02*
X0015544D01*
X0016147Y0032905D02*
X0015527D01*
X0016147Y0032860D02*
X0015527D01*
X0016147Y0032815D02*
X0015527D01*
X0016147Y0032770D02*
X0015527D01*
X0016147Y0032725D02*
X0015527D01*
X0016099Y0032680D02*
X0015527D01*
X0016029Y0032635D02*
X0015527D01*
X0015972Y0032590D02*
X0015527D01*
X0015925Y0032545D02*
X0015527D01*
X0015885Y0032500D02*
X0015527D01*
X0015850Y0032455D02*
X0015527D01*
X0015820Y0032410D02*
X0015527D01*
X0015795Y0032365D02*
X0015527D01*
X0016107Y0032980D02*
Y0032684D01*
X0016062Y0032980D02*
Y0032657D01*
X0016017Y0032980D02*
Y0032626D01*
X0015972Y0032980D02*
Y0032589D01*
X0015927Y0032980D02*
Y0032547D01*
X0015882Y0032980D02*
Y0032496D01*
X0015837Y0032980D02*
Y0032435D01*
X0015792Y0032980D02*
Y0032359D01*
X0016147Y0031060D02*
X0015537D01*
X0016147Y0032710D02*
X0016137Y0032700D01*
X0016147Y0032980D02*
Y0032710D01*
Y0032980D02*
X0015607D01*
X0015605D01*
X0015527Y0032900D02*
Y0031100D01*
Y0031098D01*
X0016147Y0031020D02*
X0015607D01*
X0016147Y0031290D02*
Y0031020D01*
X0015707Y0032005D02*
Y0032000D01*
X0017478Y0032323D02*
X0017226D01*
X0017478Y0032278D02*
X0017245D01*
X0017478Y0032233D02*
X0017260D01*
X0017478Y0032188D02*
X0017273D01*
X0017478Y0032143D02*
X0017283D01*
X0017478Y0032098D02*
X0017291D01*
X0017478Y0032053D02*
X0017296D01*
X0017478Y0032008D02*
X0017298D01*
X0017478Y0031963D02*
X0017298D01*
X0017478Y0031918D02*
X0017294D01*
X0017478Y0031873D02*
X0017288D01*
X0017478Y0031828D02*
X0017280D01*
X0017478Y0031783D02*
X0017268D01*
X0017478Y0031738D02*
X0017254D01*
X0017478Y0031693D02*
X0017236D01*
X0017478Y0031648D02*
X0017215D01*
X0017478Y0031603D02*
X0017191D01*
X0017478Y0031558D02*
X0017162D01*
X0017478Y0031513D02*
X0017128D01*
X0017478Y0031468D02*
X0017090D01*
X0017478Y0031423D02*
X0017044D01*
X0017478Y0031378D02*
X0016989D01*
X0017478Y0031333D02*
X0016923D01*
X0017478Y0031288D02*
X0016858D01*
X0017478Y0031243D02*
X0016858D01*
X0017478Y0031198D02*
X0016858D01*
X0017478Y0031153D02*
X0016858D01*
X0017478Y0031108D02*
X0016858D01*
X0017438Y0032973D02*
Y0031033D01*
X0017393Y0032983D02*
Y0031023D01*
X0017348Y0032983D02*
Y0031023D01*
X0017303Y0032983D02*
Y0031023D01*
X0017258Y0031751D02*
Y0031023D01*
X0017213Y0031644D02*
Y0031023D01*
X0017168Y0031567D02*
Y0031023D01*
X0017123Y0031506D02*
Y0031023D01*
X0017078Y0031456D02*
Y0031023D01*
X0017033Y0031413D02*
Y0031023D01*
X0016988Y0031377D02*
Y0031023D01*
X0016943Y0031346D02*
Y0031023D01*
X0016898Y0031319D02*
Y0031023D01*
Y0032983D02*
Y0032690D01*
X0017461Y0032953D02*
X0016858D01*
X0017478Y0032908D02*
X0016858D01*
X0017478Y0032863D02*
X0016858D01*
X0017478Y0032818D02*
X0016858D01*
X0017478Y0032773D02*
X0016858D01*
X0017478Y0032728D02*
X0016858D01*
X0017478Y0032683D02*
X0016911D01*
X0017478Y0032638D02*
X0016976D01*
X0017478Y0032593D02*
X0017030D01*
X0017478Y0032548D02*
X0017076D01*
X0017478Y0032503D02*
X0017115D01*
X0017478Y0032458D02*
X0017149D01*
X0017478Y0032413D02*
X0017178D01*
X0017478Y0032368D02*
X0017204D01*
X0017258Y0032983D02*
Y0032239D01*
X0017213Y0032983D02*
Y0032350D01*
X0017168Y0032983D02*
Y0032429D01*
X0017123Y0032983D02*
Y0032493D01*
X0017078Y0032983D02*
Y0032545D01*
X0017033Y0032983D02*
Y0032590D01*
X0016988Y0032983D02*
Y0032628D01*
X0016943Y0032983D02*
Y0032662D01*
X0017468Y0031063D02*
X0016858D01*
X0017298Y0032003D02*
Y0031998D01*
X0016858Y0032983D02*
Y0032713D01*
X0017398Y0032983D02*
X0016858D01*
X0017400D02*
X0017398D01*
X0017478Y0032903D02*
Y0031103D01*
Y0031101D01*
X0017398Y0031023D02*
X0016858D01*
Y0031293D02*
Y0031023D01*
X0016868Y0031303D02*
X0016858Y0031293D01*
X0006723Y0021070D02*
X0006471D01*
X0006723Y0021025D02*
X0006489D01*
X0006723Y0020980D02*
X0006505D01*
X0006723Y0020935D02*
X0006518D01*
X0006723Y0020890D02*
X0006528D01*
X0006723Y0020845D02*
X0006535D01*
X0006723Y0020800D02*
X0006540D01*
X0006723Y0020755D02*
X0006543D01*
X0006723Y0020710D02*
X0006542D01*
X0006723Y0020665D02*
X0006539D01*
X0006723Y0020620D02*
X0006533D01*
X0006723Y0020575D02*
X0006524D01*
X0006723Y0020530D02*
X0006513D01*
X0006723Y0020485D02*
X0006498D01*
X0006723Y0020440D02*
X0006481D01*
X0006723Y0020395D02*
X0006460D01*
X0006723Y0020350D02*
X0006435D01*
X0006723Y0020305D02*
X0006406D01*
X0006723Y0020260D02*
X0006373D01*
X0006723Y0020215D02*
X0006334D01*
X0006723Y0020170D02*
X0006289D01*
X0006723Y0020125D02*
X0006234D01*
X0006723Y0020080D02*
X0006168D01*
X0006723Y0020035D02*
X0006103D01*
X0006723Y0019990D02*
X0006103D01*
X0006723Y0019945D02*
X0006103D01*
X0006723Y0019900D02*
X0006103D01*
X0006723Y0019855D02*
X0006103D01*
X0006683Y0021720D02*
Y0019780D01*
X0006638Y0021730D02*
Y0019770D01*
X0006593Y0021730D02*
Y0019770D01*
X0006548Y0021730D02*
Y0019770D01*
X0006503Y0020498D02*
Y0019770D01*
X0006458Y0020391D02*
Y0019770D01*
X0006413Y0020314D02*
Y0019770D01*
X0006368Y0020253D02*
Y0019770D01*
X0006323Y0020203D02*
Y0019770D01*
X0006278Y0020160D02*
Y0019770D01*
X0006233Y0020124D02*
Y0019770D01*
X0006188Y0020092D02*
Y0019770D01*
X0006143Y0020065D02*
Y0019770D01*
Y0021730D02*
Y0021437D01*
X0006706Y0021700D02*
X0006103D01*
X0006723Y0021655D02*
X0006103D01*
X0006723Y0021610D02*
X0006103D01*
X0006723Y0021565D02*
X0006103D01*
X0006723Y0021520D02*
X0006103D01*
X0006723Y0021475D02*
X0006103D01*
X0006723Y0021430D02*
X0006155D01*
X0006723Y0021385D02*
X0006221D01*
X0006723Y0021340D02*
X0006275D01*
X0006723Y0021295D02*
X0006320D01*
X0006723Y0021250D02*
X0006360D01*
X0006723Y0021205D02*
X0006394D01*
X0006723Y0021160D02*
X0006423D01*
X0006723Y0021115D02*
X0006449D01*
X0006503Y0021730D02*
Y0020986D01*
X0006458Y0021730D02*
Y0021097D01*
X0006413Y0021730D02*
Y0021176D01*
X0006368Y0021730D02*
Y0021240D01*
X0006323Y0021730D02*
Y0021292D01*
X0006278Y0021730D02*
Y0021337D01*
X0006233Y0021730D02*
Y0021375D01*
X0006188Y0021730D02*
Y0021409D01*
X0006713Y0019810D02*
X0006103D01*
X0006113Y0020050D02*
X0006103Y0020040D01*
Y0019770D01*
X0006643D02*
X0006103D01*
X0006645D02*
X0006643D01*
X0006723Y0021650D02*
Y0019850D01*
Y0021652D02*
Y0021650D01*
X0006643Y0021730D02*
X0006103D01*
Y0021460D01*
X0006543Y0020750D02*
Y0020744D01*
X0005018Y0021066D02*
X0004771D01*
X0004999Y0021021D02*
X0004771D01*
X0004984Y0020976D02*
X0004771D01*
X0004972Y0020931D02*
X0004771D01*
X0004963Y0020886D02*
X0004771D01*
X0004956Y0020841D02*
X0004771D01*
X0004952Y0020796D02*
X0004771D01*
X0004951Y0020751D02*
X0004771D01*
X0004953Y0020706D02*
X0004771D01*
X0004957Y0020661D02*
X0004771D01*
X0004964Y0020616D02*
X0004771D01*
X0004974Y0020571D02*
X0004771D01*
X0004986Y0020526D02*
X0004771D01*
X0005001Y0020481D02*
X0004771D01*
X0005019Y0020436D02*
X0004771D01*
X0005040Y0020391D02*
X0004771D01*
X0005065Y0020346D02*
X0004771D01*
X0005094Y0020301D02*
X0004771D01*
X0005127Y0020256D02*
X0004771D01*
X0005165Y0020211D02*
X0004771D01*
X0005209Y0020166D02*
X0004771D01*
X0005261Y0020121D02*
X0004771D01*
X0005323Y0020076D02*
X0004771D01*
X0005391Y0020031D02*
X0004771D01*
X0005391Y0019986D02*
X0004771D01*
X0005391Y0019941D02*
X0004771D01*
X0005391Y0019896D02*
X0004771D01*
X0005391Y0019851D02*
X0004771D01*
X0005351Y0020059D02*
Y0019767D01*
X0005306Y0020088D02*
Y0019767D01*
X0005261Y0020121D02*
Y0019767D01*
X0005216Y0020159D02*
Y0019767D01*
X0005171Y0020204D02*
Y0019767D01*
X0005126Y0020257D02*
Y0019767D01*
X0005081Y0020320D02*
Y0019767D01*
X0005036Y0020399D02*
Y0019767D01*
X0004991Y0020510D02*
Y0019767D01*
X0004946Y0021727D02*
Y0019767D01*
X0004901Y0021727D02*
Y0019767D01*
X0004856Y0021727D02*
Y0019767D01*
X0004811Y0021717D02*
Y0019776D01*
X0004991Y0021727D02*
Y0020998D01*
X0005391Y0021696D02*
X0004788D01*
X0005391Y0021651D02*
X0004771D01*
X0005391Y0021606D02*
X0004771D01*
X0005391Y0021561D02*
X0004771D01*
X0005391Y0021516D02*
X0004771D01*
X0005391Y0021471D02*
X0004771D01*
X0005343Y0021426D02*
X0004771D01*
X0005273Y0021381D02*
X0004771D01*
X0005216Y0021336D02*
X0004771D01*
X0005169Y0021291D02*
X0004771D01*
X0005129Y0021246D02*
X0004771D01*
X0005094Y0021201D02*
X0004771D01*
X0005065Y0021156D02*
X0004771D01*
X0005039Y0021111D02*
X0004771D01*
X0005351Y0021727D02*
Y0021431D01*
X0005306Y0021727D02*
Y0021404D01*
X0005261Y0021727D02*
Y0021373D01*
X0005216Y0021727D02*
Y0021336D01*
X0005171Y0021727D02*
Y0021293D01*
X0005126Y0021727D02*
Y0021243D01*
X0005081Y0021727D02*
Y0021182D01*
X0005036Y0021727D02*
Y0021105D01*
X0005391Y0019806D02*
X0004781D01*
X0004951Y0020752D02*
Y0020747D01*
X0005391Y0020037D02*
Y0019767D01*
X0004851D01*
X0004850Y0019766D01*
X0004771Y0021647D02*
Y0019847D01*
Y0021648D02*
Y0021647D01*
X0005391Y0021727D02*
X0004851D01*
X0005391D02*
Y0021457D01*
X0005381Y0021447D01*
G01X0015605Y0032980D02*
G03X0015527Y0032902I0000000J0000078D01*
G03X0015527Y0032900I0000078J0000000D01*
Y0031098D02*
G03X0015605Y0031020I0000078J0000000D01*
G03X0015607Y0031020I0000000J0000078D01*
G01X0015707Y0032000D02*
G03X0016147Y0031290I0000820J0000017D01*
G01X0016137Y0032700D02*
G03X0015707Y0032005I0000346J0000695D01*
G01X0016868Y0031303D02*
G03X0017299Y0031998I0000345J0000695D01*
G01X0017298Y0032003D02*
G03X0016858Y0032713I0000820J0000017D01*
G01X0017478Y0032905D02*
G03X0017400Y0032983I0000078J0000000D01*
G01X0017478Y0032903D02*
G03X0017478Y0032905I0000078J0000002D01*
G01X0017400Y0031023D02*
G03X0017478Y0031101I0000000J0000078D01*
G01X0017398Y0031023D02*
G03X0017400Y0031023I0000002J0000078D01*
G01X0006645Y0019770D02*
G03X0006723Y0019848I0000000J0000078D01*
G03X0006723Y0019850I0000078J0000000D01*
Y0021652D02*
G03X0006645Y0021730I0000078J0000000D01*
G03X0006643Y0021730I0000000J0000078D01*
G01X0006543Y0020750D02*
G03X0006103Y0021460I0000820J0000017D01*
G01X0006113Y0020050D02*
G03X0006542Y0020744I0000346J0000694D01*
G01X0005381Y0021447D02*
G03X0004951Y0020752I0000346J0000695D01*
Y0020747D02*
G03X0005391Y0020037I0000821J0000017D01*
G01X0004771Y0019845D02*
G03X0004850Y0019766I0000079J0000000D01*
G01X0004771Y0019847D02*
G03X0004771Y0019845I0000079J0000002D01*
G01X0004850Y0021727D02*
G03X0004771Y0021648I0000000J0000079D01*
G01X0004851Y0021727D02*
G03X0004850Y0021727I0000001J0000079D01*
G54D81*
G01X0037687Y0034072D02*
X0029813D01*
Y0041905D02*
Y0034032D01*
X0037687Y0041905D02*
X0029813D01*
X0037687D02*
Y0034032D01*
X0029813D01*
X0037687Y0038014D02*
X0029813D01*
X0037629Y0041905D02*
Y0034032D01*
X0037575Y0041905D02*
Y0034032D01*
X0037521Y0041905D02*
Y0034032D01*
X0037467Y0041905D02*
Y0034032D01*
X0037413Y0041905D02*
Y0034032D01*
X0037359Y0041905D02*
Y0034032D01*
X0037305Y0041905D02*
Y0034032D01*
X0037251Y0041905D02*
Y0034032D01*
X0037197Y0041905D02*
Y0034032D01*
X0037143Y0041905D02*
Y0034032D01*
X0037089Y0041905D02*
Y0034032D01*
X0037035Y0041905D02*
Y0034032D01*
X0036981Y0041905D02*
Y0034032D01*
X0036927Y0041905D02*
Y0034032D01*
X0036873Y0041905D02*
Y0034032D01*
X0036819Y0041905D02*
Y0034032D01*
X0036765Y0041905D02*
Y0034032D01*
X0036711Y0041905D02*
Y0034032D01*
X0036657Y0041905D02*
Y0034032D01*
X0036603Y0041905D02*
Y0034032D01*
X0036549Y0041905D02*
Y0034032D01*
X0036495Y0041905D02*
Y0034032D01*
X0036441Y0041905D02*
Y0034032D01*
X0036387Y0041905D02*
Y0034032D01*
X0036333Y0041905D02*
Y0034032D01*
X0036279Y0041905D02*
Y0034032D01*
X0036225Y0041905D02*
Y0034032D01*
X0036171Y0041905D02*
Y0034032D01*
X0036117Y0041905D02*
Y0034032D01*
X0036063Y0041905D02*
Y0034032D01*
X0036009Y0041905D02*
Y0034032D01*
X0035955Y0041905D02*
Y0034032D01*
X0035901Y0041905D02*
Y0034032D01*
X0035847Y0041905D02*
Y0034032D01*
X0035793Y0041905D02*
Y0034032D01*
X0035739Y0041905D02*
Y0034032D01*
X0035685Y0041905D02*
Y0034032D01*
X0035631Y0041905D02*
Y0034032D01*
X0035577Y0041905D02*
Y0034032D01*
X0035523Y0041905D02*
Y0034032D01*
X0035469Y0041905D02*
Y0034032D01*
X0035415Y0041905D02*
Y0034032D01*
X0035361Y0041905D02*
Y0034032D01*
X0035307Y0041905D02*
Y0034032D01*
X0035253Y0041905D02*
Y0034032D01*
X0035199Y0041905D02*
Y0034032D01*
X0035145Y0041905D02*
Y0034032D01*
X0035091Y0041905D02*
Y0034032D01*
X0035037Y0041905D02*
Y0034032D01*
X0034983Y0041905D02*
Y0034032D01*
X0034929Y0041905D02*
Y0034032D01*
X0034875Y0041905D02*
Y0034032D01*
X0034821Y0041905D02*
Y0034032D01*
X0034767Y0041905D02*
Y0034032D01*
X0034713Y0041905D02*
Y0034032D01*
X0034659Y0041905D02*
Y0034032D01*
X0034605Y0041905D02*
Y0034032D01*
X0034551Y0041905D02*
Y0034032D01*
X0034497Y0041905D02*
Y0034032D01*
X0034443Y0041905D02*
Y0034032D01*
X0034389Y0041905D02*
Y0034032D01*
X0034335Y0041905D02*
Y0034032D01*
X0034281Y0041905D02*
Y0034032D01*
X0034227Y0041905D02*
Y0034032D01*
X0034173Y0041905D02*
Y0034032D01*
X0034119Y0041905D02*
Y0034032D01*
X0034065Y0041905D02*
Y0034032D01*
X0034011Y0041905D02*
Y0034032D01*
X0033957Y0041905D02*
Y0034032D01*
X0033903Y0041905D02*
Y0034032D01*
X0033849Y0041905D02*
Y0034032D01*
X0033795Y0041905D02*
Y0034032D01*
X0033741Y0041905D02*
Y0034032D01*
X0033687Y0041905D02*
Y0034032D01*
X0033633Y0041905D02*
Y0034032D01*
X0033579Y0041905D02*
Y0034032D01*
X0033525Y0041905D02*
Y0034032D01*
X0033471Y0041905D02*
Y0034032D01*
X0033417Y0041905D02*
Y0034032D01*
X0033363Y0041905D02*
Y0034032D01*
X0033309Y0041905D02*
Y0034032D01*
X0033255Y0041905D02*
Y0034032D01*
X0033201Y0041905D02*
Y0034032D01*
X0033147Y0041905D02*
Y0034032D01*
X0033093Y0041905D02*
Y0034032D01*
X0033039Y0041905D02*
Y0034032D01*
X0032985Y0041905D02*
Y0034032D01*
X0032931Y0041905D02*
Y0034032D01*
X0032877Y0041905D02*
Y0034032D01*
X0032823Y0041905D02*
Y0034032D01*
X0032769Y0041905D02*
Y0034032D01*
X0032715Y0041905D02*
Y0034032D01*
X0032661Y0041905D02*
Y0034032D01*
X0032607Y0041905D02*
Y0034032D01*
X0032553Y0041905D02*
Y0034032D01*
X0032499Y0041905D02*
Y0034032D01*
X0032445Y0041905D02*
Y0034032D01*
X0032391Y0041905D02*
Y0034032D01*
X0032337Y0041905D02*
Y0034032D01*
X0032283Y0041905D02*
Y0034032D01*
X0032229Y0041905D02*
Y0034032D01*
X0032175Y0041905D02*
Y0034032D01*
X0032121Y0041905D02*
Y0034032D01*
X0032067Y0041905D02*
Y0034032D01*
X0032013Y0041905D02*
Y0034032D01*
X0031959Y0041905D02*
Y0034032D01*
X0031905Y0041905D02*
Y0034032D01*
X0031851Y0041905D02*
Y0034032D01*
X0031797Y0041905D02*
Y0034032D01*
X0031743Y0041905D02*
Y0034032D01*
X0031689Y0041905D02*
Y0034032D01*
X0031635Y0041905D02*
Y0034032D01*
X0031581Y0041905D02*
Y0034032D01*
X0031527Y0041905D02*
Y0034032D01*
X0031473Y0041905D02*
Y0034032D01*
X0031419Y0041905D02*
Y0034032D01*
X0031365Y0041905D02*
Y0034032D01*
X0031311Y0041905D02*
Y0034032D01*
X0031257Y0041905D02*
Y0034032D01*
X0031203Y0041905D02*
Y0034032D01*
X0031149Y0041905D02*
Y0034032D01*
X0031095Y0041905D02*
Y0034032D01*
X0031041Y0041905D02*
Y0034032D01*
X0030987Y0041905D02*
Y0034032D01*
X0030933Y0041905D02*
Y0034032D01*
X0030879Y0041905D02*
Y0034032D01*
X0030825Y0041905D02*
Y0034032D01*
X0030771Y0041905D02*
Y0034032D01*
X0030717Y0041905D02*
Y0034032D01*
X0030663Y0041905D02*
Y0034032D01*
X0030609Y0041905D02*
Y0034032D01*
X0030555Y0041905D02*
Y0034032D01*
X0030501Y0041905D02*
Y0034032D01*
X0030447Y0041905D02*
Y0034032D01*
X0030393Y0041905D02*
Y0034032D01*
X0030339Y0041905D02*
Y0034032D01*
X0030285Y0041905D02*
Y0034032D01*
X0030231Y0041905D02*
Y0034032D01*
X0030177Y0041905D02*
Y0034032D01*
X0030123Y0041905D02*
Y0034032D01*
X0030069Y0041905D02*
Y0034032D01*
X0030015Y0041905D02*
Y0034032D01*
X0029961Y0041905D02*
Y0034032D01*
X0029907Y0041905D02*
Y0034032D01*
X0037687Y0041848D02*
X0029813D01*
X0037687Y0041794D02*
X0029813D01*
X0037687Y0041740D02*
X0029813D01*
X0037687Y0041686D02*
X0029813D01*
X0037687Y0041632D02*
X0029813D01*
X0037687Y0041578D02*
X0029813D01*
X0037687Y0041524D02*
X0029813D01*
X0037687Y0041470D02*
X0029813D01*
X0037687Y0041416D02*
X0029813D01*
X0037687Y0041362D02*
X0029813D01*
X0037687Y0041308D02*
X0029813D01*
X0037687Y0041254D02*
X0029813D01*
X0037687Y0041200D02*
X0029813D01*
X0037687Y0041146D02*
X0029813D01*
X0037687Y0041092D02*
X0029813D01*
X0037687Y0041038D02*
X0029813D01*
X0037687Y0040984D02*
X0029813D01*
X0037687Y0040930D02*
X0029813D01*
X0037687Y0040876D02*
X0029813D01*
X0037687Y0040822D02*
X0029813D01*
X0037687Y0040768D02*
X0029813D01*
X0037687Y0040714D02*
X0029813D01*
X0037687Y0040660D02*
X0029813D01*
X0037687Y0040606D02*
X0029813D01*
X0037687Y0040552D02*
X0029813D01*
X0037687Y0040498D02*
X0029813D01*
X0037687Y0040444D02*
X0029813D01*
X0037687Y0040390D02*
X0029813D01*
X0037687Y0040336D02*
X0029813D01*
X0037687Y0040282D02*
X0029813D01*
X0037687Y0040228D02*
X0029813D01*
X0037687Y0040174D02*
X0029813D01*
X0037687Y0040120D02*
X0029813D01*
X0037687Y0040066D02*
X0029813D01*
X0037687Y0040012D02*
X0029813D01*
X0037687Y0039958D02*
X0029813D01*
X0037687Y0039904D02*
X0029813D01*
X0037687Y0039850D02*
X0029813D01*
X0037687Y0039796D02*
X0029813D01*
X0037687Y0039742D02*
X0029813D01*
X0037687Y0039688D02*
X0029813D01*
X0037687Y0039634D02*
X0029813D01*
X0037687Y0039580D02*
X0029813D01*
X0037687Y0039526D02*
X0029813D01*
X0037687Y0039472D02*
X0029813D01*
X0037687Y0039418D02*
X0029813D01*
X0037687Y0039364D02*
X0029813D01*
X0037687Y0039310D02*
X0029813D01*
X0037687Y0039256D02*
X0029813D01*
X0037687Y0039202D02*
X0029813D01*
X0037687Y0039148D02*
X0029813D01*
X0037687Y0039094D02*
X0029813D01*
X0037687Y0039040D02*
X0029813D01*
X0037687Y0038986D02*
X0029813D01*
X0037687Y0038932D02*
X0029813D01*
X0037687Y0038878D02*
X0029813D01*
X0037687Y0038824D02*
X0029813D01*
X0037687Y0038770D02*
X0029813D01*
X0037687Y0038716D02*
X0029813D01*
X0037687Y0038662D02*
X0029813D01*
X0037687Y0038608D02*
X0029813D01*
X0037687Y0038554D02*
X0029813D01*
X0037687Y0038500D02*
X0029813D01*
X0037687Y0038446D02*
X0029813D01*
X0037687Y0038392D02*
X0029813D01*
X0037687Y0038338D02*
X0029813D01*
X0037687Y0038284D02*
X0029813D01*
X0037687Y0038230D02*
X0029813D01*
X0037687Y0038176D02*
X0029813D01*
X0037687Y0038122D02*
X0029813D01*
X0037687Y0038068D02*
X0029813D01*
X0029853Y0041905D02*
Y0034032D01*
X0037687Y0037960D02*
X0029813D01*
X0037687Y0037906D02*
X0029813D01*
X0037687Y0037852D02*
X0029813D01*
X0037687Y0037798D02*
X0029813D01*
X0037687Y0037744D02*
X0029813D01*
X0037687Y0037690D02*
X0029813D01*
X0037687Y0037636D02*
X0029813D01*
X0037687Y0037582D02*
X0029813D01*
X0037687Y0037528D02*
X0029813D01*
X0037687Y0037474D02*
X0029813D01*
X0037687Y0037420D02*
X0029813D01*
X0037687Y0037366D02*
X0029813D01*
X0037687Y0037312D02*
X0029813D01*
X0037687Y0037258D02*
X0029813D01*
X0037687Y0037204D02*
X0029813D01*
X0037687Y0037150D02*
X0029813D01*
X0037687Y0037096D02*
X0029813D01*
X0037687Y0037042D02*
X0029813D01*
X0037687Y0036988D02*
X0029813D01*
X0037687Y0036934D02*
X0029813D01*
X0037687Y0036880D02*
X0029813D01*
X0037687Y0036826D02*
X0029813D01*
X0037687Y0036772D02*
X0029813D01*
X0037687Y0036718D02*
X0029813D01*
X0037687Y0036664D02*
X0029813D01*
X0037687Y0036610D02*
X0029813D01*
X0037687Y0036556D02*
X0029813D01*
X0037687Y0036502D02*
X0029813D01*
X0037687Y0036448D02*
X0029813D01*
X0037687Y0036394D02*
X0029813D01*
X0037687Y0036340D02*
X0029813D01*
X0037687Y0036286D02*
X0029813D01*
X0037687Y0036232D02*
X0029813D01*
X0037687Y0036178D02*
X0029813D01*
X0037687Y0036124D02*
X0029813D01*
X0037687Y0036070D02*
X0029813D01*
X0037687Y0036016D02*
X0029813D01*
X0037687Y0035962D02*
X0029813D01*
X0037687Y0035908D02*
X0029813D01*
X0037687Y0035854D02*
X0029813D01*
X0037687Y0035800D02*
X0029813D01*
X0037687Y0035746D02*
X0029813D01*
X0037687Y0035692D02*
X0029813D01*
X0037687Y0035638D02*
X0029813D01*
X0037687Y0035584D02*
X0029813D01*
X0037687Y0035530D02*
X0029813D01*
X0037687Y0035476D02*
X0029813D01*
X0037687Y0035422D02*
X0029813D01*
X0037687Y0035368D02*
X0029813D01*
X0037687Y0035314D02*
X0029813D01*
X0037687Y0035260D02*
X0029813D01*
X0037687Y0035206D02*
X0029813D01*
X0037687Y0035152D02*
X0029813D01*
X0037687Y0035098D02*
X0029813D01*
X0037687Y0035044D02*
X0029813D01*
X0037687Y0034990D02*
X0029813D01*
X0037687Y0034936D02*
X0029813D01*
X0037687Y0034882D02*
X0029813D01*
X0037687Y0034828D02*
X0029813D01*
X0037687Y0034774D02*
X0029813D01*
X0037687Y0034720D02*
X0029813D01*
X0037687Y0034666D02*
X0029813D01*
X0037687Y0034612D02*
X0029813D01*
X0037687Y0034558D02*
X0029813D01*
X0037687Y0034504D02*
X0029813D01*
X0037687Y0034450D02*
X0029813D01*
X0037687Y0034396D02*
X0029813D01*
X0037687Y0034342D02*
X0029813D01*
X0037687Y0034288D02*
X0029813D01*
X0037687Y0034234D02*
X0029813D01*
X0037687Y0034180D02*
X0029813D01*
X0037687Y0034126D02*
X0029813D01*
X0028187Y0034072D02*
X0020313D01*
Y0041905D02*
Y0034032D01*
X0028187Y0041905D02*
X0020313D01*
X0028187D02*
Y0034032D01*
X0020313D01*
X0028187Y0038014D02*
X0020313D01*
X0028129Y0041905D02*
Y0034032D01*
X0028075Y0041905D02*
Y0034032D01*
X0028021Y0041905D02*
Y0034032D01*
X0027967Y0041905D02*
Y0034032D01*
X0027913Y0041905D02*
Y0034032D01*
X0027859Y0041905D02*
Y0034032D01*
X0027805Y0041905D02*
Y0034032D01*
X0027751Y0041905D02*
Y0034032D01*
X0027697Y0041905D02*
Y0034032D01*
X0027643Y0041905D02*
Y0034032D01*
X0027589Y0041905D02*
Y0034032D01*
X0027535Y0041905D02*
Y0034032D01*
X0027481Y0041905D02*
Y0034032D01*
X0027427Y0041905D02*
Y0034032D01*
X0027373Y0041905D02*
Y0034032D01*
X0027319Y0041905D02*
Y0034032D01*
X0027265Y0041905D02*
Y0034032D01*
X0027211Y0041905D02*
Y0034032D01*
X0027157Y0041905D02*
Y0034032D01*
X0027103Y0041905D02*
Y0034032D01*
X0027049Y0041905D02*
Y0034032D01*
X0026995Y0041905D02*
Y0034032D01*
X0026941Y0041905D02*
Y0034032D01*
X0026887Y0041905D02*
Y0034032D01*
X0026833Y0041905D02*
Y0034032D01*
X0026779Y0041905D02*
Y0034032D01*
X0026725Y0041905D02*
Y0034032D01*
X0026671Y0041905D02*
Y0034032D01*
X0026617Y0041905D02*
Y0034032D01*
X0026563Y0041905D02*
Y0034032D01*
X0026509Y0041905D02*
Y0034032D01*
X0026455Y0041905D02*
Y0034032D01*
X0026401Y0041905D02*
Y0034032D01*
X0026347Y0041905D02*
Y0034032D01*
X0026293Y0041905D02*
Y0034032D01*
X0026239Y0041905D02*
Y0034032D01*
X0026185Y0041905D02*
Y0034032D01*
X0026131Y0041905D02*
Y0034032D01*
X0026077Y0041905D02*
Y0034032D01*
X0026023Y0041905D02*
Y0034032D01*
X0025969Y0041905D02*
Y0034032D01*
X0025915Y0041905D02*
Y0034032D01*
X0025861Y0041905D02*
Y0034032D01*
X0025807Y0041905D02*
Y0034032D01*
X0025753Y0041905D02*
Y0034032D01*
X0025699Y0041905D02*
Y0034032D01*
X0025645Y0041905D02*
Y0034032D01*
X0025591Y0041905D02*
Y0034032D01*
X0025537Y0041905D02*
Y0034032D01*
X0025483Y0041905D02*
Y0034032D01*
X0025429Y0041905D02*
Y0034032D01*
X0025375Y0041905D02*
Y0034032D01*
X0025321Y0041905D02*
Y0034032D01*
X0025267Y0041905D02*
Y0034032D01*
X0025213Y0041905D02*
Y0034032D01*
X0025159Y0041905D02*
Y0034032D01*
X0025105Y0041905D02*
Y0034032D01*
X0025051Y0041905D02*
Y0034032D01*
X0024997Y0041905D02*
Y0034032D01*
X0024943Y0041905D02*
Y0034032D01*
X0024889Y0041905D02*
Y0034032D01*
X0024835Y0041905D02*
Y0034032D01*
X0024781Y0041905D02*
Y0034032D01*
X0024727Y0041905D02*
Y0034032D01*
X0024673Y0041905D02*
Y0034032D01*
X0024619Y0041905D02*
Y0034032D01*
X0024565Y0041905D02*
Y0034032D01*
X0024511Y0041905D02*
Y0034032D01*
X0024457Y0041905D02*
Y0034032D01*
X0024403Y0041905D02*
Y0034032D01*
X0024349Y0041905D02*
Y0034032D01*
X0024295Y0041905D02*
Y0034032D01*
X0024241Y0041905D02*
Y0034032D01*
X0024187Y0041905D02*
Y0034032D01*
X0024133Y0041905D02*
Y0034032D01*
X0024079Y0041905D02*
Y0034032D01*
X0024025Y0041905D02*
Y0034032D01*
X0023971Y0041905D02*
Y0034032D01*
X0023917Y0041905D02*
Y0034032D01*
X0023863Y0041905D02*
Y0034032D01*
X0023809Y0041905D02*
Y0034032D01*
X0023755Y0041905D02*
Y0034032D01*
X0023701Y0041905D02*
Y0034032D01*
X0023647Y0041905D02*
Y0034032D01*
X0023593Y0041905D02*
Y0034032D01*
X0023539Y0041905D02*
Y0034032D01*
X0023485Y0041905D02*
Y0034032D01*
X0023431Y0041905D02*
Y0034032D01*
X0023377Y0041905D02*
Y0034032D01*
X0023323Y0041905D02*
Y0034032D01*
X0023269Y0041905D02*
Y0034032D01*
X0023215Y0041905D02*
Y0034032D01*
X0023161Y0041905D02*
Y0034032D01*
X0023107Y0041905D02*
Y0034032D01*
X0023053Y0041905D02*
Y0034032D01*
X0022999Y0041905D02*
Y0034032D01*
X0022945Y0041905D02*
Y0034032D01*
X0022891Y0041905D02*
Y0034032D01*
X0022837Y0041905D02*
Y0034032D01*
X0022783Y0041905D02*
Y0034032D01*
X0022729Y0041905D02*
Y0034032D01*
X0022675Y0041905D02*
Y0034032D01*
X0022621Y0041905D02*
Y0034032D01*
X0022567Y0041905D02*
Y0034032D01*
X0022513Y0041905D02*
Y0034032D01*
X0022459Y0041905D02*
Y0034032D01*
X0022405Y0041905D02*
Y0034032D01*
X0022351Y0041905D02*
Y0034032D01*
X0022297Y0041905D02*
Y0034032D01*
X0022243Y0041905D02*
Y0034032D01*
X0022189Y0041905D02*
Y0034032D01*
X0022135Y0041905D02*
Y0034032D01*
X0022081Y0041905D02*
Y0034032D01*
X0022027Y0041905D02*
Y0034032D01*
X0021973Y0041905D02*
Y0034032D01*
X0021919Y0041905D02*
Y0034032D01*
X0021865Y0041905D02*
Y0034032D01*
X0021811Y0041905D02*
Y0034032D01*
X0021757Y0041905D02*
Y0034032D01*
X0021703Y0041905D02*
Y0034032D01*
X0021649Y0041905D02*
Y0034032D01*
X0021595Y0041905D02*
Y0034032D01*
X0021541Y0041905D02*
Y0034032D01*
X0021487Y0041905D02*
Y0034032D01*
X0021433Y0041905D02*
Y0034032D01*
X0021379Y0041905D02*
Y0034032D01*
X0021325Y0041905D02*
Y0034032D01*
X0021271Y0041905D02*
Y0034032D01*
X0021217Y0041905D02*
Y0034032D01*
X0021163Y0041905D02*
Y0034032D01*
X0021109Y0041905D02*
Y0034032D01*
X0021055Y0041905D02*
Y0034032D01*
X0021001Y0041905D02*
Y0034032D01*
X0020947Y0041905D02*
Y0034032D01*
X0020893Y0041905D02*
Y0034032D01*
X0020839Y0041905D02*
Y0034032D01*
X0020785Y0041905D02*
Y0034032D01*
X0020731Y0041905D02*
Y0034032D01*
X0020677Y0041905D02*
Y0034032D01*
X0020623Y0041905D02*
Y0034032D01*
X0020569Y0041905D02*
Y0034032D01*
X0020515Y0041905D02*
Y0034032D01*
X0020461Y0041905D02*
Y0034032D01*
X0020407Y0041905D02*
Y0034032D01*
X0028187Y0041848D02*
X0020313D01*
X0028187Y0041794D02*
X0020313D01*
X0028187Y0041740D02*
X0020313D01*
X0028187Y0041686D02*
X0020313D01*
X0028187Y0041632D02*
X0020313D01*
X0028187Y0041578D02*
X0020313D01*
X0028187Y0041524D02*
X0020313D01*
X0028187Y0041470D02*
X0020313D01*
X0028187Y0041416D02*
X0020313D01*
X0028187Y0041362D02*
X0020313D01*
X0028187Y0041308D02*
X0020313D01*
X0028187Y0041254D02*
X0020313D01*
X0028187Y0041200D02*
X0020313D01*
X0028187Y0041146D02*
X0020313D01*
X0028187Y0041092D02*
X0020313D01*
X0028187Y0041038D02*
X0020313D01*
X0028187Y0040984D02*
X0020313D01*
X0028187Y0040930D02*
X0020313D01*
X0028187Y0040876D02*
X0020313D01*
X0028187Y0040822D02*
X0020313D01*
X0028187Y0040768D02*
X0020313D01*
X0028187Y0040714D02*
X0020313D01*
X0028187Y0040660D02*
X0020313D01*
X0028187Y0040606D02*
X0020313D01*
X0028187Y0040552D02*
X0020313D01*
X0028187Y0040498D02*
X0020313D01*
X0028187Y0040444D02*
X0020313D01*
X0028187Y0040390D02*
X0020313D01*
X0028187Y0040336D02*
X0020313D01*
X0028187Y0040282D02*
X0020313D01*
X0028187Y0040228D02*
X0020313D01*
X0028187Y0040174D02*
X0020313D01*
X0028187Y0040120D02*
X0020313D01*
X0028187Y0040066D02*
X0020313D01*
X0028187Y0040012D02*
X0020313D01*
X0028187Y0039958D02*
X0020313D01*
X0028187Y0039904D02*
X0020313D01*
X0028187Y0039850D02*
X0020313D01*
X0028187Y0039796D02*
X0020313D01*
X0028187Y0039742D02*
X0020313D01*
X0028187Y0039688D02*
X0020313D01*
X0028187Y0039634D02*
X0020313D01*
X0028187Y0039580D02*
X0020313D01*
X0028187Y0039526D02*
X0020313D01*
X0028187Y0039472D02*
X0020313D01*
X0028187Y0039418D02*
X0020313D01*
X0028187Y0039364D02*
X0020313D01*
X0028187Y0039310D02*
X0020313D01*
X0028187Y0039256D02*
X0020313D01*
X0028187Y0039202D02*
X0020313D01*
X0028187Y0039148D02*
X0020313D01*
X0028187Y0039094D02*
X0020313D01*
X0028187Y0039040D02*
X0020313D01*
X0028187Y0038986D02*
X0020313D01*
X0028187Y0038932D02*
X0020313D01*
X0028187Y0038878D02*
X0020313D01*
X0028187Y0038824D02*
X0020313D01*
X0028187Y0038770D02*
X0020313D01*
X0028187Y0038716D02*
X0020313D01*
X0028187Y0038662D02*
X0020313D01*
X0028187Y0038608D02*
X0020313D01*
X0028187Y0038554D02*
X0020313D01*
X0028187Y0038500D02*
X0020313D01*
X0028187Y0038446D02*
X0020313D01*
X0028187Y0038392D02*
X0020313D01*
X0028187Y0038338D02*
X0020313D01*
X0028187Y0038284D02*
X0020313D01*
X0028187Y0038230D02*
X0020313D01*
X0028187Y0038176D02*
X0020313D01*
X0028187Y0038122D02*
X0020313D01*
X0028187Y0038068D02*
X0020313D01*
X0020353Y0041905D02*
Y0034032D01*
X0028187Y0037960D02*
X0020313D01*
X0028187Y0037906D02*
X0020313D01*
X0028187Y0037852D02*
X0020313D01*
X0028187Y0037798D02*
X0020313D01*
X0028187Y0037744D02*
X0020313D01*
X0028187Y0037690D02*
X0020313D01*
X0028187Y0037636D02*
X0020313D01*
X0028187Y0037582D02*
X0020313D01*
X0028187Y0037528D02*
X0020313D01*
X0028187Y0037474D02*
X0020313D01*
X0028187Y0037420D02*
X0020313D01*
X0028187Y0037366D02*
X0020313D01*
X0028187Y0037312D02*
X0020313D01*
X0028187Y0037258D02*
X0020313D01*
X0028187Y0037204D02*
X0020313D01*
X0028187Y0037150D02*
X0020313D01*
X0028187Y0037096D02*
X0020313D01*
X0028187Y0037042D02*
X0020313D01*
X0028187Y0036988D02*
X0020313D01*
X0028187Y0036934D02*
X0020313D01*
X0028187Y0036880D02*
X0020313D01*
X0028187Y0036826D02*
X0020313D01*
X0028187Y0036772D02*
X0020313D01*
X0028187Y0036718D02*
X0020313D01*
X0028187Y0036664D02*
X0020313D01*
X0028187Y0036610D02*
X0020313D01*
X0028187Y0036556D02*
X0020313D01*
X0028187Y0036502D02*
X0020313D01*
X0028187Y0036448D02*
X0020313D01*
X0028187Y0036394D02*
X0020313D01*
X0028187Y0036340D02*
X0020313D01*
X0028187Y0036286D02*
X0020313D01*
X0028187Y0036232D02*
X0020313D01*
X0028187Y0036178D02*
X0020313D01*
X0028187Y0036124D02*
X0020313D01*
X0028187Y0036070D02*
X0020313D01*
X0028187Y0036016D02*
X0020313D01*
X0028187Y0035962D02*
X0020313D01*
X0028187Y0035908D02*
X0020313D01*
X0028187Y0035854D02*
X0020313D01*
X0028187Y0035800D02*
X0020313D01*
X0028187Y0035746D02*
X0020313D01*
X0028187Y0035692D02*
X0020313D01*
X0028187Y0035638D02*
X0020313D01*
X0028187Y0035584D02*
X0020313D01*
X0028187Y0035530D02*
X0020313D01*
X0028187Y0035476D02*
X0020313D01*
X0028187Y0035422D02*
X0020313D01*
X0028187Y0035368D02*
X0020313D01*
X0028187Y0035314D02*
X0020313D01*
X0028187Y0035260D02*
X0020313D01*
X0028187Y0035206D02*
X0020313D01*
X0028187Y0035152D02*
X0020313D01*
X0028187Y0035098D02*
X0020313D01*
X0028187Y0035044D02*
X0020313D01*
X0028187Y0034990D02*
X0020313D01*
X0028187Y0034936D02*
X0020313D01*
X0028187Y0034882D02*
X0020313D01*
X0028187Y0034828D02*
X0020313D01*
X0028187Y0034774D02*
X0020313D01*
X0028187Y0034720D02*
X0020313D01*
X0028187Y0034666D02*
X0020313D01*
X0028187Y0034612D02*
X0020313D01*
X0028187Y0034558D02*
X0020313D01*
X0028187Y0034504D02*
X0020313D01*
X0028187Y0034450D02*
X0020313D01*
X0028187Y0034396D02*
X0020313D01*
X0028187Y0034342D02*
X0020313D01*
X0028187Y0034288D02*
X0020313D01*
X0028187Y0034234D02*
X0020313D01*
X0028187Y0034180D02*
X0020313D01*
X0028187Y0034126D02*
X0020313D01*
G54D11*
X0002000Y0020500D03*
Y0021500D03*
Y0022500D03*
X0032750Y0021750D03*
X0033750D03*
X0034750D03*
X0035000Y0008063D03*
X0036000Y0009063D03*
X0035000Y0010063D03*
X0023250Y0021750D03*
X0024250D03*
X0025250D03*
X0030250Y0008000D03*
X0031250Y0009000D03*
X0030250Y0010000D03*
X0011250Y0026000D03*
X0012250Y0027000D03*
X0011250D03*
X0012250Y0028000D03*
X0011250D03*
X0012250Y0029000D03*
X0011250D03*
X0045500Y0062000D03*
Y0061000D03*
X0003250Y0057750D03*
G54D12*
X0012250Y0026000D03*
X0000250Y0057750D03*
G54D13*
X0017500Y0022850D03*
Y0023650D03*
X0006000Y0037600D03*
Y0038400D03*
X0015000Y0022850D03*
Y0023650D03*
X0014250D03*
Y0022850D03*
Y0022150D03*
Y0021350D03*
X0017250Y0029400D03*
Y0028600D03*
X0016500Y0029400D03*
Y0028600D03*
X0017750Y0017150D03*
Y0016350D03*
X0021500Y0020400D03*
Y0019600D03*
X0029000D03*
Y0020400D03*
X0022250Y0019600D03*
Y0020400D03*
X0023250Y0018900D03*
Y0018100D03*
X0017000Y0042150D03*
Y0041350D03*
X0037500Y0058850D03*
Y0059650D03*
X0024500Y0018100D03*
Y0018900D03*
X0013500Y0018350D03*
Y0019150D03*
X0016750Y0022850D03*
Y0023650D03*
X0006000Y0040150D03*
Y0039350D03*
X0017000Y0043650D03*
Y0042850D03*
X0021500Y0045600D03*
Y0046400D03*
X0077000Y0058600D03*
Y0059400D03*
X0079000Y0061600D03*
Y0062400D03*
Y0066350D03*
Y0067150D03*
X0058000Y0059100D03*
Y0059900D03*
X0061250Y0059100D03*
Y0059900D03*
X0006500Y0030350D03*
Y0031150D03*
X0005500Y0030350D03*
Y0031150D03*
X0006500Y0022600D03*
Y0023400D03*
X0007500Y0030350D03*
Y0031150D03*
X0049000Y0059100D03*
Y0059900D03*
X0051750Y0059100D03*
Y0059900D03*
X0040250Y0058850D03*
Y0059650D03*
X0047750Y0059100D03*
Y0059900D03*
X0029750Y0052850D03*
Y0053650D03*
X0011250Y0001350D03*
Y0002150D03*
G54D14*
X0025720Y0075500D03*
X0026280D03*
X0025720Y0074000D03*
X0026280D03*
X0025720Y0064250D03*
X0026280D03*
X0025720Y0067500D03*
X0026280D03*
X0025720Y0071500D03*
X0026280D03*
X0025720Y0078750D03*
X0026280D03*
X0029530Y0069250D03*
X0028970D03*
X0025720Y0065000D03*
X0026280D03*
X0025720Y0069000D03*
X0026280D03*
X0025720Y0068250D03*
X0026280D03*
Y0078000D03*
X0025720D03*
X0026280Y0074750D03*
X0025720D03*
X0027780Y0065000D03*
X0027220D03*
X0067970Y0075250D03*
X0068530D03*
X0066030D03*
X0065470D03*
X0055970D03*
X0056530D03*
X0054030D03*
X0053470D03*
X0031220Y0079750D03*
X0031780D03*
X0032220Y0077000D03*
X0032780D03*
X0032220Y0076000D03*
X0032780D03*
X0032970Y0063250D03*
X0033530D03*
X0009470Y0026750D03*
X0010030D03*
X0009470Y0027750D03*
X0010030D03*
X0011470Y0030250D03*
X0012030D03*
X0014030Y0028000D03*
X0013470D03*
X0014030Y0027000D03*
X0013470D03*
X0014030Y0026000D03*
X0013470D03*
X0024780Y0062250D03*
X0024220D03*
X0023030Y0060750D03*
X0022470D03*
X0031780Y0080500D03*
X0031220D03*
X0025030Y0068250D03*
X0024470D03*
X0024780Y0072000D03*
X0024220D03*
X0023030Y0077500D03*
X0022470D03*
X0068530Y0076000D03*
X0067970D03*
X0065470D03*
X0066030D03*
X0056530D03*
X0055970D03*
X0053470D03*
X0054030D03*
X0013470Y0067000D03*
X0014030D03*
X0004720D03*
X0005280D03*
X0002970D03*
X0003530D03*
X0001220D03*
X0001780D03*
X-0000530D03*
X0000030D03*
X0011720D03*
X0012280D03*
X0008220D03*
X0008780D03*
X0009970D03*
X0010530D03*
X0036220Y0003750D03*
X0036780D03*
G54D15*
X0045000Y0058970D03*
Y0059530D03*
X0074750Y0067030D03*
Y0066470D03*
X0072750Y0067030D03*
Y0066470D03*
X0045000Y0067030D03*
Y0066470D03*
X0043000Y0070530D03*
Y0069970D03*
X0044000Y0067030D03*
Y0066470D03*
X0041000Y0067030D03*
Y0066470D03*
X0039500Y0061720D03*
Y0062280D03*
X0006000Y0045030D03*
Y0044470D03*
X0007000D03*
Y0045030D03*
X0024500Y0019720D03*
Y0020280D03*
X0013500Y0019970D03*
Y0020530D03*
X0030250Y0015970D03*
Y0016530D03*
X0034000D03*
Y0015970D03*
Y0019780D03*
Y0019220D03*
X0035000Y0017970D03*
Y0018530D03*
X0031000Y0013470D03*
Y0014030D03*
X0025500Y0017220D03*
Y0017780D03*
X0026250Y0015220D03*
Y0015780D03*
X0020000Y0015220D03*
Y0015780D03*
X0034750Y0020220D03*
Y0020780D03*
X0030000Y0019220D03*
Y0019780D03*
X0015750Y0048280D03*
Y0047720D03*
X0030250Y0014030D03*
Y0013470D03*
X0013750Y0046470D03*
Y0047030D03*
X0018750Y0051970D03*
Y0052530D03*
Y0050720D03*
Y0051280D03*
X0018000Y0050720D03*
Y0051280D03*
X0021500Y0047780D03*
Y0047220D03*
X0077250Y0067030D03*
Y0066470D03*
X0077000Y0060220D03*
Y0060780D03*
X0075750Y0067030D03*
Y0066470D03*
X0037500D03*
Y0067030D03*
X0078750Y0071530D03*
Y0070970D03*
X0066750Y0066470D03*
Y0067030D03*
X0078250Y0062280D03*
Y0061720D03*
X0065750Y0062280D03*
Y0061720D03*
X0080000Y0067720D03*
Y0068280D03*
Y0067030D03*
Y0066470D03*
X0059000D03*
Y0067030D03*
X0067750Y0066470D03*
Y0067030D03*
X0058000Y0061720D03*
Y0062280D03*
X0061500Y0066470D03*
Y0067030D03*
X0070750Y0066470D03*
Y0067030D03*
X0060500Y0061720D03*
Y0062280D03*
X0003500Y0034220D03*
Y0034780D03*
X0006500Y0031970D03*
Y0032530D03*
X0002000Y0034780D03*
Y0034220D03*
X0005500Y0032530D03*
Y0031970D03*
X0012000Y0045280D03*
Y0044720D03*
X0018000Y0036780D03*
Y0036220D03*
X0017250Y0035280D03*
Y0034720D03*
X0016250Y0038030D03*
Y0037470D03*
X0017250Y0036220D03*
Y0036780D03*
X0006500Y0024220D03*
Y0024780D03*
X0017250Y0037470D03*
Y0038030D03*
X0007500Y0031970D03*
Y0032530D03*
Y0046780D03*
Y0046220D03*
X0006750Y0046780D03*
Y0046220D03*
X0008000Y0049220D03*
Y0049780D03*
X0005250Y0048280D03*
Y0047720D03*
X0009500Y0045280D03*
Y0044720D03*
X0008750Y0049780D03*
Y0049220D03*
X0005250Y0049530D03*
Y0048970D03*
X0064000Y0066470D03*
Y0067030D03*
X0055000D03*
Y0066470D03*
X0050750D03*
Y0067030D03*
X0053000Y0066470D03*
Y0067030D03*
X0049750Y0061470D03*
Y0062030D03*
X0051750Y0061470D03*
Y0062030D03*
X0046500Y0066470D03*
Y0067030D03*
X0048750Y0066470D03*
Y0067030D03*
X0040250Y0061720D03*
Y0062280D03*
X0047750Y0061470D03*
Y0062030D03*
X0008500Y0026720D03*
Y0027280D03*
X0069250Y0070780D03*
Y0070220D03*
Y0069530D03*
Y0068970D03*
X0067750Y0069530D03*
Y0068970D03*
X0068500Y0069530D03*
Y0068970D03*
X0065250Y0072220D03*
Y0072780D03*
X0057250Y0070780D03*
Y0070220D03*
Y0069530D03*
Y0068970D03*
X0055750Y0069530D03*
Y0068970D03*
X0056500Y0069530D03*
Y0068970D03*
X0053250Y0072220D03*
Y0072780D03*
X0008000Y0055470D03*
Y0056030D03*
X0005250Y0055470D03*
Y0056030D03*
X0013500Y0063030D03*
Y0062470D03*
X0004750Y0063030D03*
Y0062470D03*
X0003000Y0063030D03*
Y0062470D03*
X0001250Y0063030D03*
Y0062470D03*
X0017500D03*
Y0063030D03*
X-0000500D03*
Y0062470D03*
X0015250D03*
Y0063030D03*
X0011750D03*
Y0062470D03*
X0008250Y0063030D03*
Y0062470D03*
X0010000Y0063030D03*
Y0062470D03*
X0006250D03*
Y0063030D03*
X0073250Y0061970D03*
Y0062530D03*
X0072500Y0061970D03*
Y0062530D03*
X0037500Y0058030D03*
Y0057470D03*
X0040500Y0049530D03*
Y0048970D03*
X0028250Y0046280D03*
Y0045720D03*
X0030500Y0053530D03*
Y0052970D03*
X0032500Y0058280D03*
Y0057720D03*
X0076000Y0062280D03*
Y0061720D03*
X0058750Y0059530D03*
Y0058970D03*
X0062000Y0058280D03*
Y0057720D03*
X0049000Y0058280D03*
Y0057720D03*
X0051750Y0058280D03*
Y0057720D03*
X0040250Y0058030D03*
Y0057470D03*
X0047750Y0058280D03*
Y0057720D03*
X0068750Y0079220D03*
Y0079780D03*
X0064000Y0076030D03*
Y0075470D03*
X0057000Y0079220D03*
Y0079780D03*
X0052750Y0076030D03*
Y0075470D03*
X0010000Y0025220D03*
Y0025780D03*
X0041000Y0056220D03*
Y0056780D03*
X0044000Y0057470D03*
Y0058030D03*
X0073250Y0061280D03*
Y0060720D03*
X0072500Y0061280D03*
Y0060720D03*
X0039250Y0066470D03*
Y0067030D03*
X0036750Y0059220D03*
Y0059780D03*
X0007750Y0044470D03*
Y0045030D03*
X0015750Y0022970D03*
Y0023530D03*
X0034750Y0016530D03*
Y0015970D03*
X0015250Y0029280D03*
Y0028720D03*
X0033000Y0016470D03*
Y0017030D03*
X0026250Y0018470D03*
Y0019030D03*
X0027250D03*
Y0018470D03*
X0025250Y0020280D03*
Y0019720D03*
X0020000Y0016720D03*
Y0017280D03*
X0013750Y0047720D03*
Y0048280D03*
X0016750Y0040530D03*
Y0039970D03*
X0024000Y0046280D03*
Y0045720D03*
X0024750Y0046280D03*
Y0045720D03*
X0019500Y0051780D03*
Y0051220D03*
X0021500Y0052030D03*
Y0051470D03*
X0026000Y0046280D03*
Y0045720D03*
X0021500Y0050220D03*
Y0050780D03*
X0029750Y0049720D03*
Y0050280D03*
X0027500Y0054220D03*
Y0054780D03*
X0024500Y0054220D03*
Y0054780D03*
X0029750Y0054220D03*
Y0054780D03*
X0079750Y0058030D03*
Y0057470D03*
X0076000Y0052970D03*
Y0053530D03*
X0032500Y0059220D03*
Y0059780D03*
X0076750Y0061720D03*
Y0062280D03*
Y0072220D03*
Y0072780D03*
X0058750Y0057720D03*
Y0058280D03*
X0061250Y0057720D03*
Y0058280D03*
X0071250Y0069780D03*
Y0069220D03*
X0002750Y0034780D03*
Y0034220D03*
X0004500Y0031970D03*
Y0032530D03*
X0014250Y0033470D03*
Y0034030D03*
X0015500Y0038030D03*
Y0037470D03*
X0014750Y0038030D03*
Y0037470D03*
X0005000Y0022720D03*
Y0023280D03*
X0009000Y0020220D03*
Y0020780D03*
X0018000Y0037470D03*
Y0038030D03*
X0014250Y0034720D03*
Y0035280D03*
X0006000Y0046780D03*
Y0046220D03*
X0007250Y0049220D03*
Y0049780D03*
X0004500Y0048280D03*
Y0047720D03*
X0009500Y0049220D03*
Y0049780D03*
X0006500Y0049220D03*
Y0049780D03*
X0067500Y0059220D03*
Y0059780D03*
X0064500Y0058970D03*
Y0059530D03*
X0055000Y0057720D03*
Y0058280D03*
X0058000Y0057720D03*
Y0058280D03*
X0047750Y0056470D03*
Y0057030D03*
X0052500Y0057720D03*
Y0058280D03*
X0041000Y0057470D03*
Y0058030D03*
X0045000Y0057470D03*
Y0058030D03*
X0032250Y0068030D03*
Y0067470D03*
X0024500Y0075030D03*
Y0074470D03*
X0032250Y0073030D03*
Y0072470D03*
X0024500Y0065280D03*
Y0064720D03*
X0032250Y0079030D03*
Y0078470D03*
X0064750Y0075470D03*
Y0076030D03*
X0069250D03*
Y0075470D03*
X0066750Y0069530D03*
Y0068970D03*
X0052000Y0075470D03*
Y0076030D03*
X0057250D03*
Y0075470D03*
X0054750Y0069530D03*
Y0068970D03*
X0006000Y0055470D03*
Y0056030D03*
X0018500Y0069280D03*
Y0068720D03*
X0016250Y0069280D03*
Y0068720D03*
X0007500Y0069030D03*
Y0068470D03*
X0078500Y0051780D03*
Y0051220D03*
X0080750Y0076220D03*
Y0076780D03*
X0001000Y0076220D03*
Y0076780D03*
X0035250Y0046220D03*
Y0046780D03*
X0000000Y0002780D03*
Y0002220D03*
G54D16*
X0001250Y0028214D03*
Y0026285D03*
X-0000250Y0028214D03*
Y0026285D03*
X0007250Y0025785D03*
Y0027714D03*
X0005750Y0025785D03*
Y0027714D03*
X0003750Y0019285D03*
Y0021214D03*
X0007750Y0020714D03*
Y0018785D03*
X0018500Y0032035D03*
Y0033964D03*
G54D17*
X0010750Y0033653D03*
Y0035346D03*
X0008500Y0033653D03*
Y0035346D03*
G54D18*
X0003000Y0032100D03*
Y0033400D03*
X0006750Y0035150D03*
Y0033850D03*
X0013250Y0031350D03*
Y0032650D03*
X0014500Y0031350D03*
Y0032650D03*
X0003750Y0023650D03*
Y0022350D03*
G54D19*
X0044250Y0060840D03*
Y0062160D03*
X0032750Y0020660D03*
Y0019340D03*
X0029250Y0015090D03*
Y0016410D03*
X0023250Y0020910D03*
Y0019590D03*
X0018250Y0045410D03*
Y0044090D03*
Y0041840D03*
Y0043160D03*
X0079500Y0058840D03*
Y0060160D03*
X0078250Y0058840D03*
Y0060160D03*
X0038500Y0060840D03*
Y0062160D03*
X0037250Y0060840D03*
Y0062160D03*
X0059000Y0060840D03*
Y0062160D03*
X0061500Y0060840D03*
Y0062160D03*
X0064000Y0060840D03*
Y0062160D03*
X0062750Y0060840D03*
Y0062160D03*
X0056250Y0055160D03*
Y0053840D03*
X0057500Y0055160D03*
Y0053840D03*
X0050750Y0060840D03*
Y0062160D03*
X0053000Y0060840D03*
Y0062160D03*
X0046750Y0060840D03*
Y0062160D03*
X0048750Y0060840D03*
Y0062160D03*
X0013750Y0067840D03*
Y0069160D03*
X0005000Y0067840D03*
Y0069160D03*
X0003250Y0067840D03*
Y0069160D03*
X0017500Y0067840D03*
Y0069160D03*
X0001500Y0067840D03*
Y0069160D03*
X0015250Y0067840D03*
Y0069160D03*
X-0000250Y0067840D03*
Y0069160D03*
X0012000Y0067840D03*
Y0069160D03*
X0008500Y0067840D03*
Y0069160D03*
X0010250Y0067840D03*
Y0069160D03*
X0006500Y0067840D03*
Y0069160D03*
X0020500Y0052160D03*
Y0050840D03*
G54D20*
X0015750Y0021959D03*
Y0020541D03*
G54D21*
X0001104Y0061000D03*
X0002396D03*
G54D22*
X0041130Y0054750D03*
X0042870D03*
X0066620Y0055500D03*
X0064880D03*
Y0057250D03*
X0066620D03*
X0057370Y0056500D03*
X0055630D03*
X0022380Y0063500D03*
X0024120D03*
X0022380Y0059500D03*
X0024120D03*
X0035120Y0080000D03*
X0033380D03*
X0022380Y0069500D03*
X0024120D03*
X0022380Y0073250D03*
X0024120D03*
X0022380Y0080000D03*
X0024120D03*
X0035120Y0074750D03*
X0033380D03*
X0035120Y0068000D03*
X0033380D03*
X0022380Y0076250D03*
X0024120D03*
X0035120Y0073000D03*
X0033380D03*
X0035120Y0070000D03*
X0033380D03*
X0022380Y0066500D03*
X0024120D03*
X0035120Y0064500D03*
X0033380D03*
X0035120Y0078250D03*
X0033380D03*
X0067630Y0077250D03*
X0069370D03*
X0065620D03*
X0063880D03*
X0068130Y0074000D03*
X0069870D03*
X0065870D03*
X0064130D03*
X0055880Y0077250D03*
X0057620D03*
X0053870D03*
X0052130D03*
X0056130Y0074000D03*
X0057870D03*
X0053870D03*
X0052130D03*
X0025630Y0080000D03*
X0027370D03*
X0036870Y0002500D03*
X0035130D03*
X0002870Y0003000D03*
X0001130D03*
G54D23*
X0018000Y0041146D03*
Y0039854D03*
X0010000Y0016604D03*
Y0017896D03*
G54D24*
X0016750Y0015963D03*
Y0017537D03*
X0036000Y0018213D03*
Y0019787D03*
X0021000Y0015213D03*
Y0016787D03*
X0012500Y0035287D03*
Y0033713D03*
G54D25*
X0043250Y0061606D03*
Y0062394D03*
X0021500Y0017856D03*
Y0018644D03*
X0022250Y0017856D03*
Y0018644D03*
X0036250Y0062394D03*
Y0061606D03*
X0066750D03*
Y0062394D03*
G54D26*
X0044500Y0056370D03*
Y0054630D03*
X0073000Y0057880D03*
Y0059620D03*
Y0056370D03*
Y0054630D03*
X0071250Y0057880D03*
Y0059620D03*
Y0056370D03*
Y0054630D03*
X0035500Y0057880D03*
Y0059620D03*
Y0056370D03*
Y0054630D03*
X0041750Y0049130D03*
Y0050870D03*
X0024250Y0015130D03*
Y0016870D03*
X0022500Y0015130D03*
Y0016870D03*
X0079750Y0056370D03*
Y0054630D03*
X0077250Y0054870D03*
Y0053130D03*
X0033750Y0057880D03*
Y0059620D03*
Y0056370D03*
Y0054630D03*
X0060000Y0057880D03*
Y0059620D03*
X0059250Y0056370D03*
Y0054630D03*
X0063250Y0057880D03*
Y0059620D03*
Y0056370D03*
Y0054630D03*
X0061000D03*
Y0056370D03*
X0053750D03*
Y0054630D03*
X0050250Y0057880D03*
Y0059620D03*
X0053750Y0057880D03*
Y0059620D03*
X0050250Y0056370D03*
Y0054630D03*
X0052000Y0056370D03*
Y0054630D03*
X0039000Y0057880D03*
Y0059620D03*
X0046250Y0057880D03*
Y0059620D03*
X0039000Y0056370D03*
Y0054630D03*
X0046250Y0056370D03*
Y0054630D03*
X0013750Y0072120D03*
Y0070380D03*
X0005000Y0072120D03*
Y0070380D03*
X0003250Y0072120D03*
Y0070380D03*
X0017500Y0072120D03*
Y0070380D03*
X0001500Y0072120D03*
Y0070380D03*
X0015500Y0072120D03*
Y0070380D03*
X-0000250Y0072120D03*
Y0070380D03*
X0012000Y0072120D03*
Y0070380D03*
X0008500Y0072120D03*
Y0070380D03*
X0010250Y0072120D03*
Y0070380D03*
X0006750Y0072120D03*
Y0070380D03*
X0079750Y0051630D03*
Y0053370D03*
X0079500Y0076870D03*
Y0075130D03*
X-0000250Y0076870D03*
Y0075130D03*
X0036500Y0046870D03*
Y0045130D03*
X0002750Y-0000620D03*
Y0001120D03*
X0075500Y0057880D03*
Y0059620D03*
Y0056370D03*
Y0054630D03*
G54D27*
X0021160Y0007250D03*
X0019000D03*
X0016840D03*
G54D28*
X0027900Y0075500D03*
X0027100D03*
X0027900Y0074000D03*
X0027100D03*
X0027900Y0064250D03*
X0027100D03*
X0027900Y0067500D03*
X0027100D03*
X0027900Y0071500D03*
X0027100D03*
X0027900Y0078750D03*
X0027100D03*
G54D29*
X0000000Y0000000D03*
X0036220D03*
X0037378Y0049205D03*
X0079527D03*
Y0079252D03*
X0000000D03*
G54D30*
X0041750Y0061957D03*
Y0059043D03*
X0056500Y0063207D03*
Y0060293D03*
X0062250Y0075957D03*
Y0073043D03*
X0050250Y0075957D03*
Y0073043D03*
G54D32*
X0006000Y0015000D03*
X0002000D03*
X0018653Y0001734D03*
X0017000D03*
X0015347D03*
Y-0000431D03*
X0017000D03*
X0018653D03*
X0031230Y0001734D03*
X0029577D03*
X0027923D03*
X0026270D03*
Y-0000431D03*
X0027923D03*
X0029577D03*
X0031230D03*
G54D33*
X0015000Y0056000D03*
X0016000D03*
X0017000D03*
Y0057000D03*
X0016000D03*
X0015000D03*
X0039750Y0078000D03*
X0040750D03*
X0041750D03*
X0042750D03*
Y0079000D03*
X0041750D03*
X0040750D03*
X0039750D03*
X0009067Y-0000277D03*
Y0001533D03*
X0007689D03*
X0006311D03*
X0004933D03*
Y-0000277D03*
X0006311D03*
X0007689D03*
X0073823Y0049095D03*
Y0050905D03*
X0072445D03*
X0071067D03*
X0069689D03*
X0068311D03*
X0066933D03*
X0065555D03*
X0064177D03*
Y0049095D03*
X0065555D03*
X0066933D03*
X0068311D03*
X0069689D03*
X0071067D03*
X0072445D03*
X0053823D03*
Y0050905D03*
X0052445D03*
X0051067D03*
X0049689D03*
X0048311D03*
X0046933D03*
X0045555D03*
X0044177D03*
Y0049095D03*
X0045555D03*
X0046933D03*
X0048311D03*
X0049689D03*
X0051067D03*
X0052445D03*
G54D35*
X0006250Y0077136D03*
X0006750Y0075364D03*
X0007250Y0077136D03*
X0007750Y0075364D03*
X0008250Y0077136D03*
X0008750Y0075364D03*
X0009250Y0077136D03*
X0009750Y0075364D03*
X0010250Y0077136D03*
X0010750Y0075364D03*
X0011250Y0077136D03*
X0011750Y0075364D03*
X0012250Y0077136D03*
X0012750Y0075364D03*
X0013250Y0077136D03*
X0013750Y0075364D03*
X0014250Y0077136D03*
X0014750Y0075364D03*
X0015250Y0077136D03*
X0015750Y0075364D03*
G54D36*
X0067074Y0079106D03*
X0066287Y0079893D03*
Y0079106D03*
X0065500Y0079893D03*
Y0079106D03*
X0064713Y0079893D03*
Y0079106D03*
X0063925Y0079893D03*
Y0079106D03*
X0055324D03*
X0054537Y0079893D03*
Y0079106D03*
X0053750Y0079893D03*
Y0079106D03*
X0052963Y0079893D03*
Y0079106D03*
X0052175Y0079893D03*
Y0079106D03*
G54D37*
X0067074Y0079893D03*
X0055324D03*
G54D38*
X0067197Y0074900D03*
Y0076100D03*
X0066803D03*
Y0074900D03*
X0055197D03*
Y0076100D03*
X0054803D03*
Y0074900D03*
G54D39*
X0041713Y0057374D03*
Y0056626D03*
X0043287D03*
Y0057374D03*
X0078537Y0056626D03*
Y0057374D03*
X0076963D03*
Y0056626D03*
X0065213Y0059624D03*
Y0058876D03*
X0066787D03*
Y0059624D03*
X0055713Y0058874D03*
Y0058126D03*
X0057287D03*
Y0058874D03*
G54D40*
X0011240Y0037500D03*
X0013760D03*
G54D42*
X0076750Y0068800D03*
X0077150Y0069700D03*
X0076350D03*
X0054500Y0061050D03*
X0054900Y0061950D03*
X0054100D03*
X0007500Y0057950D03*
X0007100Y0057050D03*
X0007900D03*
X0005750Y0057950D03*
X0005350Y0057050D03*
X0006150D03*
G54D43*
X0033750Y0029250D03*
X0024250D03*
G54D44*
X0043300Y0059250D03*
X0044200Y0058850D03*
Y0059650D03*
X0018200Y0021250D03*
X0017300Y0021650D03*
Y0020850D03*
X0029950Y0018000D03*
X0029050Y0018400D03*
Y0017600D03*
G54D45*
X0023410Y0062000D03*
X0022090D03*
X0023660Y0058000D03*
X0022340D03*
X0023660Y0068000D03*
X0022340D03*
X0023660Y0071000D03*
X0022340D03*
X0023660Y0078500D03*
X0022340D03*
X0035160Y0066500D03*
X0033840D03*
X0023660Y0074750D03*
X0022340D03*
X0035160Y0071500D03*
X0033840D03*
X0023660Y0065000D03*
X0022340D03*
X0035910Y0076750D03*
X0034590D03*
G54D46*
X0080000Y0061255D03*
Y0062245D03*
G54D47*
X0033750Y0036000D03*
X0024250D03*
G54D48*
X0032750Y0032886D03*
X0034750D03*
X0023250D03*
X0025250D03*
G54D49*
X0000473Y0009000D03*
X0007500Y0010000D03*
G54D50*
X0036000Y0033000D03*
X0031250D03*
X0021000D03*
X0026750D03*
X0009000Y0022000D03*
X0012750Y0002000D03*
X0001250Y0024750D03*
X0003000Y0030750D03*
X0000000Y0030000D03*
X0008500Y0024500D03*
X0060000Y0073000D03*
G54D51*
X0074750Y0065602D03*
X0073750D03*
Y0063398D03*
X0074750D03*
X0072750Y0065602D03*
X0071750D03*
Y0063398D03*
X0072750D03*
X0045000Y0065602D03*
X0044000D03*
Y0063398D03*
X0045000D03*
X0043000Y0068852D03*
X0042000D03*
Y0066648D03*
X0043000D03*
X0006000Y0041148D03*
X0007000D03*
Y0043352D03*
X0006000D03*
X0014750Y0044398D03*
X0015750D03*
Y0046602D03*
X0014750D03*
X0015750Y0043352D03*
X0014750D03*
Y0041148D03*
X0015750D03*
X0065750Y0063398D03*
X0066750D03*
Y0065602D03*
X0065750D03*
X0080000D03*
X0079000D03*
Y0063398D03*
X0080000D03*
X0068750Y0065602D03*
X0067750D03*
Y0063398D03*
X0068750D03*
X0070750Y0065602D03*
X0069750D03*
Y0063398D03*
X0070750D03*
X0012000Y0043352D03*
X0011000D03*
Y0041148D03*
X0012000D03*
X0009500Y0043352D03*
X0008500D03*
Y0041148D03*
X0009500D03*
X0017500Y0063898D03*
X0018500D03*
Y0066102D03*
X0017500D03*
X0015250Y0063898D03*
X0016250D03*
Y0066102D03*
X0015250D03*
X0006250Y0063898D03*
X0007250D03*
Y0066102D03*
X0006250D03*
G54D52*
X0042500Y0063260D03*
X0043000D03*
Y0065740D03*
X0042500D03*
X0040500Y0063260D03*
X0041000D03*
Y0065740D03*
X0040500D03*
X0077250Y0063260D03*
X0077750D03*
Y0065740D03*
X0077250D03*
X0075750Y0063260D03*
X0076250D03*
Y0065740D03*
X0075750D03*
X0038750Y0063260D03*
X0039250D03*
Y0065740D03*
X0038750D03*
X0037000Y0063260D03*
X0037500D03*
Y0065740D03*
X0037000D03*
X0058500Y0063260D03*
X0059000D03*
Y0065740D03*
X0058500D03*
X0061000Y0063260D03*
X0061500D03*
Y0065740D03*
X0061000D03*
X0063500Y0063260D03*
X0064000D03*
Y0065740D03*
X0063500D03*
X0050250Y0063260D03*
X0050750D03*
Y0065740D03*
X0050250D03*
X0052500Y0063260D03*
X0053000D03*
Y0065740D03*
X0052500D03*
X0046000Y0063260D03*
X0046500D03*
Y0065740D03*
X0046000D03*
X0048250Y0063260D03*
X0048750D03*
Y0065740D03*
X0048250D03*
X0014000Y0066240D03*
X0013500D03*
Y0063760D03*
X0014000D03*
X0005250Y0066240D03*
X0004750D03*
Y0063760D03*
X0005250D03*
X0003500Y0066240D03*
X0003000D03*
Y0063760D03*
X0003500D03*
X0001750Y0066240D03*
X0001250D03*
Y0063760D03*
X0001750D03*
X0000000Y0066240D03*
X-0000500D03*
Y0063760D03*
X0000000D03*
X0012250Y0066240D03*
X0011750D03*
Y0063760D03*
X0012250D03*
X0008750Y0066240D03*
X0008250D03*
Y0063760D03*
X0008750D03*
X0010500Y0066240D03*
X0010000D03*
Y0063760D03*
X0010500D03*
G54D53*
X0007197Y0055459D03*
Y0056041D03*
X0006803D03*
Y0055459D03*
X0007000D03*
G54D54*
X0015250Y0025000D03*
X0015750D03*
X0016250D03*
X0016750D03*
Y0027400D03*
X0016250D03*
X0015750D03*
X0015250D03*
X0066250Y0070250D03*
X0066750D03*
X0067250D03*
X0067750D03*
Y0072650D03*
X0067250D03*
X0066750D03*
X0066250D03*
X0054250Y0070250D03*
X0054750D03*
X0055250D03*
X0055750D03*
Y0072650D03*
X0055250D03*
X0054750D03*
X0054250D03*
G54D55*
X0027990Y0061250D03*
Y0061750D03*
X0025510D03*
Y0061250D03*
X0027990Y0059750D03*
Y0060250D03*
X0025510D03*
Y0059750D03*
X0029010Y0071000D03*
Y0070500D03*
X0031490D03*
Y0071000D03*
X0027990Y0066000D03*
Y0066500D03*
X0025510D03*
Y0066000D03*
X0027990Y0070000D03*
Y0070500D03*
X0025510D03*
Y0070000D03*
X0027990Y0076500D03*
Y0077000D03*
X0025510D03*
Y0076500D03*
X0029010Y0077000D03*
Y0076500D03*
X0031490D03*
Y0077000D03*
Y0067500D03*
Y0068000D03*
X0029010D03*
Y0067500D03*
X0025510Y0073000D03*
Y0072500D03*
X0027990D03*
Y0073000D03*
X0029010Y0075000D03*
Y0074500D03*
X0031490D03*
Y0075000D03*
Y0072500D03*
Y0073000D03*
X0029010D03*
Y0072500D03*
X0025510Y0063250D03*
Y0062750D03*
X0027990D03*
Y0063250D03*
X0029010Y0065000D03*
Y0064500D03*
X0031490D03*
Y0065000D03*
Y0078500D03*
Y0079000D03*
X0029010D03*
Y0078500D03*
G54D56*
X0076250Y0071500D03*
Y0071120D03*
Y0070750D03*
X0077270D03*
Y0071500D03*
X0072250Y0070750D03*
Y0071130D03*
Y0071500D03*
X0071230D03*
Y0070750D03*
X0074750D03*
Y0071130D03*
Y0071500D03*
X0073730D03*
Y0070750D03*
X0005500Y0034000D03*
Y0034380D03*
Y0034750D03*
X0004480D03*
Y0034000D03*
X0008500Y0048250D03*
Y0047870D03*
Y0047500D03*
X0009520D03*
Y0048250D03*
X0006250D03*
Y0047870D03*
Y0047500D03*
X0007270D03*
Y0048250D03*
G54D57*
X0015750Y0035250D03*
G54D58*
X0015000Y0034155D03*
X0015500D03*
X0016000D03*
X0016500D03*
Y0036345D03*
X0016000D03*
X0015500D03*
X0015000D03*
G54D59*
X0003500Y0028300D03*
G54D60*
X0002600Y0025700D03*
X0003500D03*
X0004400D03*
G54D61*
X0028235Y0048780D03*
Y0048977D03*
Y0049174D03*
Y0049568D03*
Y0049765D03*
Y0049962D03*
Y0050159D03*
Y0050356D03*
Y0050553D03*
Y0050750D03*
Y0050947D03*
Y0051144D03*
Y0051538D03*
Y0051735D03*
X0023720D03*
Y0051341D03*
Y0051144D03*
Y0050947D03*
Y0050750D03*
Y0050553D03*
Y0050356D03*
Y0050159D03*
Y0049962D03*
Y0049765D03*
Y0049371D03*
Y0049174D03*
Y0048977D03*
Y0048780D03*
G54D62*
X0028235Y0049371D03*
Y0051341D03*
X0023720Y0051538D03*
Y0049568D03*
G54D63*
X0024697Y0048000D03*
X0024894D03*
X0025091D03*
X0025288D03*
X0025485D03*
X0025682D03*
X0025879D03*
X0026076D03*
X0026470D03*
X0026667D03*
X0026864D03*
X0027061D03*
X0027258D03*
X0027455D03*
Y0052515D03*
X0027258D03*
X0027061D03*
X0026864D03*
X0026667D03*
X0026470D03*
X0026273D03*
X0025879D03*
X0025682D03*
X0025485D03*
X0025288D03*
X0025091D03*
X0024894D03*
X0024697D03*
X0024500D03*
G54D64*
Y0048000D03*
X0026273D03*
X0026076Y0052515D03*
G54D65*
X0034000Y0017750D03*
Y0018124D03*
Y0018498D03*
X0032968D03*
Y0018124D03*
Y0017750D03*
X0026250Y0017250D03*
Y0016876D03*
Y0016502D03*
X0027281D03*
Y0016876D03*
Y0017250D03*
G54D68*
X0024716Y0047000D03*
X0024283D03*
G54D80*
X0001250Y-0001500D03*
X0001750Y0077750D03*
X0077750Y0080000D03*
M02*
