*
G04 Mass Parameters ***
*
G04 Image ***
*
%IND:\UTENTI\00.LAVORI IN CORSO\METALTRONICA\22-301-0\22-301-0.SPT*%
%ICAS*%
%MOIN*%
%IPPOS*%
%ASAXBY*%
G74*%FSLAN2X34Y34*%
*
G04 Aperture Definitions ***
*
%ADD10C,0.0394*%
%ADD11C,0.0800*%
%ADD12R,0.0800X0.0800*%
%ADD13R,0.0501X0.0404*%
%ADD14R,0.0320X0.0380*%
%ADD15R,0.0380X0.0320*%
%ADD16R,0.0886X0.0905*%
%ADD17R,0.0630X0.1102*%
%ADD18R,0.1024X0.0510*%
%ADD19R,0.0710X0.0400*%
%ADD20R,0.0630X0.0984*%
%ADD21R,0.0354X0.0480*%
%ADD22R,0.0850X0.1080*%
%ADD23R,0.0480X0.0354*%
%ADD24R,0.0787X0.0787*%
%ADD25R,0.0197X0.0315*%
%ADD26R,0.1080X0.0850*%
%ADD27C,0.1063*%
%ADD28R,0.0404X0.0501*%
%ADD29C,0.2756*%
%ADD30R,0.1220X0.0905*%
%ADD31C,0.1181*%
%ADD32C,0.0984*%
%ADD33C,0.0787*%
%ADD34C,0.0630*%
%ADD35R,0.0600X0.1200*%
%ADD36C,0.0610*%
%ADD37R,0.0610X0.0610*%
%ADD38R,0.0236X0.0413*%
%ADD39R,0.0197X0.0197*%
%ADD40R,0.0630X0.0866*%
%ADD41C,0.0187*%
%ADD42R,0.0400X0.0500*%
%ADD43C,0.2000*%
%ADD44R,0.0500X0.0400*%
%ADD45R,0.0400X0.0710*%
%ADD46R,0.0570X0.0590*%
%ADD47R,0.3100X0.3350*%
%ADD48R,0.0650X0.1500*%
%ADD49C,0.1378*%
%ADD50C,0.0866*%
%ADD51R,0.0236X0.0512*%
%ADD52R,0.0354X0.0512*%
%ADD53R,0.0118X0.0264*%
%ADD54O,0.0256X0.0650*%
%ADD55R,0.0512X0.0354*%
%ADD56R,0.0500X0.0270*%
%ADD57R,0.1220X0.0950*%
%ADD58R,0.0240X0.0750*%
%ADD59R,0.1580X0.0680*%
%ADD60R,0.0550X0.0680*%
%ADD61O,0.0700X0.0110*%
%ADD62R,0.0700X0.0110*%
%ADD63O,0.0110X0.0700*%
%ADD64R,0.0110X0.0700*%
%ADD65R,0.0480X0.0244*%
%ADD66R,0.0250X0.0350*%
%ADD67R,0.0350X0.0250*%
%ADD68R,0.0197X0.0394*%
%ADD69C,0.0276*%
%ADD70C,0.0512*%
%ADD71C,0.0250*%
%ADD72C,0.0000*%
%ADD73C,0.0100*%
%ADD74C,0.0050*%
%ADD75C,0.0276*%
%ADD76C,0.0500*%
%ADD77C,0.0120*%
%ADD78C,0.0276*%
%ADD79C,0.0276*%
%ADD80C,0.0590*%
%ADD81C,0.0060*%
%ADD82C,0.1000*%
*
G04 Plot Data ***
*
G54D73*
G01X0057156Y0059300D02*
Y0058677D01*
X0057066Y0059071D02*
Y0058677D01*
X0056976Y0059071D02*
Y0058677D01*
X0056886Y0059071D02*
Y0058677D01*
X0056796Y0059071D02*
Y0058677D01*
X0057425Y0059257D02*
X0057150D01*
X0057425Y0059167D02*
X0057150D01*
X0057425Y0059077D02*
X0057150D01*
X0057425Y0058987D02*
X0056756D01*
X0057425Y0058897D02*
X0056756D01*
X0057425Y0058807D02*
X0056756D01*
X0057425Y0058717D02*
X0056756D01*
X0057150Y0059071D02*
X0056756D01*
X0057150Y0059300D02*
Y0059071D01*
X0057425Y0059300D02*
X0057150D01*
X0057425D02*
Y0058677D01*
X0056756D01*
Y0059071D02*
Y0058677D01*
X0057336Y0059300D02*
Y0058677D01*
X0057246Y0059300D02*
Y0058677D01*
X0057156Y0058323D02*
Y0057700D01*
X0057066Y0058323D02*
Y0057929D01*
X0056976Y0058323D02*
Y0057929D01*
X0056886Y0058323D02*
Y0057929D01*
X0056796Y0058323D02*
Y0057929D01*
X0057425Y0058280D02*
X0056756D01*
X0057425Y0058190D02*
X0056756D01*
X0057425Y0058100D02*
X0056756D01*
X0057425Y0058010D02*
X0056756D01*
X0057425Y0057920D02*
X0057150D01*
X0057425Y0057830D02*
X0057150D01*
X0057425Y0057740D02*
X0057150D01*
X0056756Y0058323D02*
Y0057929D01*
X0057150D02*
X0056756D01*
X0057150D02*
Y0057700D01*
X0057425D02*
X0057150D01*
X0057425Y0058323D02*
Y0057700D01*
Y0058323D02*
X0056756D01*
X0057336D02*
Y0057700D01*
X0057246Y0058323D02*
Y0057700D01*
X0055975Y0058323D02*
Y0057929D01*
X0055885Y0058323D02*
Y0057929D01*
X0055795Y0058323D02*
Y0057700D01*
X0055705Y0058323D02*
Y0057700D01*
X0055615Y0058323D02*
Y0057700D01*
X0056244Y0058280D02*
X0055575D01*
X0056244Y0058190D02*
X0055575D01*
X0056244Y0058100D02*
X0055575D01*
X0056244Y0058010D02*
X0055575D01*
X0055850Y0057920D02*
X0055575D01*
X0055850Y0057830D02*
X0055575D01*
X0055850Y0057740D02*
X0055575D01*
X0056244Y0058323D02*
Y0057929D01*
X0055850D01*
Y0057700D01*
X0055575D01*
Y0058323D02*
Y0057700D01*
X0056244Y0058323D02*
X0055575D01*
X0056155D02*
Y0057929D01*
X0056065Y0058323D02*
Y0057929D01*
X0055975Y0059069D02*
Y0058675D01*
X0055885Y0059069D02*
Y0058675D01*
X0055795Y0059298D02*
Y0058675D01*
X0055705Y0059298D02*
Y0058675D01*
X0055615Y0059298D02*
Y0058675D01*
X0055851Y0059255D02*
X0055575D01*
X0055851Y0059165D02*
X0055575D01*
X0055851Y0059075D02*
X0055575D01*
X0056245Y0058985D02*
X0055575D01*
X0056245Y0058895D02*
X0055575D01*
X0056245Y0058805D02*
X0055575D01*
X0056245Y0058715D02*
X0055575D01*
X0056245Y0058675D02*
X0055575D01*
Y0059298D02*
Y0058675D01*
X0055851Y0059298D02*
X0055575D01*
X0055851D02*
Y0059069D01*
X0056245D02*
X0055851D01*
X0056245D02*
Y0058675D01*
X0056155Y0059069D02*
Y0058675D01*
X0056065Y0059069D02*
Y0058675D01*
X0077225Y0056823D02*
Y0056429D01*
X0077135Y0056823D02*
Y0056429D01*
X0077045Y0056823D02*
Y0056200D01*
X0076955Y0056823D02*
Y0056200D01*
X0076865Y0056823D02*
Y0056200D01*
X0077494Y0056780D02*
X0076825D01*
X0077494Y0056690D02*
X0076825D01*
X0077494Y0056600D02*
X0076825D01*
X0077494Y0056510D02*
X0076825D01*
X0077100Y0056420D02*
X0076825D01*
X0077100Y0056330D02*
X0076825D01*
X0077100Y0056240D02*
X0076825D01*
X0077494Y0056429D02*
X0077100D01*
Y0056200D01*
X0076825D01*
Y0056823D02*
Y0056200D01*
X0077494Y0056823D02*
X0076825D01*
X0077494D02*
Y0056429D01*
X0077405Y0056823D02*
Y0056429D01*
X0077315Y0056823D02*
Y0056429D01*
X0077225Y0057571D02*
Y0057177D01*
X0077135Y0057571D02*
Y0057177D01*
X0077045Y0057800D02*
Y0057177D01*
X0076955Y0057800D02*
Y0057177D01*
X0076865Y0057800D02*
Y0057177D01*
X0077100Y0057757D02*
X0076825D01*
X0077100Y0057667D02*
X0076825D01*
X0077100Y0057577D02*
X0076825D01*
X0077494Y0057487D02*
X0076825D01*
X0077494Y0057397D02*
X0076825D01*
X0077494Y0057307D02*
X0076825D01*
X0077494Y0057217D02*
X0076825D01*
X0077494Y0057571D02*
Y0057177D01*
Y0057571D02*
X0077100D01*
Y0057800D02*
Y0057571D01*
Y0057800D02*
X0076825D01*
Y0057177D01*
X0077494D02*
X0076825D01*
X0077405Y0057571D02*
Y0057177D01*
X0077315Y0057571D02*
Y0057177D01*
X0078406Y0057800D02*
Y0057177D01*
X0078316Y0057571D02*
Y0057177D01*
X0078226Y0057571D02*
Y0057177D01*
X0078136Y0057571D02*
Y0057177D01*
X0078046Y0057571D02*
Y0057177D01*
X0078675Y0057757D02*
X0078400D01*
X0078675Y0057667D02*
X0078400D01*
X0078675Y0057577D02*
X0078400D01*
X0078675Y0057487D02*
X0078006D01*
X0078675Y0057397D02*
X0078006D01*
X0078675Y0057307D02*
X0078006D01*
X0078675Y0057217D02*
X0078006D01*
Y0057571D02*
Y0057177D01*
X0078400Y0057571D02*
X0078006D01*
X0078400Y0057800D02*
Y0057571D01*
X0078675Y0057800D02*
X0078400D01*
X0078675D02*
Y0057177D01*
X0078006D01*
X0078586Y0057800D02*
Y0057177D01*
X0078496Y0057800D02*
Y0057177D01*
X0078405Y0056825D02*
Y0056202D01*
X0078315Y0056825D02*
Y0056431D01*
X0078225Y0056825D02*
Y0056431D01*
X0078135Y0056825D02*
Y0056431D01*
X0078045Y0056825D02*
Y0056431D01*
X0078675Y0056782D02*
X0078005D01*
X0078675Y0056692D02*
X0078005D01*
X0078675Y0056602D02*
X0078005D01*
X0078675Y0056512D02*
X0078005D01*
X0078675Y0056422D02*
X0078399D01*
X0078675Y0056332D02*
X0078399D01*
X0078675Y0056242D02*
X0078399D01*
X0078675Y0056825D02*
X0078005D01*
X0078675D02*
Y0056202D01*
X0078399D01*
Y0056431D02*
Y0056202D01*
Y0056431D02*
X0078005D01*
Y0056825D02*
Y0056431D01*
X0078585Y0056825D02*
Y0056202D01*
X0078495Y0056825D02*
Y0056202D01*
X0043156Y0057800D02*
Y0057177D01*
X0043066Y0057571D02*
Y0057177D01*
X0042976Y0057571D02*
Y0057177D01*
X0042886Y0057571D02*
Y0057177D01*
X0042796Y0057571D02*
Y0057177D01*
X0043425Y0057757D02*
X0043150D01*
X0043425Y0057667D02*
X0043150D01*
X0043425Y0057577D02*
X0043150D01*
X0043425Y0057487D02*
X0042756D01*
X0043425Y0057397D02*
X0042756D01*
X0043425Y0057307D02*
X0042756D01*
X0043425Y0057217D02*
X0042756D01*
X0043150Y0057571D02*
X0042756D01*
X0043150Y0057800D02*
Y0057571D01*
X0043425Y0057800D02*
X0043150D01*
X0043425D02*
Y0057177D01*
X0042756D01*
Y0057571D02*
Y0057177D01*
X0043336Y0057800D02*
Y0057177D01*
X0043246Y0057800D02*
Y0057177D01*
X0043156Y0056823D02*
Y0056200D01*
X0043066Y0056823D02*
Y0056429D01*
X0042976Y0056823D02*
Y0056429D01*
X0042886Y0056823D02*
Y0056429D01*
X0042796Y0056823D02*
Y0056429D01*
X0043425Y0056780D02*
X0042756D01*
X0043425Y0056690D02*
X0042756D01*
X0043425Y0056600D02*
X0042756D01*
X0043425Y0056510D02*
X0042756D01*
X0043425Y0056420D02*
X0043150D01*
X0043425Y0056330D02*
X0043150D01*
X0043425Y0056240D02*
X0043150D01*
X0042756Y0056823D02*
Y0056429D01*
X0043150D02*
X0042756D01*
X0043150D02*
Y0056200D01*
X0043425D02*
X0043150D01*
X0043425Y0056823D02*
Y0056200D01*
Y0056823D02*
X0042756D01*
X0043336D02*
Y0056200D01*
X0043246Y0056823D02*
Y0056200D01*
X0041975Y0056823D02*
Y0056429D01*
X0041885Y0056823D02*
Y0056429D01*
X0041795Y0056823D02*
Y0056200D01*
X0041705Y0056823D02*
Y0056200D01*
X0041615Y0056823D02*
Y0056200D01*
X0042244Y0056780D02*
X0041575D01*
X0042244Y0056690D02*
X0041575D01*
X0042244Y0056600D02*
X0041575D01*
X0042244Y0056510D02*
X0041575D01*
X0041850Y0056420D02*
X0041575D01*
X0041850Y0056330D02*
X0041575D01*
X0041850Y0056240D02*
X0041575D01*
X0042244Y0056823D02*
Y0056429D01*
X0041850D01*
Y0056200D01*
X0041575D01*
Y0056823D02*
Y0056200D01*
X0042244Y0056823D02*
X0041575D01*
X0042155D02*
Y0056429D01*
X0042065Y0056823D02*
Y0056429D01*
X0041975Y0057569D02*
Y0057175D01*
X0041885Y0057569D02*
Y0057175D01*
X0041795Y0057798D02*
Y0057175D01*
X0041705Y0057798D02*
Y0057175D01*
X0041615Y0057798D02*
Y0057175D01*
X0041851Y0057755D02*
X0041575D01*
X0041851Y0057665D02*
X0041575D01*
X0041851Y0057575D02*
X0041575D01*
X0042245Y0057485D02*
X0041575D01*
X0042245Y0057395D02*
X0041575D01*
X0042245Y0057305D02*
X0041575D01*
X0042245Y0057215D02*
X0041575D01*
X0042245Y0057175D02*
X0041575D01*
Y0057798D02*
Y0057175D01*
X0041851Y0057798D02*
X0041575D01*
X0041851D02*
Y0057569D01*
X0042245D02*
X0041851D01*
X0042245D02*
Y0057175D01*
X0042155Y0057569D02*
Y0057175D01*
X0042065Y0057569D02*
Y0057175D01*
X0066656Y0060050D02*
Y0059427D01*
X0066566Y0059821D02*
Y0059427D01*
X0066476Y0059821D02*
Y0059427D01*
X0066386Y0059821D02*
Y0059427D01*
X0066296Y0059821D02*
Y0059427D01*
X0066925Y0060007D02*
X0066650D01*
X0066925Y0059917D02*
X0066650D01*
X0066925Y0059827D02*
X0066650D01*
X0066925Y0059737D02*
X0066256D01*
X0066925Y0059647D02*
X0066256D01*
X0066925Y0059557D02*
X0066256D01*
X0066925Y0059467D02*
X0066256D01*
X0066650Y0059821D02*
X0066256D01*
X0066650Y0060050D02*
Y0059821D01*
X0066925Y0060050D02*
X0066650D01*
X0066925D02*
Y0059427D01*
X0066256D01*
Y0059821D02*
Y0059427D01*
X0066836Y0060050D02*
Y0059427D01*
X0066746Y0060050D02*
Y0059427D01*
X0066656Y0059073D02*
Y0058450D01*
X0066566Y0059073D02*
Y0058679D01*
X0066476Y0059073D02*
Y0058679D01*
X0066386Y0059073D02*
Y0058679D01*
X0066296Y0059073D02*
Y0058679D01*
X0066925Y0059030D02*
X0066256D01*
X0066925Y0058940D02*
X0066256D01*
X0066925Y0058850D02*
X0066256D01*
X0066925Y0058760D02*
X0066256D01*
X0066925Y0058670D02*
X0066650D01*
X0066925Y0058580D02*
X0066650D01*
X0066925Y0058490D02*
X0066650D01*
X0066256Y0059073D02*
Y0058679D01*
X0066650D02*
X0066256D01*
X0066650D02*
Y0058450D01*
X0066925D02*
X0066650D01*
X0066925Y0059073D02*
Y0058450D01*
Y0059073D02*
X0066256D01*
X0066836D02*
Y0058450D01*
X0066746Y0059073D02*
Y0058450D01*
X0065475Y0059073D02*
Y0058679D01*
X0065385Y0059073D02*
Y0058679D01*
X0065295Y0059073D02*
Y0058450D01*
X0065205Y0059073D02*
Y0058450D01*
X0065115Y0059073D02*
Y0058450D01*
X0065744Y0059030D02*
X0065075D01*
X0065744Y0058940D02*
X0065075D01*
X0065744Y0058850D02*
X0065075D01*
X0065744Y0058760D02*
X0065075D01*
X0065350Y0058670D02*
X0065075D01*
X0065350Y0058580D02*
X0065075D01*
X0065350Y0058490D02*
X0065075D01*
X0065744Y0059073D02*
Y0058679D01*
X0065350D01*
Y0058450D01*
X0065075D01*
Y0059073D02*
Y0058450D01*
X0065744Y0059073D02*
X0065075D01*
X0065655D02*
Y0058679D01*
X0065565Y0059073D02*
Y0058679D01*
X0065475Y0059819D02*
Y0059425D01*
X0065385Y0059819D02*
Y0059425D01*
X0065295Y0060048D02*
Y0059425D01*
X0065205Y0060048D02*
Y0059425D01*
X0065115Y0060048D02*
Y0059425D01*
X0065351Y0060005D02*
X0065075D01*
X0065351Y0059915D02*
X0065075D01*
X0065351Y0059825D02*
X0065075D01*
X0065745Y0059735D02*
X0065075D01*
X0065745Y0059645D02*
X0065075D01*
X0065745Y0059555D02*
X0065075D01*
X0065745Y0059465D02*
X0065075D01*
X0065745Y0059425D02*
X0065075D01*
Y0060048D02*
Y0059425D01*
X0065351Y0060048D02*
X0065075D01*
X0065351D02*
Y0059819D01*
X0065745D02*
X0065351D01*
X0065745D02*
Y0059425D01*
X0065655Y0059819D02*
Y0059425D01*
X0065565Y0059819D02*
Y0059425D01*
G54D74*
G01X0015783Y0032320D02*
X0015537D01*
X0015765Y0032275D02*
X0015537D01*
X0015750Y0032230D02*
X0015537D01*
X0015738Y0032185D02*
X0015537D01*
X0015728Y0032140D02*
X0015537D01*
X0015722Y0032095D02*
X0015537D01*
X0015718Y0032050D02*
X0015537D01*
X0015717Y0032005D02*
X0015537D01*
X0015719Y0031960D02*
X0015537D01*
X0015723Y0031915D02*
X0015537D01*
X0015730Y0031870D02*
X0015537D01*
X0015739Y0031825D02*
X0015537D01*
X0015752Y0031780D02*
X0015537D01*
X0015767Y0031735D02*
X0015537D01*
X0015785Y0031690D02*
X0015537D01*
X0015806Y0031645D02*
X0015537D01*
X0015831Y0031600D02*
X0015537D01*
X0015859Y0031555D02*
X0015537D01*
X0015892Y0031510D02*
X0015537D01*
X0015930Y0031465D02*
X0015537D01*
X0015974Y0031420D02*
X0015537D01*
X0016026Y0031375D02*
X0015537D01*
X0016089Y0031330D02*
X0015537D01*
X0016157Y0031285D02*
X0015537D01*
X0016157Y0031240D02*
X0015537D01*
X0016157Y0031195D02*
X0015537D01*
X0016157Y0031150D02*
X0015537D01*
X0016157Y0031105D02*
X0015537D01*
X0016117Y0031312D02*
Y0031020D01*
X0016072Y0031341D02*
Y0031020D01*
X0016027Y0031374D02*
Y0031020D01*
X0015982Y0031413D02*
Y0031020D01*
X0015937Y0031458D02*
Y0031020D01*
X0015892Y0031510D02*
Y0031020D01*
X0015847Y0031573D02*
Y0031020D01*
X0015802Y0031653D02*
Y0031020D01*
X0015757Y0031763D02*
Y0031020D01*
X0015712Y0032980D02*
Y0031020D01*
X0015667Y0032980D02*
Y0031020D01*
X0015622Y0032980D02*
Y0031020D01*
X0015577Y0032970D02*
Y0031030D01*
X0015757Y0032980D02*
Y0032252D01*
X0016157Y0032950D02*
X0015554D01*
X0016157Y0032905D02*
X0015537D01*
X0016157Y0032860D02*
X0015537D01*
X0016157Y0032815D02*
X0015537D01*
X0016157Y0032770D02*
X0015537D01*
X0016157Y0032725D02*
X0015537D01*
X0016109Y0032680D02*
X0015537D01*
X0016039Y0032635D02*
X0015537D01*
X0015982Y0032590D02*
X0015537D01*
X0015935Y0032545D02*
X0015537D01*
X0015895Y0032500D02*
X0015537D01*
X0015860Y0032455D02*
X0015537D01*
X0015830Y0032410D02*
X0015537D01*
X0015805Y0032365D02*
X0015537D01*
X0016117Y0032980D02*
Y0032684D01*
X0016072Y0032980D02*
Y0032657D01*
X0016027Y0032980D02*
Y0032626D01*
X0015982Y0032980D02*
Y0032589D01*
X0015937Y0032980D02*
Y0032547D01*
X0015892Y0032980D02*
Y0032496D01*
X0015847Y0032980D02*
Y0032435D01*
X0015802Y0032980D02*
Y0032359D01*
X0016157Y0031060D02*
X0015547D01*
X0016157Y0032710D02*
X0016147Y0032700D01*
X0016157Y0032980D02*
Y0032710D01*
Y0032980D02*
X0015617D01*
X0015615D01*
X0015537Y0032900D02*
Y0031100D01*
Y0031098D01*
X0016157Y0031020D02*
X0015617D01*
X0016157Y0031290D02*
Y0031020D01*
X0015717Y0032005D02*
Y0032000D01*
X0017478Y0032323D02*
X0017226D01*
X0017478Y0032278D02*
X0017245D01*
X0017478Y0032233D02*
X0017260D01*
X0017478Y0032188D02*
X0017273D01*
X0017478Y0032143D02*
X0017283D01*
X0017478Y0032098D02*
X0017291D01*
X0017478Y0032053D02*
X0017296D01*
X0017478Y0032008D02*
X0017298D01*
X0017478Y0031963D02*
X0017298D01*
X0017478Y0031918D02*
X0017294D01*
X0017478Y0031873D02*
X0017288D01*
X0017478Y0031828D02*
X0017280D01*
X0017478Y0031783D02*
X0017268D01*
X0017478Y0031738D02*
X0017254D01*
X0017478Y0031693D02*
X0017236D01*
X0017478Y0031648D02*
X0017215D01*
X0017478Y0031603D02*
X0017191D01*
X0017478Y0031558D02*
X0017162D01*
X0017478Y0031513D02*
X0017128D01*
X0017478Y0031468D02*
X0017090D01*
X0017478Y0031423D02*
X0017044D01*
X0017478Y0031378D02*
X0016989D01*
X0017478Y0031333D02*
X0016923D01*
X0017478Y0031288D02*
X0016858D01*
X0017478Y0031243D02*
X0016858D01*
X0017478Y0031198D02*
X0016858D01*
X0017478Y0031153D02*
X0016858D01*
X0017478Y0031108D02*
X0016858D01*
X0017438Y0032973D02*
Y0031033D01*
X0017393Y0032983D02*
Y0031023D01*
X0017348Y0032983D02*
Y0031023D01*
X0017303Y0032983D02*
Y0031023D01*
X0017258Y0031751D02*
Y0031023D01*
X0017213Y0031644D02*
Y0031023D01*
X0017168Y0031567D02*
Y0031023D01*
X0017123Y0031506D02*
Y0031023D01*
X0017078Y0031456D02*
Y0031023D01*
X0017033Y0031413D02*
Y0031023D01*
X0016988Y0031377D02*
Y0031023D01*
X0016943Y0031346D02*
Y0031023D01*
X0016898Y0031319D02*
Y0031023D01*
Y0032983D02*
Y0032690D01*
X0017461Y0032953D02*
X0016858D01*
X0017478Y0032908D02*
X0016858D01*
X0017478Y0032863D02*
X0016858D01*
X0017478Y0032818D02*
X0016858D01*
X0017478Y0032773D02*
X0016858D01*
X0017478Y0032728D02*
X0016858D01*
X0017478Y0032683D02*
X0016911D01*
X0017478Y0032638D02*
X0016976D01*
X0017478Y0032593D02*
X0017030D01*
X0017478Y0032548D02*
X0017076D01*
X0017478Y0032503D02*
X0017115D01*
X0017478Y0032458D02*
X0017149D01*
X0017478Y0032413D02*
X0017178D01*
X0017478Y0032368D02*
X0017204D01*
X0017258Y0032983D02*
Y0032239D01*
X0017213Y0032983D02*
Y0032350D01*
X0017168Y0032983D02*
Y0032429D01*
X0017123Y0032983D02*
Y0032493D01*
X0017078Y0032983D02*
Y0032545D01*
X0017033Y0032983D02*
Y0032590D01*
X0016988Y0032983D02*
Y0032628D01*
X0016943Y0032983D02*
Y0032662D01*
X0017468Y0031063D02*
X0016858D01*
X0017298Y0032003D02*
Y0031998D01*
X0016858Y0032983D02*
Y0032713D01*
X0017398Y0032983D02*
X0016858D01*
X0017400D02*
X0017398D01*
X0017478Y0032903D02*
Y0031103D01*
Y0031101D01*
X0017398Y0031023D02*
X0016858D01*
Y0031293D02*
Y0031023D01*
X0016868Y0031303D02*
X0016858Y0031293D01*
X0006713Y0021070D02*
X0006461D01*
X0006713Y0021025D02*
X0006479D01*
X0006713Y0020980D02*
X0006495D01*
X0006713Y0020935D02*
X0006508D01*
X0006713Y0020890D02*
X0006518D01*
X0006713Y0020845D02*
X0006525D01*
X0006713Y0020800D02*
X0006530D01*
X0006713Y0020755D02*
X0006533D01*
X0006713Y0020710D02*
X0006532D01*
X0006713Y0020665D02*
X0006529D01*
X0006713Y0020620D02*
X0006523D01*
X0006713Y0020575D02*
X0006514D01*
X0006713Y0020530D02*
X0006503D01*
X0006713Y0020485D02*
X0006488D01*
X0006713Y0020440D02*
X0006471D01*
X0006713Y0020395D02*
X0006450D01*
X0006713Y0020350D02*
X0006425D01*
X0006713Y0020305D02*
X0006396D01*
X0006713Y0020260D02*
X0006363D01*
X0006713Y0020215D02*
X0006324D01*
X0006713Y0020170D02*
X0006279D01*
X0006713Y0020125D02*
X0006224D01*
X0006713Y0020080D02*
X0006158D01*
X0006713Y0020035D02*
X0006093D01*
X0006713Y0019990D02*
X0006093D01*
X0006713Y0019945D02*
X0006093D01*
X0006713Y0019900D02*
X0006093D01*
X0006713Y0019855D02*
X0006093D01*
X0006673Y0021720D02*
Y0019780D01*
X0006628Y0021730D02*
Y0019770D01*
X0006583Y0021730D02*
Y0019770D01*
X0006538Y0021730D02*
Y0019770D01*
X0006493Y0020498D02*
Y0019770D01*
X0006448Y0020391D02*
Y0019770D01*
X0006403Y0020314D02*
Y0019770D01*
X0006358Y0020253D02*
Y0019770D01*
X0006313Y0020203D02*
Y0019770D01*
X0006268Y0020160D02*
Y0019770D01*
X0006223Y0020124D02*
Y0019770D01*
X0006178Y0020092D02*
Y0019770D01*
X0006133Y0020065D02*
Y0019770D01*
Y0021730D02*
Y0021437D01*
X0006696Y0021700D02*
X0006093D01*
X0006713Y0021655D02*
X0006093D01*
X0006713Y0021610D02*
X0006093D01*
X0006713Y0021565D02*
X0006093D01*
X0006713Y0021520D02*
X0006093D01*
X0006713Y0021475D02*
X0006093D01*
X0006713Y0021430D02*
X0006145D01*
X0006713Y0021385D02*
X0006211D01*
X0006713Y0021340D02*
X0006265D01*
X0006713Y0021295D02*
X0006310D01*
X0006713Y0021250D02*
X0006350D01*
X0006713Y0021205D02*
X0006384D01*
X0006713Y0021160D02*
X0006413D01*
X0006713Y0021115D02*
X0006439D01*
X0006493Y0021730D02*
Y0020986D01*
X0006448Y0021730D02*
Y0021097D01*
X0006403Y0021730D02*
Y0021176D01*
X0006358Y0021730D02*
Y0021240D01*
X0006313Y0021730D02*
Y0021292D01*
X0006268Y0021730D02*
Y0021337D01*
X0006223Y0021730D02*
Y0021375D01*
X0006178Y0021730D02*
Y0021409D01*
X0006703Y0019810D02*
X0006093D01*
X0006103Y0020050D02*
X0006093Y0020040D01*
Y0019770D01*
X0006633D02*
X0006093D01*
X0006635D02*
X0006633D01*
X0006713Y0021650D02*
Y0019850D01*
Y0021652D02*
Y0021650D01*
X0006633Y0021730D02*
X0006093D01*
Y0021460D01*
X0006533Y0020750D02*
Y0020744D01*
X0005018Y0021066D02*
X0004771D01*
X0004999Y0021021D02*
X0004771D01*
X0004984Y0020976D02*
X0004771D01*
X0004972Y0020931D02*
X0004771D01*
X0004963Y0020886D02*
X0004771D01*
X0004956Y0020841D02*
X0004771D01*
X0004952Y0020796D02*
X0004771D01*
X0004951Y0020751D02*
X0004771D01*
X0004953Y0020706D02*
X0004771D01*
X0004957Y0020661D02*
X0004771D01*
X0004964Y0020616D02*
X0004771D01*
X0004974Y0020571D02*
X0004771D01*
X0004986Y0020526D02*
X0004771D01*
X0005001Y0020481D02*
X0004771D01*
X0005019Y0020436D02*
X0004771D01*
X0005040Y0020391D02*
X0004771D01*
X0005065Y0020346D02*
X0004771D01*
X0005094Y0020301D02*
X0004771D01*
X0005127Y0020256D02*
X0004771D01*
X0005165Y0020211D02*
X0004771D01*
X0005209Y0020166D02*
X0004771D01*
X0005261Y0020121D02*
X0004771D01*
X0005323Y0020076D02*
X0004771D01*
X0005391Y0020031D02*
X0004771D01*
X0005391Y0019986D02*
X0004771D01*
X0005391Y0019941D02*
X0004771D01*
X0005391Y0019896D02*
X0004771D01*
X0005391Y0019851D02*
X0004771D01*
X0005351Y0020059D02*
Y0019767D01*
X0005306Y0020088D02*
Y0019767D01*
X0005261Y0020121D02*
Y0019767D01*
X0005216Y0020159D02*
Y0019767D01*
X0005171Y0020204D02*
Y0019767D01*
X0005126Y0020257D02*
Y0019767D01*
X0005081Y0020320D02*
Y0019767D01*
X0005036Y0020399D02*
Y0019767D01*
X0004991Y0020510D02*
Y0019767D01*
X0004946Y0021727D02*
Y0019767D01*
X0004901Y0021727D02*
Y0019767D01*
X0004856Y0021727D02*
Y0019767D01*
X0004811Y0021717D02*
Y0019776D01*
X0004991Y0021727D02*
Y0020998D01*
X0005391Y0021696D02*
X0004788D01*
X0005391Y0021651D02*
X0004771D01*
X0005391Y0021606D02*
X0004771D01*
X0005391Y0021561D02*
X0004771D01*
X0005391Y0021516D02*
X0004771D01*
X0005391Y0021471D02*
X0004771D01*
X0005343Y0021426D02*
X0004771D01*
X0005273Y0021381D02*
X0004771D01*
X0005216Y0021336D02*
X0004771D01*
X0005169Y0021291D02*
X0004771D01*
X0005129Y0021246D02*
X0004771D01*
X0005094Y0021201D02*
X0004771D01*
X0005065Y0021156D02*
X0004771D01*
X0005039Y0021111D02*
X0004771D01*
X0005351Y0021727D02*
Y0021431D01*
X0005306Y0021727D02*
Y0021404D01*
X0005261Y0021727D02*
Y0021373D01*
X0005216Y0021727D02*
Y0021336D01*
X0005171Y0021727D02*
Y0021293D01*
X0005126Y0021727D02*
Y0021243D01*
X0005081Y0021727D02*
Y0021182D01*
X0005036Y0021727D02*
Y0021105D01*
X0005391Y0019806D02*
X0004781D01*
X0004951Y0020752D02*
Y0020747D01*
X0005391Y0020037D02*
Y0019767D01*
X0004851D01*
X0004850Y0019766D01*
X0004771Y0021647D02*
Y0019847D01*
Y0021648D02*
Y0021647D01*
X0005391Y0021727D02*
X0004851D01*
X0005391D02*
Y0021457D01*
X0005381Y0021447D01*
G01X0015615Y0032980D02*
G03X0015537Y0032902I0000000J0000078D01*
G03X0015537Y0032900I0000078J0000000D01*
Y0031098D02*
G03X0015615Y0031020I0000078J0000000D01*
G03X0015617Y0031020I0000000J0000078D01*
G01X0015717Y0032000D02*
G03X0016157Y0031290I0000820J0000017D01*
G01X0016147Y0032700D02*
G03X0015717Y0032005I0000346J0000695D01*
G01X0016868Y0031303D02*
G03X0017299Y0031998I0000345J0000695D01*
G01X0017298Y0032003D02*
G03X0016858Y0032713I0000820J0000017D01*
G01X0017478Y0032905D02*
G03X0017400Y0032983I0000078J0000000D01*
G01X0017478Y0032903D02*
G03X0017478Y0032905I0000078J0000002D01*
G01X0017400Y0031023D02*
G03X0017478Y0031101I0000000J0000078D01*
G01X0017398Y0031023D02*
G03X0017400Y0031023I0000002J0000078D01*
G01X0006635Y0019770D02*
G03X0006713Y0019848I0000000J0000078D01*
G03X0006713Y0019850I0000078J0000000D01*
Y0021652D02*
G03X0006635Y0021730I0000078J0000000D01*
G03X0006633Y0021730I0000000J0000078D01*
G01X0006533Y0020750D02*
G03X0006093Y0021460I0000820J0000017D01*
G01X0006103Y0020050D02*
G03X0006532Y0020744I0000346J0000694D01*
G01X0005381Y0021447D02*
G03X0004951Y0020752I0000346J0000695D01*
Y0020747D02*
G03X0005391Y0020037I0000821J0000017D01*
G01X0004771Y0019845D02*
G03X0004850Y0019766I0000079J0000000D01*
G01X0004771Y0019847D02*
G03X0004771Y0019845I0000079J0000002D01*
G01X0004850Y0021727D02*
G03X0004771Y0021648I0000000J0000079D01*
G01X0004851Y0021727D02*
G03X0004850Y0021727I0000001J0000079D01*
G54D81*
G01X0033998Y0035900D02*
Y0034500D01*
X0033944Y0035900D02*
Y0034500D01*
X0033890Y0035900D02*
Y0034500D01*
X0035100Y0035890D02*
X0033850D01*
X0035100Y0035836D02*
X0033850D01*
X0035100Y0035782D02*
X0033850D01*
X0035100Y0035728D02*
X0033850D01*
X0035100Y0035674D02*
X0033850D01*
X0035100Y0035620D02*
X0033850D01*
X0035100Y0035566D02*
X0033850D01*
X0035100Y0035512D02*
X0033850D01*
X0035100Y0035458D02*
X0033850D01*
X0035100Y0035404D02*
X0033850D01*
X0035100Y0035350D02*
X0033850D01*
X0035100Y0035296D02*
X0033850D01*
X0035100Y0035242D02*
X0033850D01*
X0035100Y0035188D02*
X0033850D01*
X0035100Y0035134D02*
X0033850D01*
X0035100Y0035080D02*
X0033850D01*
X0035100Y0035026D02*
X0033850D01*
X0035100Y0034972D02*
X0033850D01*
X0035100Y0034918D02*
X0033850D01*
X0035100Y0034864D02*
X0033850D01*
X0035100Y0034810D02*
X0033850D01*
X0035100Y0034756D02*
X0033850D01*
X0035100Y0034702D02*
X0033850D01*
X0035100Y0034648D02*
X0033850D01*
X0035100Y0034594D02*
X0033850D01*
X0035100Y0034540D02*
X0033850D01*
X0035100Y0034500D02*
X0033850D01*
X0035100Y0035900D02*
Y0034500D01*
Y0035900D02*
X0033850D01*
Y0034500D01*
X0035078Y0035900D02*
Y0034500D01*
X0035024Y0035900D02*
Y0034500D01*
X0034970Y0035900D02*
Y0034500D01*
X0034916Y0035900D02*
Y0034500D01*
X0034862Y0035900D02*
Y0034500D01*
X0034808Y0035900D02*
Y0034500D01*
X0034754Y0035900D02*
Y0034500D01*
X0034700Y0035900D02*
Y0034500D01*
X0034646Y0035900D02*
Y0034500D01*
X0034592Y0035900D02*
Y0034500D01*
X0034538Y0035900D02*
Y0034500D01*
X0034484Y0035900D02*
Y0034500D01*
X0034430Y0035900D02*
Y0034500D01*
X0034376Y0035900D02*
Y0034500D01*
X0034322Y0035900D02*
Y0034500D01*
X0034268Y0035900D02*
Y0034500D01*
X0034214Y0035900D02*
Y0034500D01*
X0034160Y0035900D02*
Y0034500D01*
X0034106Y0035900D02*
Y0034500D01*
X0034052Y0035900D02*
Y0034500D01*
X0032548Y0037500D02*
Y0036100D01*
X0032494Y0037500D02*
Y0036100D01*
X0032440Y0037500D02*
Y0036100D01*
X0033650Y0037490D02*
X0032400D01*
X0033650Y0037436D02*
X0032400D01*
X0033650Y0037382D02*
X0032400D01*
X0033650Y0037328D02*
X0032400D01*
X0033650Y0037274D02*
X0032400D01*
X0033650Y0037220D02*
X0032400D01*
X0033650Y0037166D02*
X0032400D01*
X0033650Y0037112D02*
X0032400D01*
X0033650Y0037058D02*
X0032400D01*
X0033650Y0037004D02*
X0032400D01*
X0033650Y0036950D02*
X0032400D01*
X0033650Y0036896D02*
X0032400D01*
X0033650Y0036842D02*
X0032400D01*
X0033650Y0036788D02*
X0032400D01*
X0033650Y0036734D02*
X0032400D01*
X0033650Y0036680D02*
X0032400D01*
X0033650Y0036626D02*
X0032400D01*
X0033650Y0036572D02*
X0032400D01*
X0033650Y0036518D02*
X0032400D01*
X0033650Y0036464D02*
X0032400D01*
X0033650Y0036410D02*
X0032400D01*
X0033650Y0036356D02*
X0032400D01*
X0033650Y0036302D02*
X0032400D01*
X0033650Y0036248D02*
X0032400D01*
X0033650Y0036194D02*
X0032400D01*
X0033650Y0036140D02*
X0032400D01*
Y0036150D02*
Y0036100D01*
X0033650D02*
X0032400D01*
X0033650Y0037500D02*
Y0036100D01*
Y0037500D02*
X0032400D01*
Y0036150D01*
X0033628Y0037500D02*
Y0036100D01*
X0033574Y0037500D02*
Y0036100D01*
X0033520Y0037500D02*
Y0036100D01*
X0033466Y0037500D02*
Y0036100D01*
X0033412Y0037500D02*
Y0036100D01*
X0033358Y0037500D02*
Y0036100D01*
X0033304Y0037500D02*
Y0036100D01*
X0033250Y0037500D02*
Y0036100D01*
X0033196Y0037500D02*
Y0036100D01*
X0033142Y0037500D02*
Y0036100D01*
X0033088Y0037500D02*
Y0036100D01*
X0033034Y0037500D02*
Y0036100D01*
X0032980Y0037500D02*
Y0036100D01*
X0032926Y0037500D02*
Y0036100D01*
X0032872Y0037500D02*
Y0036100D01*
X0032818Y0037500D02*
Y0036100D01*
X0032764Y0037500D02*
Y0036100D01*
X0032710Y0037500D02*
Y0036100D01*
X0032656Y0037500D02*
Y0036100D01*
X0032602Y0037500D02*
Y0036100D01*
X0033998Y0037500D02*
Y0036100D01*
X0033944Y0037500D02*
Y0036100D01*
X0033890Y0037500D02*
Y0036100D01*
X0035100Y0037490D02*
X0033850D01*
X0035100Y0037436D02*
X0033850D01*
X0035100Y0037382D02*
X0033850D01*
X0035100Y0037328D02*
X0033850D01*
X0035100Y0037274D02*
X0033850D01*
X0035100Y0037220D02*
X0033850D01*
X0035100Y0037166D02*
X0033850D01*
X0035100Y0037112D02*
X0033850D01*
X0035100Y0037058D02*
X0033850D01*
X0035100Y0037004D02*
X0033850D01*
X0035100Y0036950D02*
X0033850D01*
X0035100Y0036896D02*
X0033850D01*
X0035100Y0036842D02*
X0033850D01*
X0035100Y0036788D02*
X0033850D01*
X0035100Y0036734D02*
X0033850D01*
X0035100Y0036680D02*
X0033850D01*
X0035100Y0036626D02*
X0033850D01*
X0035100Y0036572D02*
X0033850D01*
X0035100Y0036518D02*
X0033850D01*
X0035100Y0036464D02*
X0033850D01*
X0035100Y0036410D02*
X0033850D01*
X0035100Y0036356D02*
X0033850D01*
X0035100Y0036302D02*
X0033850D01*
X0035100Y0036248D02*
X0033850D01*
X0035100Y0036194D02*
X0033850D01*
X0035100Y0036140D02*
X0033850D01*
Y0036150D02*
Y0036100D01*
X0035100D02*
X0033850D01*
X0035100Y0037500D02*
Y0036100D01*
Y0037500D02*
X0033850D01*
Y0036150D01*
X0035078Y0037500D02*
Y0036100D01*
X0035024Y0037500D02*
Y0036100D01*
X0034970Y0037500D02*
Y0036100D01*
X0034916Y0037500D02*
Y0036100D01*
X0034862Y0037500D02*
Y0036100D01*
X0034808Y0037500D02*
Y0036100D01*
X0034754Y0037500D02*
Y0036100D01*
X0034700Y0037500D02*
Y0036100D01*
X0034646Y0037500D02*
Y0036100D01*
X0034592Y0037500D02*
Y0036100D01*
X0034538Y0037500D02*
Y0036100D01*
X0034484Y0037500D02*
Y0036100D01*
X0034430Y0037500D02*
Y0036100D01*
X0034376Y0037500D02*
Y0036100D01*
X0034322Y0037500D02*
Y0036100D01*
X0034268Y0037500D02*
Y0036100D01*
X0034214Y0037500D02*
Y0036100D01*
X0034160Y0037500D02*
Y0036100D01*
X0034106Y0037500D02*
Y0036100D01*
X0034052Y0037500D02*
Y0036100D01*
X0032548Y0035900D02*
Y0034500D01*
X0032494Y0035900D02*
Y0034500D01*
X0032440Y0035900D02*
Y0034500D01*
X0033650Y0035890D02*
X0032400D01*
X0033650Y0035836D02*
X0032400D01*
X0033650Y0035782D02*
X0032400D01*
X0033650Y0035728D02*
X0032400D01*
X0033650Y0035674D02*
X0032400D01*
X0033650Y0035620D02*
X0032400D01*
X0033650Y0035566D02*
X0032400D01*
X0033650Y0035512D02*
X0032400D01*
X0033650Y0035458D02*
X0032400D01*
X0033650Y0035404D02*
X0032400D01*
X0033650Y0035350D02*
X0032400D01*
X0033650Y0035296D02*
X0032400D01*
X0033650Y0035242D02*
X0032400D01*
X0033650Y0035188D02*
X0032400D01*
X0033650Y0035134D02*
X0032400D01*
X0033650Y0035080D02*
X0032400D01*
X0033650Y0035026D02*
X0032400D01*
X0033650Y0034972D02*
X0032400D01*
X0033650Y0034918D02*
X0032400D01*
X0033650Y0034864D02*
X0032400D01*
X0033650Y0034810D02*
X0032400D01*
X0033650Y0034756D02*
X0032400D01*
X0033650Y0034702D02*
X0032400D01*
X0033650Y0034648D02*
X0032400D01*
X0033650Y0034594D02*
X0032400D01*
X0033650Y0034540D02*
X0032400D01*
Y0035900D02*
Y0034500D01*
X0033650Y0035900D02*
X0032400D01*
X0033650D02*
Y0034500D01*
X0032400D01*
X0033628Y0035900D02*
Y0034500D01*
X0033574Y0035900D02*
Y0034500D01*
X0033520Y0035900D02*
Y0034500D01*
X0033466Y0035900D02*
Y0034500D01*
X0033412Y0035900D02*
Y0034500D01*
X0033358Y0035900D02*
Y0034500D01*
X0033304Y0035900D02*
Y0034500D01*
X0033250Y0035900D02*
Y0034500D01*
X0033196Y0035900D02*
Y0034500D01*
X0033142Y0035900D02*
Y0034500D01*
X0033088Y0035900D02*
Y0034500D01*
X0033034Y0035900D02*
Y0034500D01*
X0032980Y0035900D02*
Y0034500D01*
X0032926Y0035900D02*
Y0034500D01*
X0032872Y0035900D02*
Y0034500D01*
X0032818Y0035900D02*
Y0034500D01*
X0032764Y0035900D02*
Y0034500D01*
X0032710Y0035900D02*
Y0034500D01*
X0032656Y0035900D02*
Y0034500D01*
X0032602Y0035900D02*
Y0034500D01*
X0023048Y0037500D02*
Y0036100D01*
X0022994Y0037500D02*
Y0036100D01*
X0022940Y0037500D02*
Y0036100D01*
X0024150Y0037490D02*
X0022900D01*
X0024150Y0037436D02*
X0022900D01*
X0024150Y0037382D02*
X0022900D01*
X0024150Y0037328D02*
X0022900D01*
X0024150Y0037274D02*
X0022900D01*
X0024150Y0037220D02*
X0022900D01*
X0024150Y0037166D02*
X0022900D01*
X0024150Y0037112D02*
X0022900D01*
X0024150Y0037058D02*
X0022900D01*
X0024150Y0037004D02*
X0022900D01*
X0024150Y0036950D02*
X0022900D01*
X0024150Y0036896D02*
X0022900D01*
X0024150Y0036842D02*
X0022900D01*
X0024150Y0036788D02*
X0022900D01*
X0024150Y0036734D02*
X0022900D01*
X0024150Y0036680D02*
X0022900D01*
X0024150Y0036626D02*
X0022900D01*
X0024150Y0036572D02*
X0022900D01*
X0024150Y0036518D02*
X0022900D01*
X0024150Y0036464D02*
X0022900D01*
X0024150Y0036410D02*
X0022900D01*
X0024150Y0036356D02*
X0022900D01*
X0024150Y0036302D02*
X0022900D01*
X0024150Y0036248D02*
X0022900D01*
X0024150Y0036194D02*
X0022900D01*
X0024150Y0036140D02*
X0022900D01*
Y0036150D02*
Y0036100D01*
X0024150D02*
X0022900D01*
X0024150Y0037500D02*
Y0036100D01*
Y0037500D02*
X0022900D01*
Y0036150D01*
X0024128Y0037500D02*
Y0036100D01*
X0024074Y0037500D02*
Y0036100D01*
X0024020Y0037500D02*
Y0036100D01*
X0023966Y0037500D02*
Y0036100D01*
X0023912Y0037500D02*
Y0036100D01*
X0023858Y0037500D02*
Y0036100D01*
X0023804Y0037500D02*
Y0036100D01*
X0023750Y0037500D02*
Y0036100D01*
X0023696Y0037500D02*
Y0036100D01*
X0023642Y0037500D02*
Y0036100D01*
X0023588Y0037500D02*
Y0036100D01*
X0023534Y0037500D02*
Y0036100D01*
X0023480Y0037500D02*
Y0036100D01*
X0023426Y0037500D02*
Y0036100D01*
X0023372Y0037500D02*
Y0036100D01*
X0023318Y0037500D02*
Y0036100D01*
X0023264Y0037500D02*
Y0036100D01*
X0023210Y0037500D02*
Y0036100D01*
X0023156Y0037500D02*
Y0036100D01*
X0023102Y0037500D02*
Y0036100D01*
X0024498Y0037500D02*
Y0036100D01*
X0024444Y0037500D02*
Y0036100D01*
X0024390Y0037500D02*
Y0036100D01*
X0025600Y0037490D02*
X0024350D01*
X0025600Y0037436D02*
X0024350D01*
X0025600Y0037382D02*
X0024350D01*
X0025600Y0037328D02*
X0024350D01*
X0025600Y0037274D02*
X0024350D01*
X0025600Y0037220D02*
X0024350D01*
X0025600Y0037166D02*
X0024350D01*
X0025600Y0037112D02*
X0024350D01*
X0025600Y0037058D02*
X0024350D01*
X0025600Y0037004D02*
X0024350D01*
X0025600Y0036950D02*
X0024350D01*
X0025600Y0036896D02*
X0024350D01*
X0025600Y0036842D02*
X0024350D01*
X0025600Y0036788D02*
X0024350D01*
X0025600Y0036734D02*
X0024350D01*
X0025600Y0036680D02*
X0024350D01*
X0025600Y0036626D02*
X0024350D01*
X0025600Y0036572D02*
X0024350D01*
X0025600Y0036518D02*
X0024350D01*
X0025600Y0036464D02*
X0024350D01*
X0025600Y0036410D02*
X0024350D01*
X0025600Y0036356D02*
X0024350D01*
X0025600Y0036302D02*
X0024350D01*
X0025600Y0036248D02*
X0024350D01*
X0025600Y0036194D02*
X0024350D01*
X0025600Y0036140D02*
X0024350D01*
Y0036150D02*
Y0036100D01*
X0025600D02*
X0024350D01*
X0025600Y0037500D02*
Y0036100D01*
Y0037500D02*
X0024350D01*
Y0036150D01*
X0025578Y0037500D02*
Y0036100D01*
X0025524Y0037500D02*
Y0036100D01*
X0025470Y0037500D02*
Y0036100D01*
X0025416Y0037500D02*
Y0036100D01*
X0025362Y0037500D02*
Y0036100D01*
X0025308Y0037500D02*
Y0036100D01*
X0025254Y0037500D02*
Y0036100D01*
X0025200Y0037500D02*
Y0036100D01*
X0025146Y0037500D02*
Y0036100D01*
X0025092Y0037500D02*
Y0036100D01*
X0025038Y0037500D02*
Y0036100D01*
X0024984Y0037500D02*
Y0036100D01*
X0024930Y0037500D02*
Y0036100D01*
X0024876Y0037500D02*
Y0036100D01*
X0024822Y0037500D02*
Y0036100D01*
X0024768Y0037500D02*
Y0036100D01*
X0024714Y0037500D02*
Y0036100D01*
X0024660Y0037500D02*
Y0036100D01*
X0024606Y0037500D02*
Y0036100D01*
X0024552Y0037500D02*
Y0036100D01*
X0023048Y0035900D02*
Y0034500D01*
X0022994Y0035900D02*
Y0034500D01*
X0022940Y0035900D02*
Y0034500D01*
X0024150Y0035890D02*
X0022900D01*
X0024150Y0035836D02*
X0022900D01*
X0024150Y0035782D02*
X0022900D01*
X0024150Y0035728D02*
X0022900D01*
X0024150Y0035674D02*
X0022900D01*
X0024150Y0035620D02*
X0022900D01*
X0024150Y0035566D02*
X0022900D01*
X0024150Y0035512D02*
X0022900D01*
X0024150Y0035458D02*
X0022900D01*
X0024150Y0035404D02*
X0022900D01*
X0024150Y0035350D02*
X0022900D01*
X0024150Y0035296D02*
X0022900D01*
X0024150Y0035242D02*
X0022900D01*
X0024150Y0035188D02*
X0022900D01*
X0024150Y0035134D02*
X0022900D01*
X0024150Y0035080D02*
X0022900D01*
X0024150Y0035026D02*
X0022900D01*
X0024150Y0034972D02*
X0022900D01*
X0024150Y0034918D02*
X0022900D01*
X0024150Y0034864D02*
X0022900D01*
X0024150Y0034810D02*
X0022900D01*
X0024150Y0034756D02*
X0022900D01*
X0024150Y0034702D02*
X0022900D01*
X0024150Y0034648D02*
X0022900D01*
X0024150Y0034594D02*
X0022900D01*
X0024150Y0034540D02*
X0022900D01*
Y0035900D02*
Y0034500D01*
X0024150Y0035900D02*
X0022900D01*
X0024150D02*
Y0034500D01*
X0022900D01*
X0024128Y0035900D02*
Y0034500D01*
X0024074Y0035900D02*
Y0034500D01*
X0024020Y0035900D02*
Y0034500D01*
X0023966Y0035900D02*
Y0034500D01*
X0023912Y0035900D02*
Y0034500D01*
X0023858Y0035900D02*
Y0034500D01*
X0023804Y0035900D02*
Y0034500D01*
X0023750Y0035900D02*
Y0034500D01*
X0023696Y0035900D02*
Y0034500D01*
X0023642Y0035900D02*
Y0034500D01*
X0023588Y0035900D02*
Y0034500D01*
X0023534Y0035900D02*
Y0034500D01*
X0023480Y0035900D02*
Y0034500D01*
X0023426Y0035900D02*
Y0034500D01*
X0023372Y0035900D02*
Y0034500D01*
X0023318Y0035900D02*
Y0034500D01*
X0023264Y0035900D02*
Y0034500D01*
X0023210Y0035900D02*
Y0034500D01*
X0023156Y0035900D02*
Y0034500D01*
X0023102Y0035900D02*
Y0034500D01*
X0024498Y0035900D02*
Y0034500D01*
X0024444Y0035900D02*
Y0034500D01*
X0024390Y0035900D02*
Y0034500D01*
X0025600Y0035890D02*
X0024350D01*
X0025600Y0035836D02*
X0024350D01*
X0025600Y0035782D02*
X0024350D01*
X0025600Y0035728D02*
X0024350D01*
X0025600Y0035674D02*
X0024350D01*
X0025600Y0035620D02*
X0024350D01*
X0025600Y0035566D02*
X0024350D01*
X0025600Y0035512D02*
X0024350D01*
X0025600Y0035458D02*
X0024350D01*
X0025600Y0035404D02*
X0024350D01*
X0025600Y0035350D02*
X0024350D01*
X0025600Y0035296D02*
X0024350D01*
X0025600Y0035242D02*
X0024350D01*
X0025600Y0035188D02*
X0024350D01*
X0025600Y0035134D02*
X0024350D01*
X0025600Y0035080D02*
X0024350D01*
X0025600Y0035026D02*
X0024350D01*
X0025600Y0034972D02*
X0024350D01*
X0025600Y0034918D02*
X0024350D01*
X0025600Y0034864D02*
X0024350D01*
X0025600Y0034810D02*
X0024350D01*
X0025600Y0034756D02*
X0024350D01*
X0025600Y0034702D02*
X0024350D01*
X0025600Y0034648D02*
X0024350D01*
X0025600Y0034594D02*
X0024350D01*
X0025600Y0034540D02*
X0024350D01*
X0025600Y0034500D02*
X0024350D01*
X0025600Y0035900D02*
Y0034500D01*
Y0035900D02*
X0024350D01*
Y0034500D01*
X0025578Y0035900D02*
Y0034500D01*
X0025524Y0035900D02*
Y0034500D01*
X0025470Y0035900D02*
Y0034500D01*
X0025416Y0035900D02*
Y0034500D01*
X0025362Y0035900D02*
Y0034500D01*
X0025308Y0035900D02*
Y0034500D01*
X0025254Y0035900D02*
Y0034500D01*
X0025200Y0035900D02*
Y0034500D01*
X0025146Y0035900D02*
Y0034500D01*
X0025092Y0035900D02*
Y0034500D01*
X0025038Y0035900D02*
Y0034500D01*
X0024984Y0035900D02*
Y0034500D01*
X0024930Y0035900D02*
Y0034500D01*
X0024876Y0035900D02*
Y0034500D01*
X0024822Y0035900D02*
Y0034500D01*
X0024768Y0035900D02*
Y0034500D01*
X0024714Y0035900D02*
Y0034500D01*
X0024660Y0035900D02*
Y0034500D01*
X0024606Y0035900D02*
Y0034500D01*
X0024552Y0035900D02*
Y0034500D01*
G54D13*
X0017500Y0022850D03*
Y0023650D03*
X0006000Y0037600D03*
Y0038400D03*
X0015000Y0022850D03*
Y0023650D03*
X0014250D03*
Y0022850D03*
Y0022150D03*
Y0021350D03*
X0017250Y0029400D03*
Y0028600D03*
X0016500Y0029400D03*
Y0028600D03*
X0017750Y0017150D03*
Y0016350D03*
X0021500Y0020400D03*
Y0019600D03*
X0029000D03*
Y0020400D03*
X0022250Y0019600D03*
Y0020400D03*
X0023250Y0018900D03*
Y0018100D03*
X0017000Y0042150D03*
Y0041350D03*
X0037500Y0058850D03*
Y0059650D03*
X0024500Y0018100D03*
Y0018900D03*
X0013500Y0018350D03*
Y0019150D03*
X0016750Y0022850D03*
Y0023650D03*
X0006000Y0040150D03*
Y0039350D03*
X0017000Y0043650D03*
Y0042850D03*
X0021500Y0045600D03*
Y0046400D03*
X0077000Y0058600D03*
Y0059400D03*
X0079000Y0061600D03*
Y0062400D03*
Y0066350D03*
Y0067150D03*
X0058000Y0059100D03*
Y0059900D03*
X0061250Y0059100D03*
Y0059900D03*
X0006500Y0030350D03*
Y0031150D03*
X0005500Y0030350D03*
Y0031150D03*
X0006500Y0022600D03*
Y0023400D03*
X0007500Y0030350D03*
Y0031150D03*
X0049000Y0059100D03*
Y0059900D03*
X0051750Y0059100D03*
Y0059900D03*
X0040250Y0058850D03*
Y0059650D03*
X0047750Y0059100D03*
Y0059900D03*
X0029750Y0052850D03*
Y0053650D03*
X0011250Y0001350D03*
Y0002150D03*
G54D14*
X0025720Y0075500D03*
X0026280D03*
X0025720Y0074000D03*
X0026280D03*
X0025720Y0064250D03*
X0026280D03*
X0025720Y0067500D03*
X0026280D03*
X0025720Y0071500D03*
X0026280D03*
X0025720Y0078750D03*
X0026280D03*
X0029530Y0069250D03*
X0028970D03*
X0025720Y0065000D03*
X0026280D03*
X0025720Y0069000D03*
X0026280D03*
X0025720Y0068250D03*
X0026280D03*
Y0078000D03*
X0025720D03*
X0026280Y0074750D03*
X0025720D03*
X0027780Y0065000D03*
X0027220D03*
X0067970Y0075250D03*
X0068530D03*
X0066030D03*
X0065470D03*
X0055970D03*
X0056530D03*
X0054030D03*
X0053470D03*
X0031220Y0079750D03*
X0031780D03*
X0032220Y0077000D03*
X0032780D03*
X0032220Y0076000D03*
X0032780D03*
X0032970Y0063250D03*
X0033530D03*
X0009470Y0026750D03*
X0010030D03*
X0009470Y0027750D03*
X0010030D03*
X0011470Y0030250D03*
X0012030D03*
X0014030Y0028000D03*
X0013470D03*
X0014030Y0027000D03*
X0013470D03*
X0014030Y0026000D03*
X0013470D03*
X0024780Y0062250D03*
X0024220D03*
X0023030Y0060750D03*
X0022470D03*
X0031780Y0080500D03*
X0031220D03*
X0025030Y0068250D03*
X0024470D03*
X0024780Y0072000D03*
X0024220D03*
X0023030Y0077500D03*
X0022470D03*
X0068530Y0076000D03*
X0067970D03*
X0065470D03*
X0066030D03*
X0056530D03*
X0055970D03*
X0053470D03*
X0054030D03*
X0013470Y0067000D03*
X0014030D03*
X0004720D03*
X0005280D03*
X0002970D03*
X0003530D03*
X0001220D03*
X0001780D03*
X-0000530D03*
X0000030D03*
X0011720D03*
X0012280D03*
X0008220D03*
X0008780D03*
X0009970D03*
X0010530D03*
X0036220Y0003750D03*
X0036780D03*
G54D15*
X0045000Y0058970D03*
Y0059530D03*
X0074750Y0067030D03*
Y0066470D03*
X0072750Y0067030D03*
Y0066470D03*
X0045000Y0067030D03*
Y0066470D03*
X0043000Y0070530D03*
Y0069970D03*
X0044000Y0067030D03*
Y0066470D03*
X0041000Y0067030D03*
Y0066470D03*
X0039500Y0061720D03*
Y0062280D03*
X0006000Y0045030D03*
Y0044470D03*
X0007000D03*
Y0045030D03*
X0024500Y0019720D03*
Y0020280D03*
X0013500Y0019970D03*
Y0020530D03*
X0030250Y0015970D03*
Y0016530D03*
X0034000D03*
Y0015970D03*
Y0019780D03*
Y0019220D03*
X0035000Y0017970D03*
Y0018530D03*
X0031000Y0013470D03*
Y0014030D03*
X0025500Y0017220D03*
Y0017780D03*
X0026250Y0015220D03*
Y0015780D03*
X0020000Y0015220D03*
Y0015780D03*
X0034750Y0020220D03*
Y0020780D03*
X0030000Y0019220D03*
Y0019780D03*
X0015750Y0048280D03*
Y0047720D03*
X0030250Y0014030D03*
Y0013470D03*
X0013750Y0046470D03*
Y0047030D03*
X0018750Y0051970D03*
Y0052530D03*
Y0050720D03*
Y0051280D03*
X0018000Y0050720D03*
Y0051280D03*
X0021500Y0047780D03*
Y0047220D03*
X0077250Y0067030D03*
Y0066470D03*
X0077000Y0060220D03*
Y0060780D03*
X0075750Y0067030D03*
Y0066470D03*
X0037500D03*
Y0067030D03*
X0078750Y0071530D03*
Y0070970D03*
X0066750Y0066470D03*
Y0067030D03*
X0078250Y0062280D03*
Y0061720D03*
X0065750Y0062280D03*
Y0061720D03*
X0080000Y0067720D03*
Y0068280D03*
Y0067030D03*
Y0066470D03*
X0059000D03*
Y0067030D03*
X0067750Y0066470D03*
Y0067030D03*
X0058000Y0061720D03*
Y0062280D03*
X0061500Y0066470D03*
Y0067030D03*
X0070750Y0066470D03*
Y0067030D03*
X0060500Y0061720D03*
Y0062280D03*
X0003500Y0034220D03*
Y0034780D03*
X0006500Y0031970D03*
Y0032530D03*
X0002000Y0034780D03*
Y0034220D03*
X0005500Y0032530D03*
Y0031970D03*
X0012000Y0045280D03*
Y0044720D03*
X0018000Y0036780D03*
Y0036220D03*
X0017250Y0035280D03*
Y0034720D03*
X0016250Y0038030D03*
Y0037470D03*
X0017250Y0036220D03*
Y0036780D03*
X0006500Y0024220D03*
Y0024780D03*
X0017250Y0037470D03*
Y0038030D03*
X0007500Y0031970D03*
Y0032530D03*
Y0046780D03*
Y0046220D03*
X0006750Y0046780D03*
Y0046220D03*
X0008000Y0049220D03*
Y0049780D03*
X0005250Y0048280D03*
Y0047720D03*
X0009500Y0045280D03*
Y0044720D03*
X0008750Y0049780D03*
Y0049220D03*
X0005250Y0049530D03*
Y0048970D03*
X0064000Y0066470D03*
Y0067030D03*
X0055000D03*
Y0066470D03*
X0050750D03*
Y0067030D03*
X0053000Y0066470D03*
Y0067030D03*
X0049750Y0061470D03*
Y0062030D03*
X0051750Y0061470D03*
Y0062030D03*
X0046500Y0066470D03*
Y0067030D03*
X0048750Y0066470D03*
Y0067030D03*
X0040250Y0061720D03*
Y0062280D03*
X0047750Y0061470D03*
Y0062030D03*
X0008500Y0026720D03*
Y0027280D03*
X0069250Y0070780D03*
Y0070220D03*
Y0069530D03*
Y0068970D03*
X0067750Y0069530D03*
Y0068970D03*
X0068500Y0069530D03*
Y0068970D03*
X0065250Y0072220D03*
Y0072780D03*
X0057250Y0070780D03*
Y0070220D03*
Y0069530D03*
Y0068970D03*
X0055750Y0069530D03*
Y0068970D03*
X0056500Y0069530D03*
Y0068970D03*
X0053250Y0072220D03*
Y0072780D03*
X0008000Y0055470D03*
Y0056030D03*
X0005250Y0055470D03*
Y0056030D03*
X0013500Y0063030D03*
Y0062470D03*
X0004750Y0063030D03*
Y0062470D03*
X0003000Y0063030D03*
Y0062470D03*
X0001250Y0063030D03*
Y0062470D03*
X0017500D03*
Y0063030D03*
X-0000500D03*
Y0062470D03*
X0015250D03*
Y0063030D03*
X0011750D03*
Y0062470D03*
X0008250Y0063030D03*
Y0062470D03*
X0010000Y0063030D03*
Y0062470D03*
X0006250D03*
Y0063030D03*
X0073250Y0061970D03*
Y0062530D03*
X0072500Y0061970D03*
Y0062530D03*
X0037500Y0058030D03*
Y0057470D03*
X0040500Y0049530D03*
Y0048970D03*
X0028250Y0046280D03*
Y0045720D03*
X0030500Y0053530D03*
Y0052970D03*
X0032500Y0058280D03*
Y0057720D03*
X0076000Y0062280D03*
Y0061720D03*
X0058750Y0059530D03*
Y0058970D03*
X0062000Y0058280D03*
Y0057720D03*
X0049000Y0058280D03*
Y0057720D03*
X0051750Y0058280D03*
Y0057720D03*
X0040250Y0058030D03*
Y0057470D03*
X0047750Y0058280D03*
Y0057720D03*
X0068750Y0079220D03*
Y0079780D03*
X0064000Y0076030D03*
Y0075470D03*
X0057000Y0079220D03*
Y0079780D03*
X0052750Y0076030D03*
Y0075470D03*
X0010000Y0025220D03*
Y0025780D03*
X0041000Y0056220D03*
Y0056780D03*
X0044000Y0057470D03*
Y0058030D03*
X0073250Y0061280D03*
Y0060720D03*
X0072500Y0061280D03*
Y0060720D03*
X0039250Y0066470D03*
Y0067030D03*
X0036750Y0059220D03*
Y0059780D03*
X0007750Y0044470D03*
Y0045030D03*
X0015750Y0022970D03*
Y0023530D03*
X0034750Y0016530D03*
Y0015970D03*
X0015250Y0029280D03*
Y0028720D03*
X0033000Y0016470D03*
Y0017030D03*
X0026250Y0018470D03*
Y0019030D03*
X0027250D03*
Y0018470D03*
X0025250Y0020280D03*
Y0019720D03*
X0020000Y0016720D03*
Y0017280D03*
X0013750Y0047720D03*
Y0048280D03*
X0016750Y0040530D03*
Y0039970D03*
X0024000Y0046280D03*
Y0045720D03*
X0024750Y0046280D03*
Y0045720D03*
X0019500Y0051780D03*
Y0051220D03*
X0021500Y0052030D03*
Y0051470D03*
X0026000Y0046280D03*
Y0045720D03*
X0021500Y0050220D03*
Y0050780D03*
X0029750Y0049720D03*
Y0050280D03*
X0027500Y0054220D03*
Y0054780D03*
X0024500Y0054220D03*
Y0054780D03*
X0029750Y0054220D03*
Y0054780D03*
X0079750Y0058030D03*
Y0057470D03*
X0076000Y0052970D03*
Y0053530D03*
X0032500Y0059220D03*
Y0059780D03*
X0076750Y0061720D03*
Y0062280D03*
Y0072220D03*
Y0072780D03*
X0058750Y0057720D03*
Y0058280D03*
X0061250Y0057720D03*
Y0058280D03*
X0071250Y0069780D03*
Y0069220D03*
X0002750Y0034780D03*
Y0034220D03*
X0004500Y0031970D03*
Y0032530D03*
X0014250Y0033470D03*
Y0034030D03*
X0015500Y0038030D03*
Y0037470D03*
X0014750Y0038030D03*
Y0037470D03*
X0005000Y0022720D03*
Y0023280D03*
X0009000Y0020220D03*
Y0020780D03*
X0018000Y0037470D03*
Y0038030D03*
X0014250Y0034720D03*
Y0035280D03*
X0006000Y0046780D03*
Y0046220D03*
X0007250Y0049220D03*
Y0049780D03*
X0004500Y0048280D03*
Y0047720D03*
X0009500Y0049220D03*
Y0049780D03*
X0006500Y0049220D03*
Y0049780D03*
X0067500Y0059220D03*
Y0059780D03*
X0064500Y0058970D03*
Y0059530D03*
X0055000Y0057720D03*
Y0058280D03*
X0058000Y0057720D03*
Y0058280D03*
X0047750Y0056470D03*
Y0057030D03*
X0052500Y0057720D03*
Y0058280D03*
X0041000Y0057470D03*
Y0058030D03*
X0045000Y0057470D03*
Y0058030D03*
X0032250Y0068030D03*
Y0067470D03*
X0024500Y0075030D03*
Y0074470D03*
X0032250Y0073030D03*
Y0072470D03*
X0024500Y0065280D03*
Y0064720D03*
X0032250Y0079030D03*
Y0078470D03*
X0064750Y0075470D03*
Y0076030D03*
X0069250D03*
Y0075470D03*
X0066750Y0069530D03*
Y0068970D03*
X0052000Y0075470D03*
Y0076030D03*
X0057250D03*
Y0075470D03*
X0054750Y0069530D03*
Y0068970D03*
X0006000Y0055470D03*
Y0056030D03*
X0018500Y0069280D03*
Y0068720D03*
X0016250Y0069280D03*
Y0068720D03*
X0007500Y0069030D03*
Y0068470D03*
X0078500Y0051780D03*
Y0051220D03*
X0080750Y0076220D03*
Y0076780D03*
X0001000Y0076220D03*
Y0076780D03*
X0035250Y0046220D03*
Y0046780D03*
X0000000Y0002780D03*
Y0002220D03*
G54D16*
X0001250Y0028214D03*
Y0026285D03*
X-0000250Y0028214D03*
Y0026285D03*
X0007250Y0025785D03*
Y0027714D03*
X0005750Y0025785D03*
Y0027714D03*
X0003750Y0019285D03*
Y0021214D03*
X0007750Y0020714D03*
Y0018785D03*
X0018500Y0032035D03*
Y0033964D03*
G54D17*
X0010750Y0033653D03*
Y0035346D03*
X0008500Y0033653D03*
Y0035346D03*
G54D18*
X0003000Y0032100D03*
Y0033400D03*
X0006750Y0035150D03*
Y0033850D03*
X0013250Y0031350D03*
Y0032650D03*
X0014500Y0031350D03*
Y0032650D03*
X0003750Y0023650D03*
Y0022350D03*
G54D19*
X0044250Y0060840D03*
Y0062160D03*
X0032750Y0020660D03*
Y0019340D03*
X0029250Y0015090D03*
Y0016410D03*
X0023250Y0020910D03*
Y0019590D03*
X0018250Y0045410D03*
Y0044090D03*
Y0041840D03*
Y0043160D03*
X0079500Y0058840D03*
Y0060160D03*
X0078250Y0058840D03*
Y0060160D03*
X0038500Y0060840D03*
Y0062160D03*
X0037250Y0060840D03*
Y0062160D03*
X0059000Y0060840D03*
Y0062160D03*
X0061500Y0060840D03*
Y0062160D03*
X0064000Y0060840D03*
Y0062160D03*
X0062750Y0060840D03*
Y0062160D03*
X0056250Y0055160D03*
Y0053840D03*
X0057500Y0055160D03*
Y0053840D03*
X0050750Y0060840D03*
Y0062160D03*
X0053000Y0060840D03*
Y0062160D03*
X0046750Y0060840D03*
Y0062160D03*
X0048750Y0060840D03*
Y0062160D03*
X0013750Y0067840D03*
Y0069160D03*
X0005000Y0067840D03*
Y0069160D03*
X0003250Y0067840D03*
Y0069160D03*
X0017500Y0067840D03*
Y0069160D03*
X0001500Y0067840D03*
Y0069160D03*
X0015250Y0067840D03*
Y0069160D03*
X-0000250Y0067840D03*
Y0069160D03*
X0012000Y0067840D03*
Y0069160D03*
X0008500Y0067840D03*
Y0069160D03*
X0010250Y0067840D03*
Y0069160D03*
X0006500Y0067840D03*
Y0069160D03*
X0020500Y0052160D03*
Y0050840D03*
G54D20*
X0015750Y0021959D03*
Y0020541D03*
G54D21*
X0001104Y0061000D03*
X0002396D03*
G54D22*
X0041130Y0054750D03*
X0042870D03*
X0066620Y0055500D03*
X0064880D03*
Y0057250D03*
X0066620D03*
X0057370Y0056500D03*
X0055630D03*
X0022380Y0063500D03*
X0024120D03*
X0022380Y0059500D03*
X0024120D03*
X0035120Y0080000D03*
X0033380D03*
X0022380Y0069500D03*
X0024120D03*
X0022380Y0073250D03*
X0024120D03*
X0022380Y0080000D03*
X0024120D03*
X0035120Y0074750D03*
X0033380D03*
X0035120Y0068000D03*
X0033380D03*
X0022380Y0076250D03*
X0024120D03*
X0035120Y0073000D03*
X0033380D03*
X0035120Y0070000D03*
X0033380D03*
X0022380Y0066500D03*
X0024120D03*
X0035120Y0064500D03*
X0033380D03*
X0035120Y0078250D03*
X0033380D03*
X0067630Y0077250D03*
X0069370D03*
X0065620D03*
X0063880D03*
X0068130Y0074000D03*
X0069870D03*
X0065870D03*
X0064130D03*
X0055880Y0077250D03*
X0057620D03*
X0053870D03*
X0052130D03*
X0056130Y0074000D03*
X0057870D03*
X0053870D03*
X0052130D03*
X0025630Y0080000D03*
X0027370D03*
X0036870Y0002500D03*
X0035130D03*
X0002870Y0003000D03*
X0001130D03*
G54D23*
X0018000Y0041146D03*
Y0039854D03*
X0010000Y0016604D03*
Y0017896D03*
G54D24*
X0016750Y0015963D03*
Y0017537D03*
X0036000Y0018213D03*
Y0019787D03*
X0021000Y0015213D03*
Y0016787D03*
X0012500Y0035287D03*
Y0033713D03*
G54D25*
X0043250Y0061606D03*
Y0062394D03*
X0021500Y0017856D03*
Y0018644D03*
X0022250Y0017856D03*
Y0018644D03*
X0036250Y0062394D03*
Y0061606D03*
X0066750D03*
Y0062394D03*
G54D26*
X0044500Y0056370D03*
Y0054630D03*
X0073000Y0057880D03*
Y0059620D03*
Y0056370D03*
Y0054630D03*
X0071250Y0057880D03*
Y0059620D03*
Y0056370D03*
Y0054630D03*
X0035500Y0057880D03*
Y0059620D03*
Y0056370D03*
Y0054630D03*
X0041750Y0049130D03*
Y0050870D03*
X0024250Y0015130D03*
Y0016870D03*
X0022500Y0015130D03*
Y0016870D03*
X0079750Y0056370D03*
Y0054630D03*
X0077250Y0054870D03*
Y0053130D03*
X0033750Y0057880D03*
Y0059620D03*
Y0056370D03*
Y0054630D03*
X0060000Y0057880D03*
Y0059620D03*
X0059250Y0056370D03*
Y0054630D03*
X0063250Y0057880D03*
Y0059620D03*
Y0056370D03*
Y0054630D03*
X0061000D03*
Y0056370D03*
X0053750D03*
Y0054630D03*
X0050250Y0057880D03*
Y0059620D03*
X0053750Y0057880D03*
Y0059620D03*
X0050250Y0056370D03*
Y0054630D03*
X0052000Y0056370D03*
Y0054630D03*
X0039000Y0057880D03*
Y0059620D03*
X0046250Y0057880D03*
Y0059620D03*
X0039000Y0056370D03*
Y0054630D03*
X0046250Y0056370D03*
Y0054630D03*
X0013750Y0072120D03*
Y0070380D03*
X0005000Y0072120D03*
Y0070380D03*
X0003250Y0072120D03*
Y0070380D03*
X0017500Y0072120D03*
Y0070380D03*
X0001500Y0072120D03*
Y0070380D03*
X0015500Y0072120D03*
Y0070380D03*
X-0000250Y0072120D03*
Y0070380D03*
X0012000Y0072120D03*
Y0070380D03*
X0008500Y0072120D03*
Y0070380D03*
X0010250Y0072120D03*
Y0070380D03*
X0006750Y0072120D03*
Y0070380D03*
X0079750Y0051630D03*
Y0053370D03*
X0079500Y0076870D03*
Y0075130D03*
X-0000250Y0076870D03*
Y0075130D03*
X0036500Y0046870D03*
Y0045130D03*
X0002750Y-0000620D03*
Y0001120D03*
X0075500Y0057880D03*
Y0059620D03*
Y0056370D03*
Y0054630D03*
G54D28*
X0027900Y0075500D03*
X0027100D03*
X0027900Y0074000D03*
X0027100D03*
X0027900Y0064250D03*
X0027100D03*
X0027900Y0067500D03*
X0027100D03*
X0027900Y0071500D03*
X0027100D03*
X0027900Y0078750D03*
X0027100D03*
G54D30*
X0041750Y0061957D03*
Y0059043D03*
X0056500Y0063207D03*
Y0060293D03*
X0062250Y0075957D03*
Y0073043D03*
X0050250Y0075957D03*
Y0073043D03*
G54D35*
X0006250Y0077136D03*
X0006750Y0075364D03*
X0007250Y0077136D03*
X0007750Y0075364D03*
X0008250Y0077136D03*
X0008750Y0075364D03*
X0009250Y0077136D03*
X0009750Y0075364D03*
X0010250Y0077136D03*
X0010750Y0075364D03*
X0011250Y0077136D03*
X0011750Y0075364D03*
X0012250Y0077136D03*
X0012750Y0075364D03*
X0013250Y0077136D03*
X0013750Y0075364D03*
X0014250Y0077136D03*
X0014750Y0075364D03*
X0015250Y0077136D03*
X0015750Y0075364D03*
G54D38*
X0067197Y0074900D03*
Y0076100D03*
X0066803D03*
Y0074900D03*
X0055197D03*
Y0076100D03*
X0054803D03*
Y0074900D03*
G54D40*
X0011240Y0037500D03*
X0013760D03*
G54D42*
X0076750Y0068800D03*
X0077150Y0069700D03*
X0076350D03*
X0054500Y0061050D03*
X0054900Y0061950D03*
X0054100D03*
X0007500Y0057950D03*
X0007100Y0057050D03*
X0007900D03*
X0005750Y0057950D03*
X0005350Y0057050D03*
X0006150D03*
G54D44*
X0043300Y0059250D03*
X0044200Y0058850D03*
Y0059650D03*
X0018200Y0021250D03*
X0017300Y0021650D03*
Y0020850D03*
X0029950Y0018000D03*
X0029050Y0018400D03*
Y0017600D03*
G54D45*
X0023410Y0062000D03*
X0022090D03*
X0023660Y0058000D03*
X0022340D03*
X0023660Y0068000D03*
X0022340D03*
X0023660Y0071000D03*
X0022340D03*
X0023660Y0078500D03*
X0022340D03*
X0035160Y0066500D03*
X0033840D03*
X0023660Y0074750D03*
X0022340D03*
X0035160Y0071500D03*
X0033840D03*
X0023660Y0065000D03*
X0022340D03*
X0035910Y0076750D03*
X0034590D03*
G54D46*
X0080000Y0061255D03*
Y0062245D03*
G54D48*
X0032750Y0032886D03*
X0034750D03*
X0023250D03*
X0025250D03*
G54D51*
X0074750Y0065602D03*
X0073750D03*
Y0063398D03*
X0074750D03*
X0072750Y0065602D03*
X0071750D03*
Y0063398D03*
X0072750D03*
X0045000Y0065602D03*
X0044000D03*
Y0063398D03*
X0045000D03*
X0043000Y0068852D03*
X0042000D03*
Y0066648D03*
X0043000D03*
X0006000Y0041148D03*
X0007000D03*
Y0043352D03*
X0006000D03*
X0014750Y0044398D03*
X0015750D03*
Y0046602D03*
X0014750D03*
X0015750Y0043352D03*
X0014750D03*
Y0041148D03*
X0015750D03*
X0065750Y0063398D03*
X0066750D03*
Y0065602D03*
X0065750D03*
X0080000D03*
X0079000D03*
Y0063398D03*
X0080000D03*
X0068750Y0065602D03*
X0067750D03*
Y0063398D03*
X0068750D03*
X0070750Y0065602D03*
X0069750D03*
Y0063398D03*
X0070750D03*
X0012000Y0043352D03*
X0011000D03*
Y0041148D03*
X0012000D03*
X0009500Y0043352D03*
X0008500D03*
Y0041148D03*
X0009500D03*
X0017500Y0063898D03*
X0018500D03*
Y0066102D03*
X0017500D03*
X0015250Y0063898D03*
X0016250D03*
Y0066102D03*
X0015250D03*
X0006250Y0063898D03*
X0007250D03*
Y0066102D03*
X0006250D03*
G54D52*
X0042500Y0063260D03*
X0043000D03*
Y0065740D03*
X0042500D03*
X0040500Y0063260D03*
X0041000D03*
Y0065740D03*
X0040500D03*
X0077250Y0063260D03*
X0077750D03*
Y0065740D03*
X0077250D03*
X0075750Y0063260D03*
X0076250D03*
Y0065740D03*
X0075750D03*
X0038750Y0063260D03*
X0039250D03*
Y0065740D03*
X0038750D03*
X0037000Y0063260D03*
X0037500D03*
Y0065740D03*
X0037000D03*
X0058500Y0063260D03*
X0059000D03*
Y0065740D03*
X0058500D03*
X0061000Y0063260D03*
X0061500D03*
Y0065740D03*
X0061000D03*
X0063500Y0063260D03*
X0064000D03*
Y0065740D03*
X0063500D03*
X0050250Y0063260D03*
X0050750D03*
Y0065740D03*
X0050250D03*
X0052500Y0063260D03*
X0053000D03*
Y0065740D03*
X0052500D03*
X0046000Y0063260D03*
X0046500D03*
Y0065740D03*
X0046000D03*
X0048250Y0063260D03*
X0048750D03*
Y0065740D03*
X0048250D03*
X0014000Y0066240D03*
X0013500D03*
Y0063760D03*
X0014000D03*
X0005250Y0066240D03*
X0004750D03*
Y0063760D03*
X0005250D03*
X0003500Y0066240D03*
X0003000D03*
Y0063760D03*
X0003500D03*
X0001750Y0066240D03*
X0001250D03*
Y0063760D03*
X0001750D03*
X0000000Y0066240D03*
X-0000500D03*
Y0063760D03*
X0000000D03*
X0012250Y0066240D03*
X0011750D03*
Y0063760D03*
X0012250D03*
X0008750Y0066240D03*
X0008250D03*
Y0063760D03*
X0008750D03*
X0010500Y0066240D03*
X0010000D03*
Y0063760D03*
X0010500D03*
G54D53*
X0007197Y0055459D03*
Y0056041D03*
X0006803D03*
Y0055459D03*
X0007000D03*
G54D54*
X0015250Y0025000D03*
X0015750D03*
X0016250D03*
X0016750D03*
Y0027400D03*
X0016250D03*
X0015750D03*
X0015250D03*
X0066250Y0070250D03*
X0066750D03*
X0067250D03*
X0067750D03*
Y0072650D03*
X0067250D03*
X0066750D03*
X0066250D03*
X0054250Y0070250D03*
X0054750D03*
X0055250D03*
X0055750D03*
Y0072650D03*
X0055250D03*
X0054750D03*
X0054250D03*
G54D55*
X0027990Y0061250D03*
Y0061750D03*
X0025510D03*
Y0061250D03*
X0027990Y0059750D03*
Y0060250D03*
X0025510D03*
Y0059750D03*
X0029010Y0071000D03*
Y0070500D03*
X0031490D03*
Y0071000D03*
X0027990Y0066000D03*
Y0066500D03*
X0025510D03*
Y0066000D03*
X0027990Y0070000D03*
Y0070500D03*
X0025510D03*
Y0070000D03*
X0027990Y0076500D03*
Y0077000D03*
X0025510D03*
Y0076500D03*
X0029010Y0077000D03*
Y0076500D03*
X0031490D03*
Y0077000D03*
Y0067500D03*
Y0068000D03*
X0029010D03*
Y0067500D03*
X0025510Y0073000D03*
Y0072500D03*
X0027990D03*
Y0073000D03*
X0029010Y0075000D03*
Y0074500D03*
X0031490D03*
Y0075000D03*
Y0072500D03*
Y0073000D03*
X0029010D03*
Y0072500D03*
X0025510Y0063250D03*
Y0062750D03*
X0027990D03*
Y0063250D03*
X0029010Y0065000D03*
Y0064500D03*
X0031490D03*
Y0065000D03*
Y0078500D03*
Y0079000D03*
X0029010D03*
Y0078500D03*
G54D56*
X0076250Y0071500D03*
Y0071120D03*
Y0070750D03*
X0077270D03*
Y0071500D03*
X0072250Y0070750D03*
Y0071130D03*
Y0071500D03*
X0071230D03*
Y0070750D03*
X0074750D03*
Y0071130D03*
Y0071500D03*
X0073730D03*
Y0070750D03*
X0005500Y0034000D03*
Y0034380D03*
Y0034750D03*
X0004480D03*
Y0034000D03*
X0008500Y0048250D03*
Y0047870D03*
Y0047500D03*
X0009520D03*
Y0048250D03*
X0006250D03*
Y0047870D03*
Y0047500D03*
X0007270D03*
Y0048250D03*
G54D57*
X0015750Y0035250D03*
G54D58*
X0015000Y0034155D03*
X0015500D03*
X0016000D03*
X0016500D03*
Y0036345D03*
X0016000D03*
X0015500D03*
X0015000D03*
G54D59*
X0003500Y0028300D03*
G54D60*
X0002600Y0025700D03*
X0003500D03*
X0004400D03*
G54D61*
X0028235Y0048780D03*
Y0048977D03*
Y0049174D03*
Y0049568D03*
Y0049765D03*
Y0049962D03*
Y0050159D03*
Y0050356D03*
Y0050553D03*
Y0050750D03*
Y0050947D03*
Y0051144D03*
Y0051538D03*
Y0051735D03*
X0023720D03*
Y0051341D03*
Y0051144D03*
Y0050947D03*
Y0050750D03*
Y0050553D03*
Y0050356D03*
Y0050159D03*
Y0049962D03*
Y0049765D03*
Y0049371D03*
Y0049174D03*
Y0048977D03*
Y0048780D03*
G54D62*
X0028235Y0049371D03*
Y0051341D03*
X0023720Y0051538D03*
Y0049568D03*
G54D63*
X0024697Y0048000D03*
X0024894D03*
X0025091D03*
X0025288D03*
X0025485D03*
X0025682D03*
X0025879D03*
X0026076D03*
X0026470D03*
X0026667D03*
X0026864D03*
X0027061D03*
X0027258D03*
X0027455D03*
Y0052515D03*
X0027258D03*
X0027061D03*
X0026864D03*
X0026667D03*
X0026470D03*
X0026273D03*
X0025879D03*
X0025682D03*
X0025485D03*
X0025288D03*
X0025091D03*
X0024894D03*
X0024697D03*
X0024500D03*
G54D64*
Y0048000D03*
X0026273D03*
X0026076Y0052515D03*
G54D65*
X0034000Y0017750D03*
Y0018124D03*
Y0018498D03*
X0032968D03*
Y0018124D03*
Y0017750D03*
X0026250Y0017250D03*
Y0016876D03*
Y0016502D03*
X0027281D03*
Y0016876D03*
Y0017250D03*
G54D68*
X0024716Y0047000D03*
X0024283D03*
M02*
